<?xml version="1.0" encoding="UTF-8"?>
<svg version="1.1" xmlns="http://www.w3.org/2000/svg" width="512" height="512">
<path d="M0 0 C5.6475711 1.64292978 8.97955089 6.71392212 11.9140625 11.51171875 C15.72181833 18.72981901 18.1484375 25.44125106 18.1484375 33.625 C19.2828125 33.955 20.4171875 34.285 21.5859375 34.625 C39.96614513 40.82868075 60.25540044 51.84935134 73.1484375 66.625 C73.93118313 69.3889018 73.80585295 71.83527184 73.1484375 74.625 C70.676597 77.53304765 69.149602 78.47814371 65.37890625 79.03125 C61.08323788 78.49104503 58.74250169 76.37052055 55.5859375 73.625 C44.31737023 64.3329818 29.6857398 53.89902391 15.1484375 50.625 C14.74753906 51.32625 14.34664063 52.0275 13.93359375 52.75 C7.14858301 64.07373675 -1.1835973 71.9408023 -14.2734375 75.234375 C-25.37462764 76.91637351 -36.91333402 76.03022443 -46.55859375 69.90625 C-48.75973471 68.22783557 -50.82834077 66.51246443 -52.8515625 64.625 C-53.41746094 64.1403125 -53.98335937 63.655625 -54.56640625 63.15625 C-56.5061968 60.8450102 -56.32394935 58.47681491 -56.1953125 55.56640625 C-55.8515625 53.625 -55.8515625 53.625 -54.2890625 51.125 C-50.7784009 48.96459286 -48.92502154 48.94609016 -44.8515625 49.625 C-42.7304234 50.98099874 -40.8327637 52.50350651 -38.87890625 54.08984375 C-33.5974587 58.08909016 -27.91675179 59.19181765 -21.375 58.98046875 C-15.14810254 58.10330518 -9.28650484 55.05994234 -4.8515625 50.625 C-3.81807853 48.64209534 -2.81399046 46.64334893 -1.8515625 44.625 C-4.18417273 44.14207679 -6.51755838 43.66360141 -8.8515625 43.1875 C-9.49996094 43.05279297 -10.14835938 42.91808594 -10.81640625 42.77929688 C-50.24062375 34.77735174 -92.67948128 43.05131975 -126.21484375 65.1015625 C-131.37568833 68.61250686 -136.13187954 72.54222927 -140.8515625 76.625 C-141.93350061 77.48093326 -143.01658467 78.33542317 -144.1015625 79.1875 C-147.72563857 82.39974924 -150.77337949 85.89331385 -153.8515625 89.625 C-154.604375 90.50542969 -155.3571875 91.38585937 -156.1328125 92.29296875 C-176.10608329 116.72230153 -185.44561595 147.55075085 -182.64501953 178.93994141 C-180.11271447 201.16582497 -171.59063641 221.86691828 -157.6015625 239.3046875 C-155.8515625 241.625 -155.8515625 241.625 -154.8515625 244.625 C-153.52705078 244.11839844 -153.52705078 244.11839844 -152.17578125 243.6015625 C-119.67088276 231.5213317 -84.35016581 242.75976557 -53.74023438 256.578125 C-50.96713731 257.89891391 -48.22319091 259.25538882 -45.5078125 260.69140625 C-38.80364908 263.04772251 -32.19248123 258.74289943 -26.1015625 256.0625 C2.73144234 243.73087295 38.25960977 230.50824135 69.0859375 242.8125 C70.44611272 243.4030151 71.80310905 244.0014007 73.1484375 244.625 C73.51582031 243.81482422 73.51582031 243.81482422 73.890625 242.98828125 C75.44660199 240.06478411 77.33456908 237.49786655 79.2734375 234.8125 C97.05989569 209.43984517 105.20425864 178.84730754 100.0234375 148 C96.85523376 131.36839443 90.57374118 115.09790465 81.1484375 101 C79.01721189 97.40355679 78.31253881 95.71161584 79.1484375 91.625 C81.21738915 88.68072265 82.65753677 87.78167045 86.0859375 86.6875 C89.99088662 86.60780716 91.06102586 87.21409473 94.1484375 89.625 C96.25539987 92.52795101 97.97686767 95.61376275 99.7109375 98.75 C100.41379883 99.97589844 100.41379883 99.97589844 101.13085938 101.2265625 C109.1484375 115.40029502 109.1484375 115.40029502 109.1484375 119.625 C110.00824219 119.57859375 110.86804688 119.5321875 111.75390625 119.484375 C128.05619266 118.98659526 141.13113779 124.31069815 153.046875 135.36328125 C163.1388582 146.2243561 168.84503307 161.28494017 168.39453125 176.125 C166.64777143 193.86986165 159.44128492 207.09245313 145.7734375 218.4375 C132.36118786 228.34480636 119.13411975 228.9354016 103.1484375 228.625 C102.67535156 229.49640625 102.20226562 230.3678125 101.71484375 231.265625 C97.11728695 239.59340809 92.05352498 247.16162554 86.1484375 254.625 C86.50035156 255.04007813 86.85226562 255.45515625 87.21484375 255.8828125 C109.14899888 283.25755441 111.66498584 325.45884073 108.13037109 358.97973633 C102.58075689 406.51477059 83.28345302 454.04910972 45.1484375 484.625 C29.63368312 496.33601629 12.93041189 504.67909605 -5.8515625 509.625 C-7.55119141 510.10453125 -7.55119141 510.10453125 -9.28515625 510.59375 C-43.70603741 518.73713481 -79.94975364 510.35904435 -109.8515625 492.625 C-116.9265861 488.22213045 -116.9265861 488.22213045 -117.8515625 484.625 C-117.72241837 480.94439225 -117.63015641 478.5533235 -115.2265625 475.6875 C-111.87924203 474.19001453 -109.50613812 474.31261094 -105.8515625 474.625 C-103.31041388 475.9112957 -101.12848335 477.17558821 -98.7890625 478.75 C-73.05722534 495.01780334 -42.46382992 500.0874141 -12.7265625 493.8046875 C5.78204519 489.21609518 22.73566879 481.17959357 37.1484375 468.625 C37.97988281 467.91472656 38.81132812 467.20445312 39.66796875 466.47265625 C58.17237755 450.29906392 80.33430833 421.89007723 82.3347168 396.23608398 C82.11941206 393.21814927 81.40839752 391.93520238 79.69140625 389.47265625 C79.1612793 388.70300537 78.63115234 387.93335449 78.08496094 387.14038086 C77.5077832 386.33093018 76.93060547 385.52147949 76.3359375 384.6875 C75.7471582 383.84646729 75.15837891 383.00543457 74.55175781 382.13891602 C67.31479414 371.88849938 59.68497964 362.07982356 51.18359375 352.84375 C49.3529933 350.84800901 47.59007267 348.81269389 45.8359375 346.75 C38.60317044 338.45754846 30.6381942 330.62252984 22.1484375 323.625 C21.64538086 323.20814941 21.14232422 322.79129883 20.62402344 322.36181641 C-18.23883874 290.28824943 -76.46415889 252.57387806 -128.9140625 254.5625 C-141.28802532 256.1792791 -151.99752857 262.26428503 -159.6015625 272.125 C-177.57881492 299.69288824 -176.64672501 343.15185377 -170.27978516 373.92358398 C-163.73291589 403.31181038 -151.25379448 430.25985248 -130.7734375 452.51953125 C-124.8515625 459.00711382 -124.8515625 459.00711382 -124.8515625 464.3125 C-125.8515625 467.625 -125.8515625 467.625 -127.4765625 469.5625 C-130.87776121 471.0840889 -133.16438981 471.14249792 -136.8515625 470.625 C-139.3515625 468.5625 -139.3515625 468.5625 -141.8515625 465.625 C-142.89152768 464.66482051 -143.93336982 463.70667196 -144.9765625 462.75 C-171.099244 436.3452161 -186.28182354 396.06415358 -189.8515625 359.625 C-189.96113281 358.59117187 -190.07070312 357.55734375 -190.18359375 356.4921875 C-193.37259503 321.88089357 -189.36348979 282.96095256 -167.8515625 254.625 C-168.18889404 254.15715088 -168.52622559 253.68930176 -168.8737793 253.20727539 C-170.43387025 251.03756121 -171.98647008 248.86258551 -173.5390625 246.6875 C-174.06951172 245.95208984 -174.59996094 245.21667969 -175.14648438 244.45898438 C-178.77121075 239.36657738 -181.93185459 234.15126876 -184.8515625 228.625 C-186.02332031 228.65980469 -187.19507813 228.69460937 -188.40234375 228.73046875 C-204.63997869 229.07315173 -218.48195682 226.32287357 -231.1640625 215.3125 C-243.03418357 203.89892205 -249.4290554 190.91141044 -250.1640625 174.3125 C-249.677056 159.10707473 -243.88781782 144.75512222 -233.30078125 133.80859375 C-223.10708112 124.72043048 -211.18848338 119.43493532 -197.5390625 119.5625 C-196.28480469 119.57152344 -195.03054687 119.58054687 -193.73828125 119.58984375 C-192.78566406 119.60144531 -191.83304688 119.61304687 -190.8515625 119.625 C-190.5421875 118.47 -190.2328125 117.315 -189.9140625 116.125 C-184.85302248 100.9896256 -174.56706088 87.38602626 -163.86328125 75.828125 C-161.72073811 73.54094349 -161.72073811 73.54094349 -159.4765625 70.5625 C-155.40499687 66.00622418 -150.65082568 62.38692244 -145.8515625 58.625 C-144.9440625 57.89023437 -144.0365625 57.15546875 -143.1015625 56.3984375 C-124.15054821 41.5008346 -101.27797213 31.88982028 -77.8515625 26.625 C-77.13226563 26.46128906 -76.41296875 26.29757813 -75.671875 26.12890625 C-51.66007707 20.95910634 -23.60434675 21.57094466 0.1484375 27.625 C-1.38173553 22.58443001 -2.86019507 19.36796813 -6.5390625 15.5625 C-9.1851993 12.70893298 -9.80826807 11.86115144 -10.5390625 7.875 C-9.8515625 4.625 -9.8515625 4.625 -8.3515625 2.1875 C-5.54845043 0.43555496 -3.32387109 -0.19770237 0 0 Z M-223.8515625 147.625 C-230.37374502 155.62112207 -233.15621149 164.01916536 -234.2265625 174.1875 C-232.97115505 185.69540163 -228.48591991 196.00792672 -219.9765625 204.0234375 C-212.85225363 209.39286146 -204.98974229 212.82109224 -196.0390625 212.6875 C-195.24886719 212.67847656 -194.45867187 212.66945313 -193.64453125 212.66015625 C-193.05285156 212.64855469 -192.46117187 212.63695312 -191.8515625 212.625 C-192.10550781 211.69042969 -192.35945313 210.75585938 -192.62109375 209.79296875 C-199.31630716 184.54235637 -200.23926049 161.40272571 -195.8515625 135.625 C-207.17478112 135.28991092 -215.93841934 139.60401162 -223.8515625 147.625 Z M114.1484375 135.625 C114.365 136.89730469 114.5815625 138.16960937 114.8046875 139.48046875 C118.92388325 164.93348256 116.8775286 187.86057844 110.1484375 212.625 C120.99673412 213.14991758 129.70960487 210.61934777 138.1484375 203.625 C145.7471364 196.33672752 151.08719387 188.27008994 152.1484375 177.625 C152.29993491 164.22589593 148.52486849 154.25080416 139.1484375 144.625 C131.60294348 138.27019564 123.9709446 135.41095021 114.1484375 135.625 Z M28.5859375 255.6875 C27.59013672 255.90865479 26.59433594 256.12980957 25.56835938 256.35766602 C9.3181572 260.07975799 -6.53988973 265.02138757 -21.8515625 271.625 C-18.70471672 275.10595533 -15.20362201 277.33343349 -11.1640625 279.625 C6.02000979 289.6729001 22.13071453 301.82928782 36.7109375 315.37109375 C38.77687936 317.28142781 40.87794329 319.1182997 43.0234375 320.9375 C51.73372835 328.53888319 59.79800185 336.82330707 66.97265625 345.88671875 C69.30039047 348.81623705 71.71990988 351.65366118 74.1484375 354.5 C79.24846294 360.59125296 83.73962886 367.02243634 88.1484375 373.625 C94.82876484 366.94467266 93.1742785 347.27706305 93.3359375 338.0625 C93.16823405 324.21934249 91.47616008 310.97039177 88.2734375 297.5 C88.02899902 296.46963623 87.78456055 295.43927246 87.53271484 294.37768555 C84.15892807 280.86171261 79.25202311 269.16716825 67.421875 260.9375 C54.47004699 253.46015599 42.88961273 252.47064364 28.5859375 255.6875 Z " fill="#000000" transform="translate(296.8515625,-0.625)"/>
<path d="M0 0 C6.13162161 5.15613635 9.59512663 10.54639294 10.3125 18.4375 C10 22 10 22 8.5 24.9375 C5.45515241 27.44949926 3.75474008 27.68644075 -0.1015625 27.4140625 C-3.15988046 26.74702196 -4.27966196 25.58050705 -6 23 C-6.71927295 20.68234271 -7.3909893 18.34904126 -8 16 C-9.82471891 13.78103864 -9.82471891 13.78103864 -12.4375 13.625 C-15.07542295 13.75713889 -15.07542295 13.75713889 -16.6875 15.625 C-18.11932859 18.04003375 -18.11932859 18.04003375 -19 21.0625 C-20.51336898 25.50802139 -20.51336898 25.50802139 -23 27 C-26.0940232 27.39289183 -28.04461765 27.62437655 -31 27 C-34.18897147 24.36909854 -34.89768317 22.77468456 -35.4375 18.6875 C-34.57517949 11.41936997 -32.39644225 6.47841553 -26.94921875 1.4765625 C-18.99399505 -4.54963902 -8.65477281 -4.74494123 0 0 Z " fill="#000000" transform="translate(333,144)"/>
<path d="M0 0 C5.30119105 4.0157319 8.56008922 8.48183247 10 15 C10.49124067 19.14045705 10.3967171 21.22309567 8.5 24.9375 C5.45515241 27.44949926 3.75474008 27.68644075 -0.1015625 27.4140625 C-3.15988046 26.74702196 -4.27966196 25.58050705 -6 23 C-6.71927295 20.68234271 -7.3909893 18.34904126 -8 16 C-9.82203581 13.77033253 -9.82203581 13.77033253 -12.4375 13.6875 C-14.96582165 13.81099153 -14.96582165 13.81099153 -16.6875 15.0625 C-18.23310235 17.12725096 -18.23310235 17.12725096 -19 20.5 C-20.44318182 25.55113636 -20.44318182 25.55113636 -23 27 C-26.0940232 27.39289183 -28.04461765 27.62437655 -31 27 C-34.18897147 24.36909854 -34.89768317 22.77468456 -35.4375 18.6875 C-34.59019175 11.54590192 -32.62782156 6.71166456 -27 2 C-18.80674101 -4.01953722 -9.0733116 -5.21114841 0 0 Z " fill="#000000" transform="translate(204,144)"/>
<path d="M0 0 C2.75 2 2.75 2 5 4 C8.20936686 5.60468343 11.51819961 5.48719222 15 5 C18.25688994 3.21791439 18.25688994 3.21791439 21 1 C23.71728419 -0.78321775 24.74837541 -1.01027039 28.0625 -0.875 C31 0 31 0 32.875 1.625 C34.46764451 4.98724952 34.45186895 7.3204957 34 11 C30.77595226 16.88739153 24.18251742 19.93916086 18 22 C7.56223171 22.81838543 -0.22772002 21.94990177 -8.5 15.375 C-11.57161486 12.45696588 -11.93735148 11.84575504 -12.25 7.625 C-11.99015512 3.85724926 -11.67186361 2.5729057 -9 0 C-5.39965901 -1.20011366 -3.65462165 -0.95020163 0 0 Z " fill="#000000" transform="translate(245,173)"/>
</svg>
