<?xml version="1.0" encoding="UTF-8"?>
<svg version="1.1" xmlns="http://www.w3.org/2000/svg" width="512" height="512">
<path d="M0 0 C3.32958122 1.55813631 3.32958122 1.55813631 7 1.1875 C8.03125 0.6925 9.0625 0.1975 10.125 -0.3125 C11.99446353 -1.01491539 13.87006614 -1.70110837 15.75 -2.375 C16.67039063 -2.71660156 17.59078125 -3.05820312 18.5390625 -3.41015625 C33.15738219 -8.51111071 51.51926273 -6.35219897 65.2734375 0.18359375 C68.79451296 2.03654816 72.12852004 3.88662537 75.234375 6.3828125 C77.17227905 8.00678018 77.17227905 8.00678018 80.25 7.5 C82.28523237 7.07325773 84.31981921 6.64153913 86.34375 6.1640625 C102.27042462 2.59607371 118.7019523 5.00670036 133.125 12.6875 C142.2538887 18.50097893 152.48516313 26.1057062 156.125 36.6875 C157.08986328 36.72617188 157.08986328 36.72617188 158.07421875 36.765625 C177.48950357 37.98427341 192.18996713 46.66123724 205.00390625 60.75390625 C212.46673555 70.08731418 218.18697409 82.31071114 218.125 94.375 C218.39833051 97.58663346 218.88085031 98.46602135 221.3125 100.671875 C223.23613466 102.0077324 225.17874499 103.31656286 227.13671875 104.6015625 C239.17431808 113.00427889 246.26245983 126.97108558 249.68408203 140.97583008 C250.16678628 143.94448795 250.10793385 146.58047272 249.94140625 149.58203125 C249.90208984 150.70287109 249.86277344 151.82371094 249.82226562 152.97851562 C249.7328234 155.31567993 249.61586538 157.65196208 249.47070312 159.98632812 C249.22371711 166.4144242 249.22371711 166.4144242 251.80737305 172.11206055 C253.83060866 174.09791968 255.93477183 175.89019068 258.125 177.6875 C268.8393515 191.37914844 273.6261169 208.4688062 272.125 225.6875 C271.35228356 229.91736348 270.25752985 234.05350724 269.09765625 238.19140625 C268.77667969 239.34511719 268.45570313 240.49882812 268.125 241.6875 C267.75568359 242.97333984 267.75568359 242.97333984 267.37890625 244.28515625 C267.04219055 247.47100479 267.87560946 249.57704926 269 252.5625 C274.36477889 267.7873725 273.24847012 284.22235485 266.45996094 298.85986328 C258.17539458 315.69407048 245.97311399 327.19727673 228.125 333.6875 C219.99614279 336.09875652 207.16979687 339.70989844 199.125 335.6875 C199.2075 336.863125 199.29 338.03875 199.375 339.25 C199.30904661 353.23211815 193.36709986 366.37001319 183.9375 376.5 C171.61180526 388.01232402 155.85638641 393.15971118 139.125 392.6875 C132.76405064 392.26689039 126.4446901 391.51062433 120.125 390.6875 C120.269375 391.79222656 120.41375 392.89695312 120.5625 394.03515625 C122.14496065 406.99243432 122.28326567 419.63058239 122.125 432.6875 C114.865 432.6875 107.605 432.6875 100.125 432.6875 C100.01542969 430.95628906 99.90585937 429.22507812 99.79296875 427.44140625 C98.73856869 411.44627065 97.21744684 395.58003211 95.125 379.6875 C94.35244873 379.38730957 93.57989746 379.08711914 92.78393555 378.77783203 C68.60013919 368.86094336 47.79489977 344.38222971 36.125 321.6875 C33.2644109 323.04687085 31.26572301 324.33270469 29.125 326.6875 C30.71989221 332.57410215 33.70473261 337.43803746 36.8125 342.625 C37.38266846 343.5843042 37.95283691 344.5436084 38.5402832 345.53198242 C42.79881593 352.63261157 47.25940296 359.58547993 51.8125 366.5 C78.78386002 407.4740684 78.78386002 407.4740684 80.125 432.6875 C72.535 432.6875 64.945 432.6875 57.125 432.6875 C56.939375 431.0375 56.75375 429.3875 56.5625 427.6875 C53.04968833 407.13995778 38.88708204 389.32366015 27.70239258 372.32861328 C21.01833611 362.11159232 14.52706667 351.65074049 9.125 340.6875 C4.05856341 341.59323168 -0.72848624 343.17882026 -5.62109375 344.75 C-26.74246616 350.83538941 -50.17115342 347.14374161 -69.1875 336.81640625 C-89.17882637 325.49175088 -103.00298319 308.50615337 -109.875 286.6875 C-110.26211846 284.36248498 -110.61175567 282.02977624 -110.875 279.6875 C-111.53274414 279.89898682 -112.19048828 280.11047363 -112.86816406 280.32836914 C-119.90093544 282.43832441 -126.29943741 283.20042942 -133.625 283.125 C-134.67413574 283.11670166 -135.72327148 283.10840332 -136.80419922 283.09985352 C-154.40074993 282.71932167 -170.68355225 276.48775929 -183.875 264.6875 C-184.61105469 264.04425781 -185.34710938 263.40101563 -186.10546875 262.73828125 C-196.51993925 253.04081388 -203.04013272 241.28664781 -206.875 227.6875 C-207.06771484 227.04063232 -207.26042969 226.39376465 -207.45898438 225.72729492 C-208.95550839 220.08897358 -208.89496125 214.91190575 -208.64379883 209.1081543 C-208.11593894 196.32211512 -209.4301608 188.26279877 -215.94775391 177.42431641 C-222.14856224 165.80963751 -221.01606363 149.68546601 -218.03515625 137.33203125 C-214.95705453 127.66243897 -210.86426773 119.27244513 -203.4375 112.25 C-198.49213241 107.22947485 -198.069054 103.0217577 -198.05932617 96.31030273 C-197.9965201 80.1045411 -190.12745859 66.59765063 -179.2578125 54.97265625 C-171.70228936 47.7267857 -162.29374338 42.02652679 -152.125 39.4375 C-146.5289989 37.70657523 -144.71164198 33.49850927 -141.875 28.6875 C-132.58140465 15.49391375 -116.9611265 8.19594135 -101.5625 5 C-91.89830411 4.18100035 -83.38884069 4.69826358 -73.96875 7.12890625 C-69.96043751 7.85262934 -67.37652153 7.6308018 -63.91015625 5.453125 C-62.93369141 4.70289063 -62.93369141 4.70289063 -61.9375 3.9375 C-44.76218385 -8.02182249 -18.60343872 -9.07109822 0 0 Z M-59.34765625 30.84375 C-66.82974061 39.87583138 -69.04876446 49.02028034 -70.15234375 60.55078125 C-70.9819186 64.15158452 -72.02443491 65.41029335 -74.875 67.6875 C-78.09194364 69.29597182 -81.39637222 69.30059149 -84.875 68.6875 C-87.56605198 66.51175584 -89.33032928 64.77684144 -90.875 61.6875 C-91.49971369 52.47297307 -90.05015749 42.38213187 -86.26953125 33.9140625 C-84.67663299 30.81437122 -84.67663299 30.81437122 -84.875 27.6875 C-99.42248217 26.92296079 -109.47418433 30.03704541 -120.7421875 39.20703125 C-124.58232723 42.71435887 -126.83252349 46.33542315 -129.25 50.9375 C-132.81507248 57.30709617 -132.81507248 57.30709617 -137.125 58.6875 C-138.70432052 59.03935542 -140.2880897 59.3716341 -141.875 59.6875 C-154.98273566 63.7221065 -165.70347769 70.44147961 -172.3125 82.875 C-173.77388322 86.08746795 -174.52217455 89.15924554 -174.875 92.6875 C-173.73546875 92.52894531 -172.5959375 92.37039062 -171.421875 92.20703125 C-166.98373521 91.65666281 -162.5944853 91.43454021 -158.125 91.375 C-157.01318359 91.33149414 -157.01318359 91.33149414 -155.87890625 91.28710938 C-152.39049481 91.2464008 -150.29970466 91.38635806 -147.41796875 93.4296875 C-144.95784931 97.02955847 -144.67551475 100.39089454 -144.875 104.6875 C-146.05736999 107.61230998 -146.91691888 109.06952656 -149.55859375 110.7734375 C-152.62124891 111.98197259 -155.47050958 112.10806473 -158.75 112.375 C-169.83174835 113.6022237 -179.71287793 118.26430881 -187.265625 126.65625 C-189.80830373 129.86545617 -192.01649554 133.03384919 -193.875 136.6875 C-194.35453125 137.61369141 -194.35453125 137.61369141 -194.84375 138.55859375 C-198.68823216 147.68923887 -198.35849662 160.44132929 -195.3125 169.75 C-190.38877988 181.03136575 -181.2696513 189.86874762 -170.01953125 194.69921875 C-165.16670862 196.22439158 -160.30155406 196.70109349 -155.2578125 197.1328125 C-151.69719942 197.71665437 -149.71011304 198.48241208 -146.875 200.6875 C-144.86438864 203.59039451 -144.63144392 205.71593947 -145 209.1875 C-145.06445312 209.9403125 -145.12890625 210.693125 -145.1953125 211.46875 C-146.14652235 214.57384883 -147.23572563 215.78230034 -149.875 217.6875 C-152.63162437 218.12770984 -154.87440064 218.30491271 -157.625 218.25 C-158.36637207 218.24411865 -159.10774414 218.2382373 -159.87158203 218.23217773 C-168.02687915 217.96390003 -175.29204182 215.51488661 -182.875 212.6875 C-183.865 212.3575 -184.855 212.0275 -185.875 211.6875 C-186.37485219 223.99636011 -180.83904031 234.60176387 -172.875 243.6875 C-166.18290272 250.92963268 -159.05637363 255.17907355 -149.875 258.6875 C-149.18921875 258.95433594 -148.5034375 259.22117187 -147.796875 259.49609375 C-137.13747799 262.85612107 -122.85495226 261.67747613 -112.875 256.6875 C-112.31686818 254.80892816 -112.31686818 254.80892816 -112.015625 252.5234375 C-111.87278076 251.65581787 -111.72993652 250.78819824 -111.58276367 249.89428711 C-111.43170166 248.95979736 -111.28063965 248.02530762 -111.125 247.0625 C-108.02376283 229.53924931 -101.2793646 212.01398786 -87.875 199.6875 C-84.11025901 197.28287502 -81.30361553 197.52336654 -77.00390625 198.16796875 C-74.875 198.6875 -74.875 198.6875 -72.3125 200.125 C-69.9002494 204.4250989 -69.58981321 207.91303106 -70.875 212.6875 C-72.73478776 215.54513542 -74.70724312 218.10785293 -76.87963867 220.72387695 C-87.94458043 234.06787225 -91.85173955 250.61334135 -90.875 267.6875 C-88.64888119 287.03247243 -78.68303675 302.1291149 -63.6875 314.0625 C-49.51402471 323.84505715 -32.49370064 326.34226314 -15.66015625 324.296875 C1.75086303 320.57106017 14.5860232 310.40177923 25.82421875 297.046875 C27.34265147 294.78040766 27.34265147 294.78040766 27.0078125 292.25390625 C25.99680668 289.3148318 24.71839485 286.64763819 23.3125 283.875 C18.0370821 272.61230057 13.89943787 259.20628699 16.125 246.6875 C17.9375271 243.99470872 19.20988374 242.14505813 22.125 240.6875 C29.21458838 240.1063862 29.21458838 240.1063862 33.0625 242.5625 C36.45482289 246.05762056 36.41497615 248.78653438 36.9375 253.5625 C38.7756911 268.2469204 44.23967338 282.21432454 56.125 291.6875 C67.88975571 300.33901952 81.29104419 305.51839127 96.125 303.6875 C111.39648139 300.8381041 123.72620705 294.17836543 133.390625 281.78125 C139.78244475 272.21719378 142.73200341 261.91895644 143.625 250.5 C144.17758202 246.28656209 145.10741911 244.61363905 148.125 241.6875 C151.32673254 240.08663373 154.65077059 240.18832911 158.125 240.6875 C160.9350346 242.48113911 162.63440468 243.70630935 164.125 246.6875 C165.86582056 266.37874891 158.67265009 284.08311023 147.125 299.6875 C154.82945236 302.73661189 160.8859107 303.88135956 169.0625 303.4375 C177.36401362 303.06043748 182.207525 305.10636319 189.01171875 309.7421875 C197.47859075 315.03265457 207.45213896 315.38581352 217.01171875 313.52734375 C228.52590433 310.42125855 237.84343328 303.76821726 244.04296875 293.515625 C249.36632352 283.14709552 251.65678182 271.17374594 248.04296875 259.75 C246.57529695 255.96027686 244.9411538 252.31980759 243.125 248.6875 C242.35210715 242.63317271 244.2516388 238.64039564 246.93359375 233.23828125 C250.64755659 225.28674769 250.43870919 214.49567565 248.1484375 206.11328125 C246.02896454 200.93162496 243.48397149 196.16612865 240.125 191.6875 C239.444375 192.368125 238.76375 193.04875 238.0625 193.75 C237.59972656 194.20761719 237.13695312 194.66523438 236.66015625 195.13671875 C235.62604345 196.18135687 234.61306924 197.24729961 233.62109375 198.33203125 C222.61000075 210.08604137 207.04400267 217.48424294 190.98901367 218.01245117 C190.27076416 218.02896729 189.55251465 218.0454834 188.8125 218.0625 C188.11809814 218.08868408 187.42369629 218.11486816 186.70825195 218.1418457 C183.25018093 218.15319191 181.4619337 217.95203922 178.70703125 215.7890625 C176.18282717 212.43592226 175.73479941 209.96508055 175.765625 205.7265625 C176.3682302 202.30743302 178.49286067 200.75560948 181.125 198.6875 C183.89894555 197.30052723 186.54527597 197.23318529 189.625 196.875 C202.30704111 195.08733741 211.68378801 190.31457657 219.9375 180.375 C227.28602694 170.41783125 229.01263708 159.81008636 228.125 147.6875 C225.84159826 136.29800219 219.65735447 126.38284421 210.125 119.6875 C204.52926977 115.53260698 204.52926977 115.53260698 198.125 113.6875 C196.99393763 109.99764078 196.91563149 106.40357309 196.75 102.5625 C195.98294442 89.4498034 191.7432832 78.32488018 181.96875 69.21484375 C178.86727447 66.64561296 175.70255278 64.53725741 172.125 62.6875 C171.50625 62.36652344 170.8875 62.04554687 170.25 61.71484375 C161.11477757 57.87876402 148.3734519 58.20325692 139.0625 61.25 C127.78113425 66.17372012 118.94375238 75.2928487 114.11328125 86.54296875 C112.58810842 91.39579138 112.11140651 96.26094594 111.6796875 101.3046875 C111.09584563 104.86530058 110.33008792 106.85238696 108.125 109.6875 C105.22210549 111.69811136 103.09656053 111.93105608 99.625 111.5625 C98.8721875 111.49804688 98.119375 111.43359375 97.34375 111.3671875 C94.23034964 110.41343457 93.02763526 109.34184607 91.125 106.6875 C90.71606149 103.87604772 90.55385643 101.55131681 90.625 98.75 C90.64203979 97.61872681 90.64203979 97.61872681 90.65942383 96.46459961 C91.24053128 79.45416335 99.68761993 64.68861332 111.6875 53.0625 C117.50630807 47.94518656 124.11258484 44.82995117 131.125 41.6875 C125.35792695 33.94748091 118.36328225 30.29434202 109.125 27.6875 C99.15874723 26.65837607 91.49175268 27.62503786 82.30859375 31.59375 C78.69236549 32.83613517 75.92475215 32.98569696 72.125 32.6875 C69.28646392 31.14995963 66.96312437 29.48002693 64.6171875 27.26171875 C56.28664452 19.47447205 45.68558319 16.42414615 34.44921875 16.51953125 C30.84621015 16.77991675 27.58900275 17.67979011 24.125 18.6875 C25.28530379 21.04851616 26.49387505 23.3692522 27.74609375 25.68359375 C33.74860634 37.0560961 38.38702922 49.57841727 36.125 62.6875 C34.31256655 65.36707306 33.03213204 67.23393398 30.125 68.6875 C23.03541162 69.2686138 23.03541162 69.2686138 19.1875 66.8125 C15.89961447 63.42498157 15.88482104 60.93147867 15.375 56.3125 C13.67820279 44.13548476 9.07182786 33.16426086 -0.75 25.4375 C-19.613248 12.2152614 -43.35648938 13.68616861 -59.34765625 30.84375 Z M122.375 317.9375 C102.58711304 327.11259686 82.80197648 326.28127142 62.125 320.6875 C76.18465247 344.55191012 100.454359 360.93461443 126.7265625 368.4296875 C138.89320554 371.32273291 151.42988934 370.69479911 162.375 364.4375 C170.68218739 358.79330212 174.47468608 351.28875569 176.875 341.6875 C177.5785409 335.16779084 177.5785409 335.16779084 177.125 328.6875 C174.72751194 325.90272541 173.14503858 325.68972889 169.47265625 325.28125 C168.04450801 325.24057966 166.61605265 325.20983351 165.1875 325.1875 C153.5757206 324.72570304 143.9287591 322.60791383 133.68359375 316.89453125 C129.21562361 314.78674076 126.49477932 315.81363861 122.375 317.9375 Z " fill="#000000" transform="translate(229.875,37.3125)"/>
<path d="M0 0 C3.09332201 2.93426822 4.02796348 4.74693873 4.578125 8.96484375 C4.10173998 12.93471889 2.67272074 14.98520911 0.203125 18.08984375 C-3.12601873 20.3092729 -4.9380467 20.50681017 -8.859375 20.96484375 C-23.91521603 23.16813756 -34.6781168 31.00882751 -43.796875 43.08984375 C-59.45328455 65.9807847 -67.61184685 93.44268415 -69.24609375 121.01171875 C-69.31932861 122.22150391 -69.39256348 123.43128906 -69.46801758 124.67773438 C-69.60153795 127.07630391 -69.71289737 129.47623386 -69.79956055 131.87695312 C-70.29068728 141.18194189 -70.29068728 141.18194189 -73.2421875 144.82421875 C-76.76974271 147.95263163 -78.93230497 148.48389344 -83.69140625 148.44921875 C-87.41280953 147.81402561 -89.20000349 145.75005359 -91.796875 143.08984375 C-101.00914444 124.66530487 -88.74367117 86.8302633 -82.71289062 68.39526367 C-76.34144734 49.87238483 -66.68396892 32.02425315 -52.796875 18.08984375 C-52.05050781 17.32027344 -51.30414063 16.55070312 -50.53515625 15.7578125 C-39.85951723 5.39979579 -14.57346094 -9.95310391 0 0 Z " fill="#000000" transform="translate(401.796875,150.91015625)"/>
<path d="M0 0 C3.34625024 2.52676039 4.67977847 4.03933542 6 8 C7.32798201 27.58773469 -0.53767591 47.12947592 -13 62 C-25.52255525 76.26113898 -39.77864316 86.2246859 -57 94 C-58.19109375 94.54527344 -59.3821875 95.09054688 -60.609375 95.65234375 C-78.67864606 103.40477118 -98.53283838 106.99270482 -118.125 107.375 C-118.93146973 107.40118408 -119.73793945 107.42736816 -120.56884766 107.4543457 C-124.57732739 107.46576467 -126.51408871 107.3115962 -129.97265625 105.09375 C-132.86812104 102.1034434 -133.83598079 100.2574806 -134.375 96.125 C-133.89861498 92.15512486 -132.46959574 90.10463464 -130 87 C-126.82341048 84.88227365 -125.70239348 84.69755111 -122.01953125 84.47265625 C-121.02840332 84.4046582 -120.03727539 84.33666016 -119.01611328 84.26660156 C-117.9589209 84.19924805 -116.90172852 84.13189453 -115.8125 84.0625 C-88.91414199 82.04222849 -63.32562009 75.16537617 -42 58 C-41.29617187 57.45988281 -40.59234375 56.91976562 -39.8671875 56.36328125 C-25.99038022 45.1257883 -18.97732477 29.87419909 -17.11181641 12.48413086 C-16.52690828 7.54036312 -15.69339685 4.62971759 -12 1 C-8.28289437 -0.85855282 -4.04722719 -0.57908439 0 0 Z " fill="#000000" transform="translate(208,96)"/>
<path d="M0 0 C5.5 3 5.5 3 7 6 C8.26093033 21.97867456 4.39518255 35.12239674 -6.1015625 47.47265625 C-16.51201188 58.49007529 -28.72340669 63.70121092 -43.625 65 C-50.4152316 65.59457278 -56.13077908 66.26956297 -62 70 C-62.6909375 70.38671875 -63.381875 70.7734375 -64.09375 71.171875 C-70.48254535 75.22446907 -73.46584727 81.00573848 -76 88 C-76.64698155 91.11453907 -77.10271534 94.201498 -77.5078125 97.35546875 C-78.20564911 101.10495596 -79.52333564 103.13635683 -82 106 C-85.71453232 107.85726616 -89.95579425 107.58501089 -94 107 C-96.82424288 104.80977082 -98.41508603 103.16982793 -100 100 C-101.15493886 86.16294403 -97.19860949 73.45814161 -88.99609375 62.265625 C-77.30727098 48.46486824 -63.36567962 44.02318597 -46 42 C-35.56589505 40.48333333 -27.76834913 37.37001953 -21 29 C-17.04422142 23.40522282 -16.43323491 17.68368784 -15.55859375 11.00390625 C-14.81607 7.01089393 -13.68289842 5.00809823 -11 2 C-7.29825261 -0.4678316 -4.29506525 -0.68072732 0 0 Z " fill="#000000" transform="translate(281,181)"/>
</svg>
