<?xml version="1.0" encoding="UTF-8"?>
<svg version="1.1" xmlns="http://www.w3.org/2000/svg" width="512" height="512">
<path d="M0 0 C1.25515915 -0.00018127 1.25515915 -0.00018127 2.53567505 -0.00036621 C15.92300041 0.02712218 28.54597028 1.07446283 41.5625 4.375 C42.93709398 4.69187069 44.31207886 5.00705169 45.6875 5.3203125 C76.24287106 12.77131487 103.00469287 29.89292644 125.5625 51.375 C126.62210937 52.35533203 126.62210937 52.35533203 127.703125 53.35546875 C138.01445171 63.18476189 146.34074789 75.15233721 153.5625 87.375 C153.93616699 88.00712402 154.30983398 88.63924805 154.69482422 89.29052734 C177.76348149 129.00403241 183.59584016 177.93298131 172.03515625 222.23046875 C167.47283775 238.67517459 160.36007454 253.87194998 149.43505859 267.09472656 C148.21891145 268.57566715 147.02371588 270.0741567 145.85400391 271.59204102 C138.48389234 280.99250423 129.93147999 289.19181681 121.4375 297.5625 C119.14273538 299.82943316 116.84955623 302.09791578 114.55935669 304.36946106 C113.14527718 305.77150279 111.72853717 307.17086871 110.30856323 308.56694031 C80.60954886 337.96806881 64.6438667 371.63437482 62.78646851 413.4894104 C61.40712103 443.25362789 53.49782853 468.44129333 31.3125 489.5625 C9.47032302 508.78117527 -16.16434271 513.93219851 -44.4375 512.375 C-68.22050038 509.78679764 -89.13308607 496.24691498 -104.4375 478.375 C-117.74395706 461.55665786 -125.58287497 439.45194077 -124.7578125 417.9453125 C-124.0014428 411.87590687 -120.98011116 408.26866671 -116.4375 404.375 C-111.88064208 401.64088525 -106.58836269 401.62236253 -101.4375 402.375 C-96.05345934 404.43658138 -93.03226162 407.30252881 -90.26318359 412.41040039 C-88.87106588 415.72275144 -88.6726486 419.00806035 -88.4375 422.5625 C-86.74866851 440.68155824 -79.09650724 454.49809013 -65.125 466.1875 C-52.25127387 475.73026203 -36.95848682 477.69117442 -21.4375 476.375 C-7.24349647 473.76460855 5.66901338 466.20350041 14.56640625 454.80859375 C21.33830958 444.76043482 25.40444335 433.82115898 25.95703125 421.73046875 C29.01439776 361.34375163 49.06606828 318.33009055 91.98046875 275.96484375 C92.61499969 275.33811768 93.24953064 274.7113916 93.90328979 274.06567383 C96.50560317 271.4997808 99.11065402 268.93683229 101.7253418 266.38354492 C126.9680849 241.69820267 140.92099451 214.73919018 141.59375 179.07421875 C141.69856921 140.25835377 127.12794773 104.43879301 99.99560547 76.81201172 C92.51184033 69.3078479 84.42048643 63.13534327 75.5625 57.375 C74.64082031 56.76785156 73.71914063 56.16070312 72.76953125 55.53515625 C43.91105281 37.58510126 5.53009971 31.22532411 -27.6484375 38.40625 C-28.89882812 38.7259375 -30.14921875 39.045625 -31.4375 39.375 C-32.11458008 39.54128906 -32.79166016 39.70757812 -33.48925781 39.87890625 C-69.69762897 48.91844413 -100.84053211 71.98151934 -120.1875 103.875 C-133.11930358 125.79919144 -139.34951675 149.28895019 -140.57885742 174.59765625 C-140.95183585 180.62490253 -141.90339415 184.42725182 -145.4375 189.375 C-150.26101689 193.11568657 -154.08420056 194.74703296 -160.24609375 194.65625 C-165.33403615 194.00325205 -169.23729758 191.57520242 -172.8125 188 C-176.77752265 181.59496341 -176.64713325 175.91038245 -176.25 168.625 C-176.19739014 167.60293457 -176.14478027 166.58086914 -176.09057617 165.52783203 C-173.51038881 121.72274384 -154.67776282 82.70304206 -124.4375 51.375 C-123.79941406 50.67375 -123.16132813 49.9725 -122.50390625 49.25 C-101.01502454 26.27747612 -70.01271065 11.43459474 -39.8125 4.1875 C-38.84679077 3.9551062 -38.84679077 3.9551062 -37.86157227 3.71801758 C-35.72650152 3.23025176 -33.58726525 2.79348704 -31.4375 2.375 C-30.06694458 2.10574707 -30.06694458 2.10574707 -28.66870117 1.83105469 C-19.10730266 0.14857361 -9.67749118 -0.02150527 0 0 Z " fill="#000000" transform="translate(255.4375,-0.37499999999999994)"/>
<path d="M0 0 C19.33818048 18.44439903 30.45354368 44.18241249 31.375 70.8125 C31.24752743 77.848986 29.59453362 82.40546638 24.625 87.375 C19.37759191 90.62339548 15.21549638 91.41202973 9.17578125 90.5390625 C3.64455323 89.16866848 0.15289715 85.55418478 -3 81 C-4.01626327 77.9512102 -4.31067911 75.1330279 -4.59448242 71.94604492 C-6.34397643 52.81915805 -13.29837364 35.64476867 -28.33984375 23.0390625 C-43.49108723 11.79227236 -61.18385453 7.15828443 -79.8125 9.6875 C-97.92347965 13.0688338 -112.52511875 22.7341679 -122.96484375 37.84375 C-129.76362208 48.76779129 -133.15074065 60.52076265 -133.09765625 73.3671875 C-133.09553383 74.38656906 -133.09553383 74.38656906 -133.09336853 75.42654419 C-133.08781518 77.57607612 -133.07527169 79.72550008 -133.0625 81.875 C-133.05747896 83.34114432 -133.05291711 84.80729029 -133.04882812 86.2734375 C-133.03786111 89.84899283 -133.02062919 93.42448586 -133 97 C-132.41847168 97.05260986 -131.83694336 97.10521973 -131.23779297 97.15942383 C-111.83398836 99.08381763 -95.70084727 109.62661024 -83.12890625 124.22265625 C-69.64271825 141.8165639 -64.63579933 163.30263412 -67.26806641 185.23339844 C-69.5529933 198.94295977 -75.99513367 212.44429558 -85 223 C-85.4228125 223.56460938 -85.845625 224.12921875 -86.28125 224.7109375 C-96.70852208 238.10876965 -113.67100279 245.91008786 -130 249 C-130.94875 249.18304688 -131.8975 249.36609375 -132.875 249.5546875 C-150.9828616 252.13505778 -170.03730465 248.43500401 -185.37890625 238.32421875 C-188.82020028 235.5131376 -190.61905651 232.14283048 -192 228 C-192.53831595 221.6478718 -191.64147114 217.29775318 -188 212 C-182.75165719 207.00767391 -178.19690778 206.60690417 -171.19140625 206.640625 C-166.97865928 207.11501022 -164.08447323 208.69079479 -160.4375 210.75390625 C-151.20000189 215.47628108 -140.72631415 214.65643913 -131.02734375 212.0390625 C-119.42392188 208.05646867 -111.71435234 200.45513059 -106.22265625 189.69140625 C-101.83473643 180.03237508 -101.63354081 169.064492 -105 159 C-109.98464162 146.79233052 -117.30082255 139.51201124 -129.30078125 133.9296875 C-135.55564404 131.7042959 -142.00073512 131.56321588 -148.58032227 131.46533203 C-155.02016475 131.29606496 -159.16819366 129.91507026 -163.75 125.125 C-167.86425333 119.41075927 -168.38604849 114.66454477 -168.625 107.8125 C-168.66004639 106.87631836 -168.69509277 105.94013672 -168.73120117 104.97558594 C-168.840567 101.65065304 -168.92307332 98.32584187 -169 95 C-169.01673767 94.34344421 -169.03347534 93.68688843 -169.05072021 93.01043701 C-169.93847407 57.75407471 -169.93847407 57.75407471 -165 43 C-164.78569336 42.3512793 -164.57138672 41.70255859 -164.35058594 41.03417969 C-156.99057172 19.31838809 -142.68607641 1.88600584 -124 -11 C-123.37738281 -11.45246094 -122.75476563 -11.90492187 -122.11328125 -12.37109375 C-111.22945198 -19.83079695 -97.88402727 -23.89476679 -85 -26 C-83.081875 -26.3403125 -83.081875 -26.3403125 -81.125 -26.6875 C-50.95256028 -29.69195904 -22.6008994 -20.16408893 0 0 Z " fill="#000000" transform="translate(334,106)"/>
</svg>
