<?xml version="1.0" encoding="UTF-8"?>
<svg version="1.1" xmlns="http://www.w3.org/2000/svg" width="512" height="512">
<path d="M0 0 C0.80985352 0.4036377 1.61970703 0.80727539 2.45410156 1.22314453 C25.54063753 12.80665049 47.04767157 27.64022758 67 44 C67.56299805 44.45858398 68.12599609 44.91716797 68.70605469 45.38964844 C76.85155227 52.07680198 84.48958653 59.27429652 91.97875977 66.68222046 C93.39414741 68.08212175 94.81515326 69.47633557 96.23632812 70.87036133 C112.21160914 86.86154822 112.21160914 86.86154822 112.875 96.1875 C112.38829634 102.40294508 110.21860147 105.59226045 106 110 C104.86884766 111.28390625 104.86884766 111.28390625 103.71484375 112.59375 C93.47839193 124.08080905 82.72774453 135.44120037 70.60546875 144.94921875 C67.85076711 147.11746217 65.21592624 149.39674569 62.5625 151.6875 C-0.60367992 204.27171679 -86.51560788 235.29289009 -168.84057617 228.23071289 C-241.260887 221.06880473 -308.38321549 188.29304539 -363 141 C-363.78246094 140.33097656 -364.56492187 139.66195312 -365.37109375 138.97265625 C-398.19193612 110.24730895 -398.19193612 110.24730895 -400.66796875 98.953125 C-401.00139351 93.89513431 -400.54095657 90.0448392 -397.5625 85.875 C-396.40013218 84.56067125 -395.21107287 83.26959109 -394 82 C-393.42765625 81.32582031 -392.8553125 80.65164062 -392.265625 79.95703125 C-381.05288 66.92782156 -368.60725264 54.50384414 -355 44 C-353.99453125 43.154375 -352.9890625 42.30875 -351.953125 41.4375 C-333.69682052 26.12824671 -312.97696125 13.21293439 -292 2 C-291.14728516 1.54077148 -290.29457031 1.08154297 -289.41601562 0.60839844 C-196.33375424 -49.05629807 -93.3472584 -46.80216243 0 0 Z M-219.92578125 27.484375 C-238.5815231 48.22979277 -247.11793644 75.37520222 -246 103 C-243.71694367 131.79912481 -229.27301768 157.00180917 -207.7109375 175.84375 C-186.6359096 192.6065964 -160.2005524 199.83922839 -133.55078125 197.7265625 C-105.14464487 194.29320964 -79.76744345 179.33805391 -62 157 C-45.72181635 133.97973282 -38.7287609 106.58727748 -43.25390625 78.625 C-48.73826274 51.97849308 -63.57938022 27.73278654 -85.9609375 11.90625 C-129.11662091 -15.79863318 -184.40615414 -10.20009301 -219.92578125 27.484375 Z M-331 66 C-332.28003906 67.0209375 -332.28003906 67.0209375 -333.5859375 68.0625 C-343.97323713 76.39615013 -353.71208978 85.45954842 -363 95 C-361.6651174 97.96178339 -360.19867264 100.05753044 -357.91015625 102.35546875 C-357.29664307 102.97309082 -356.68312988 103.59071289 -356.05102539 104.22705078 C-355.39481201 104.87399902 -354.73859863 105.52094727 -354.0625 106.1875 C-353.38372803 106.86022949 -352.70495605 107.53295898 -352.00561523 108.22607422 C-347.49213407 112.65164081 -342.86589711 116.81663122 -337.890625 120.72265625 C-335.75557681 122.404728 -333.67673216 124.10969162 -331.609375 125.87109375 C-310.74084545 143.51363686 -287.10519162 157.44714327 -262.8125 169.8125 C-261.95624023 170.25190918 -261.09998047 170.69131836 -260.21777344 171.14404297 C-259.03683105 171.73209717 -259.03683105 171.73209717 -257.83203125 172.33203125 C-257.13827393 172.67983643 -256.4445166 173.0276416 -255.72973633 173.38598633 C-255.15892334 173.58861084 -254.58811035 173.79123535 -254 174 C-253.34 173.67 -252.68 173.34 -252 173 C-252.4846875 172.25878906 -252.969375 171.51757812 -253.46875 170.75390625 C-274.23268388 138.13057168 -280.90690283 101.76113713 -272.52832031 63.86669922 C-268.73351171 47.66112434 -261.18297082 31.84911453 -252 18 C-276.38709628 18 -313.16554826 51.29117383 -331 66 Z M-36 18 C-35.360625 19.134375 -34.72125 20.26875 -34.0625 21.4375 C-33.60875 22.2625 -33.155 23.0875 -32.6875 23.9375 C-31.79126464 25.56400122 -30.89265529 27.18928723 -29.9765625 28.8046875 C-11.52192163 61.39479797 -7.08601619 98.19958753 -17.0625 134.375 C-21.14704011 148.12029438 -27.78359415 161.28804125 -36 173 C-35.34 173.33 -34.68 173.66 -34 174 C-31.62005386 173.13286406 -31.62005386 173.13286406 -28.92578125 171.74609375 C-27.87712891 171.22853516 -26.82847656 170.71097656 -25.74804688 170.17773438 C-24.04745117 169.31631836 -24.04745117 169.31631836 -22.3125 168.4375 C-21.14654297 167.84904297 -19.98058594 167.26058594 -18.77929688 166.65429688 C5.75029144 154.14987531 27.92260849 138.63707347 49 121 C49.61359375 120.49082031 50.2271875 119.98164063 50.859375 119.45703125 C59.36085373 112.3906312 67.31128411 104.94219004 75 97 C73.6651174 94.03821661 72.19867264 91.94246956 69.91015625 89.64453125 C69.29664307 89.02690918 68.68312988 88.40928711 68.05102539 87.77294922 C67.39481201 87.12600098 66.73859863 86.47905273 66.0625 85.8125 C65.38372803 85.13977051 64.70495605 84.46704102 64.00561523 83.77392578 C59.49213407 79.34835919 54.86589711 75.18336878 49.890625 71.27734375 C47.75557681 69.595272 45.67673216 67.89030838 43.609375 66.12890625 C7.09495875 34.80800429 7.09495875 34.80800429 -36 18 Z " fill="#000000" transform="translate(400,160)"/>
<path d="M0 0 C11.40413486 9.4744718 17.95365786 22.39091115 19.3125 37.06640625 C20.31954676 51.41682253 15.38246694 65.32393228 6.25 76.31640625 C-4.34715743 87.39525266 -17.25508753 92.26413169 -32.25 93.31640625 C-46.66739394 93.03753983 -59.97902713 87.61635856 -70.36328125 77.68359375 C-79.90545104 66.93862945 -85.17761454 53.91782786 -84.8984375 39.484375 C-83.58498991 24.42837396 -78.08906926 11.19168045 -66.6875 1.06640625 C-46.25004761 -13.96715835 -20.95783777 -15.07867689 0 0 Z M-47.5625 26.12890625 C-51.88237866 30.92205832 -53.72834925 36.20906958 -53.66015625 42.6484375 C-52.74433566 49.34730498 -49.71780964 53.66091402 -44.6875 58.06640625 C-39.83125141 61.26946383 -34.41580715 62.80066177 -28.64453125 61.6640625 C-22.26250082 59.57786687 -17.41447015 55.77199282 -13.8125 50.12890625 C-11.56134511 44.00076239 -11.24752436 39.42343664 -13.5546875 33.34375 C-16.45658962 27.50992609 -20.1511683 23.26064016 -26.375 21.06640625 C-34.13256272 18.86177031 -41.59744407 20.75908944 -47.5625 26.12890625 Z " fill="#000000" transform="translate(288.6875,214.93359375)"/>
<path d="M0 0 C3.73540812 2.73065626 5.34878437 5.90097767 6.19335938 10.41430664 C6.69339967 18.7521264 2.93965531 24.65595239 -1.19921875 31.62890625 C-1.84761719 32.76263672 -2.49601562 33.89636719 -3.1640625 35.06445312 C-5.14263036 38.50245965 -7.16532049 41.91088815 -9.19921875 45.31640625 C-9.90259634 46.51987194 -10.60572026 47.72348592 -11.30859375 48.92724609 C-12.00053641 50.09257737 -12.69321953 51.25746937 -13.38671875 52.421875 C-13.99902344 53.45852295 -14.61132812 54.4951709 -15.2421875 55.56323242 C-17.7009275 59.02221582 -20.40009413 61.41684394 -24.19921875 63.31640625 C-29.51057827 63.84580646 -33.87194616 63.98004254 -38.69921875 61.56640625 C-43.44818032 57.29234083 -45.02658605 54.3870644 -45.3828125 48.05078125 C-45.18513282 44.02989237 -44.42565187 41.92216619 -42.57421875 38.37890625 C-42.27717041 37.80970459 -41.98012207 37.24050293 -41.67407227 36.65405273 C-38.30606994 30.31777956 -34.71442014 24.09823325 -31.13671875 17.87890625 C-30.25282471 16.3331189 -30.25282471 16.3331189 -29.35107422 14.75610352 C-21.46618355 1.2430778 -21.46618355 1.2430778 -15.76171875 -2.12109375 C-9.81087339 -3.42737688 -5.28608243 -2.94583623 0 0 Z " fill="#000000" transform="translate(168.19921875,426.68359375)"/>
<path d="M0 0 C9.51676264 4.12991586 14.36925167 17.01351593 19.125 25.625 C20.33571924 27.80480874 21.54665097 29.98449948 22.7578125 32.1640625 C23.31823242 33.18016602 23.87865234 34.19626953 24.45605469 35.24316406 C25.72753088 37.51348492 27.04804812 39.73754483 28.3984375 41.9609375 C31.0174949 46.93075862 31.00285225 51.70312322 29.375 57.0546875 C27.30512297 61.36077097 24.42331889 63.47514382 20.08203125 65.34375 C15.61649206 66.75127455 12.22896189 66.44242628 7.875 64.875 C2.46076324 61.34397603 -0.66773649 56.17706391 -3.8125 50.640625 C-4.14870361 50.05134216 -4.48490723 49.46205933 -4.83129883 48.85491943 C-5.53650589 47.61614063 -6.2388687 46.37573864 -6.93847656 45.13378906 C-7.99150179 43.265081 -9.05351188 41.4017248 -10.1171875 39.5390625 C-22.00345557 18.64789316 -22.00345557 18.64789316 -21 12 C-19.32880836 6.81051018 -17.54193631 4.02795754 -13 1 C-9.04173975 -0.97913012 -4.31434073 -0.41613499 0 0 Z " fill="#000000" transform="translate(144,22)"/>
<path d="M0 0 C5.41423676 3.53102397 8.54273649 8.69793609 11.6875 14.234375 C12.19180542 15.11829926 12.19180542 15.11829926 12.70629883 16.02008057 C13.41150589 17.25885937 14.1138687 18.49926136 14.81347656 19.74121094 C15.86650179 21.609919 16.92851188 23.4732752 17.9921875 25.3359375 C29.95923805 46.36957172 29.95923805 46.36957172 28.875 52.875 C27.41787248 57.18125954 25.57370948 60.19333221 22.3125 63.375 C17.41853238 65.51054951 13.13305043 65.62165888 7.875 64.875 C-1.64176264 60.74508414 -6.49425167 47.86148407 -11.25 39.25 C-12.46071924 37.07019126 -13.67165097 34.89050052 -14.8828125 32.7109375 C-15.44323242 31.69483398 -16.00365234 30.67873047 -16.58105469 29.63183594 C-17.85253088 27.36151508 -19.17304812 25.13745517 -20.5234375 22.9140625 C-23.1424949 17.94424138 -23.12785225 13.17187678 -21.5 7.8203125 C-19.43012297 3.51422903 -16.54831889 1.39985618 -12.20703125 -0.46875 C-7.74149206 -1.87627455 -4.35396189 -1.56742628 0 0 Z " fill="#000000" transform="translate(360.125,425.125)"/>
<path d="M0 0 C4.94319016 2.15702843 6.98050797 5.06319662 9.3359375 9.70703125 C10.98603104 15.40470717 10.06372853 19.79182988 7.375 24.9375 C7.07795166 25.50670166 6.78090332 26.07590332 6.47485352 26.66235352 C3.10685119 32.99862669 -0.48479861 39.218173 -4.0625 45.4375 C-4.6517627 46.4680249 -5.24102539 47.4985498 -5.84814453 48.56030273 C-13.7330352 62.07332845 -13.7330352 62.07332845 -19.4375 65.4375 C-25.38834536 66.74378313 -29.91313632 66.26224248 -35.19921875 63.31640625 C-38.93462687 60.58574999 -40.54800312 57.41542858 -41.39257812 52.90209961 C-41.89261842 44.56427985 -38.13887406 38.66045386 -34 31.6875 C-33.35160156 30.55376953 -32.70320313 29.42003906 -32.03515625 28.25195312 C-30.05658839 24.8139466 -28.03389826 21.4055181 -26 18 C-25.29662241 16.79653431 -24.59349849 15.59292033 -23.890625 14.38916016 C-23.19868234 13.22382888 -22.50599922 12.05893688 -21.8125 10.89453125 C-21.20019531 9.8578833 -20.58789062 8.82123535 -19.95703125 7.75317383 C-14.53658851 0.12763331 -8.86751377 -0.86542921 0 0 Z " fill="#000000" transform="translate(379,22)"/>
<path d="M0 0 C3.80708749 3.26321785 5.61141867 6.3944194 6.625 11.25 C6.73220192 14.07742818 6.78897864 16.87945079 6.79296875 19.70703125 C6.79796135 20.93881355 6.79796135 20.93881355 6.80305481 22.19548035 C6.80811059 23.93117718 6.81046355 25.6668837 6.81030273 27.40258789 C6.8124836 30.04264582 6.83063796 32.68228187 6.84960938 35.32226562 C6.8525448 37.01301941 6.8545286 38.70377517 6.85546875 40.39453125 C6.86265427 41.17705765 6.86983978 41.95958405 6.87724304 42.76582336 C6.85191174 48.91909015 6.36129275 54.24658529 2.1875 59.0625 C-2.884547 63.39229622 -5.91798274 63.68423039 -12.421875 63.56640625 C-16.3800156 63.14231976 -18.49811819 61.97934941 -21.375 59.25 C-25.62110956 53.53971473 -25.54057465 47.62491757 -25.578125 40.73046875 C-25.58382507 39.91306717 -25.58952515 39.09566559 -25.59539795 38.25349426 C-25.60481841 36.52797732 -25.61137015 34.80244263 -25.61523438 33.0769043 C-25.62492954 30.45654429 -25.65597612 27.83697278 -25.6875 25.21679688 C-25.69403222 23.53385878 -25.69928183 21.85091513 -25.703125 20.16796875 C-25.7154718 19.39374069 -25.7278186 18.61951263 -25.74053955 17.82182312 C-25.71470249 11.41618202 -24.69987944 5.57487944 -20 0.875 C-13.0980418 -3.39764079 -7.30931856 -3.79001703 0 0 Z " fill="#000000" transform="translate(265.375,448.75)"/>
<path d="M0 0 C4.52488127 2.14336481 6.89879323 4.46581697 9 9 C10.17925436 13.46834857 10.17812208 17.92885809 10.203125 22.51953125 C10.20882507 23.33693283 10.21452515 24.15433441 10.22039795 24.99650574 C10.22981841 26.72202268 10.23637015 28.44755737 10.24023438 30.1730957 C10.24992954 32.79345571 10.28097612 35.41302722 10.3125 38.03320312 C10.31903222 39.71614122 10.32428183 41.39908487 10.328125 43.08203125 C10.3404718 43.85625931 10.3528186 44.63048737 10.36553955 45.42817688 C10.33970249 51.83381798 9.32487944 57.67512056 4.625 62.375 C-0.48754035 65.53990593 -3.83288827 66.39080135 -9.78515625 65.5390625 C-14.29641334 64.44108458 -17.1274123 62.20356924 -19.8125 58.5 C-22.1517983 53.57516148 -22.16037209 48.92631877 -22.16796875 43.54296875 C-22.17129715 42.72178055 -22.17462555 41.90059235 -22.17805481 41.05451965 C-22.18311059 39.31882282 -22.18546355 37.5831163 -22.18530273 35.84741211 C-22.1874836 33.20735418 -22.20563796 30.56771813 -22.22460938 27.92773438 C-22.2275448 26.23698059 -22.2295286 24.54622483 -22.23046875 22.85546875 C-22.23765427 22.07294235 -22.24483978 21.29041595 -22.25224304 20.48417664 C-22.22691174 14.33090985 -21.73629275 9.00341471 -17.5625 4.1875 C-11.82360961 -0.71155278 -7.34932676 -0.78742787 0 0 Z " fill="#000000" transform="translate(262,0)"/>
</svg>
