<?xml version="1.0" encoding="UTF-8"?>
<svg version="1.1" xmlns="http://www.w3.org/2000/svg" width="512" height="512">
<path d="M0 0 C3.86044121 1.12303744 4.54559296 1.5769204 6.4375 5 C6.77807617 8.11621094 6.77807617 8.11621094 6.73046875 11.734375 C6.72080078 13.02988281 6.71113281 14.32539062 6.70117188 15.66015625 C6.67610783 17.02344354 6.65071302 18.38672479 6.625 19.75 C6.60994518 21.12889184 6.59625817 22.50779935 6.58398438 23.88671875 C6.54861909 27.25820915 6.49925904 30.62890654 6.4375 34 C7.68144531 33.95359375 8.92539063 33.9071875 10.20703125 33.859375 C22.61860743 33.52864924 31.95896614 33.89685783 41.8125 42.25 C51.37514539 51.50955045 54.69111576 61.44275614 55.625 74.5 C55.7477832 76.01980469 55.7477832 76.01980469 55.87304688 77.5703125 C56.07158947 80.04625549 56.2594864 82.52251095 56.4375 85 C57.12714844 85.23847656 57.81679688 85.47695312 58.52734375 85.72265625 C61.98927402 87.24218806 64.94893619 89.23652394 68 91.4375 C68.61206299 91.87852051 69.22412598 92.31954102 69.85473633 92.77392578 C102.70799526 116.90286178 123.39454039 153.55406349 130.75 193.375 C133.87278939 217.18626911 128.93011405 238.27434463 119.4375 260 C120.04078125 260.35191406 120.6440625 260.70382812 121.265625 261.06640625 C127.88576953 265.15594714 130.94742063 268.52976189 133.4375 276 C134.61155849 288.47196558 130.78005101 298.97883596 123.4375 309 C115.71475697 318.13902462 108.33821846 323.40668929 96.4375 325 C96.03809204 326.20160767 96.03809204 326.20160767 95.63061523 327.42749023 C94.61770581 330.4461652 93.58887098 333.45882823 92.54956055 336.46850586 C92.10610515 337.76292055 91.66874048 339.05944083 91.23803711 340.3581543 C83.08359848 364.89723734 62.76800071 373.93073569 41.4375 386 C40.67663086 386.43683105 39.91576172 386.87366211 39.13183594 387.32373047 C28.99314505 393.13351491 18.79164574 397.21026472 7.4375 400 C7.43339111 400.85231201 7.42928223 401.70462402 7.42504883 402.58276367 C7.3979958 405.76095348 7.3488357 408.93783292 7.28491211 412.11547852 C7.26179022 413.48775431 7.24734997 414.86020609 7.24194336 416.23266602 C7.23261335 418.21134471 7.18892981 420.18976624 7.14453125 422.16796875 C7.1288208 423.35672607 7.11311035 424.5454834 7.09692383 425.77026367 C6.25125261 429.91220535 4.74946783 431.44415897 1.4375 434 C-2.25 434 -2.25 434 -5.5625 433 C-8.01536296 429.32070555 -7.79478878 427.52622093 -7.7578125 423.14453125 C-7.7549826 422.48289474 -7.75215271 421.82125824 -7.74923706 421.13957214 C-7.73805918 419.03036263 -7.71295981 416.92158075 -7.6875 414.8125 C-7.67746707 413.38086552 -7.66834176 411.94922436 -7.66015625 410.51757812 C-7.63812795 407.01158023 -7.60361485 403.50583187 -7.5625 400 C-8.62198853 399.83455688 -8.62198853 399.83455688 -9.70288086 399.66577148 C-24.8466964 397.13646614 -37.27005107 389.75524459 -50.05566406 381.59033203 C-52.77014128 379.86827276 -55.50460142 378.18115221 -58.2421875 376.49609375 C-76.69802868 365.06840008 -86.17711326 356.59586396 -93.875 336 C-94.23400391 335.06027344 -94.59300781 334.12054688 -94.96289062 333.15234375 C-97.5625 326.26956845 -97.5625 326.26956845 -97.5625 324 C-98.47 324.12375 -99.3775 324.2475 -100.3125 324.375 C-108.28032394 324.32661241 -115.76698704 319.13790447 -121.375 313.875 C-129.57486932 305.00544988 -135.3339644 294.09056045 -135.9375 281.875 C-135.35589597 275.86509168 -134.11509443 270.99619284 -130.375 266.1875 C-126.98362542 263.54976421 -123.47629688 261.73838621 -119.5625 260 C-119.96082031 259.1028125 -120.35914062 258.205625 -120.76953125 257.28125 C-134.48829979 225.46529057 -130.70617606 186.90266808 -118.5625 155 C-113.66391983 142.96714415 -108.0950415 131.87186459 -99.5625 122 C-98.82128906 121.13375 -98.08007812 120.2675 -97.31640625 119.375 C-95.11177865 116.86852564 -92.85344329 114.42759605 -90.5625 112 C-89.88960937 111.26265625 -89.21671875 110.5253125 -88.5234375 109.765625 C-81.11158114 101.93737222 -72.17623826 94.97831916 -62.6640625 89.86328125 C-59.30140911 88.30067656 -59.30140911 88.30067656 -58.5625 85 C-58.39642477 83.58827378 -58.26890623 82.17177914 -58.16796875 80.75390625 C-56.95268766 65.43602256 -55.1117681 52.95571213 -43.42578125 41.99609375 C-35.2602576 35.170115 -27.4792646 33.5126531 -17 33.8125 C-16.08669922 33.82603516 -15.17339844 33.83957031 -14.23242188 33.85351562 C-12.00846741 33.88844685 -9.78582048 33.93748414 -7.5625 34 C-7.5939209 32.6682373 -7.5939209 32.6682373 -7.62597656 31.30957031 C-7.69425677 28.00705545 -7.7443487 24.7052933 -7.78222656 21.40234375 C-7.80230982 19.97448879 -7.82958252 18.54671575 -7.86425781 17.11914062 C-7.91292669 15.06359632 -7.93549967 13.00914145 -7.953125 10.953125 C-7.9845459 9.09929199 -7.9845459 9.09929199 -8.01660156 7.20800781 C-7.5625 4 -7.5625 4 -5.76074219 1.56542969 C-3.5625 0 -3.5625 0 0 0 Z M-36.42578125 54.90234375 C-41.26032965 60.91379893 -42.75323408 66.70296868 -43.1875 74.375 C-43.26226562 75.62023437 -43.33703125 76.86546875 -43.4140625 78.1484375 C-43.46304688 79.08945313 -43.51203125 80.03046875 -43.5625 81 C-42.304375 80.60167969 -41.04625 80.20335937 -39.75 79.79296875 C-29.06200503 76.46581143 -18.60640931 73.84065155 -7.5625 72 C-7.5625 64.08 -7.5625 56.16 -7.5625 48 C-23.3554917 47.01717379 -23.3554917 47.01717379 -36.42578125 54.90234375 Z M6.4375 48 C6.4375 55.92 6.4375 63.84 6.4375 72 C10.7378125 72.4021875 10.7378125 72.4021875 15.125 72.8125 C22.25125764 73.51991965 29.03173577 74.60829333 35.96875 76.4140625 C38.50109705 77.11546335 38.50109705 77.11546335 41.4375 77 C41.25491354 68.26904764 39.74828368 60.75367242 33.7265625 54.11328125 C27.70559832 48.68389652 22.52823353 47.70409475 14.625 47.875 C11.923125 47.91625 9.22125 47.9575 6.4375 48 Z M6.4375 86 C6.4375 107.45 6.4375 128.9 6.4375 151 C23.19943676 137.03171936 31.16237925 115.7560009 33.1875 94.4375 C33.28415329 92.95914395 33.37356341 91.48013195 33.4375 90 C29.88944613 88.46186371 26.56144283 87.5161773 22.75 86.875 C21.79738281 86.70742187 20.84476563 86.53984375 19.86328125 86.3671875 C15.41184416 85.89006654 10.91443383 86 6.4375 86 Z M-70.5625 113 C-71.3565625 113.66257812 -72.150625 114.32515625 -72.96875 115.0078125 C-84.56986372 124.95686889 -93.73326284 136.35690685 -100.5625 150 C-101.09359375 151.05058594 -101.6246875 152.10117188 -102.171875 153.18359375 C-114.41826781 179.47546284 -119.57896779 213.79390963 -111.5625 242 C-110.63484979 244.37494821 -109.618782 246.6773631 -108.5625 249 C-105.78582826 247.61166413 -105.29507176 245.87176894 -103.875 243.125 C-97.40186879 231.07692325 -89.74000982 221.07649413 -80.5625 211 C-79.86125 210.22527344 -79.16 209.45054687 -78.4375 208.65234375 C-65.81164316 195.40063625 -50.00741584 185.09749332 -33.26391602 177.95727539 C-26.03171805 174.85288487 -19.20498526 171.23269476 -12.5625 167 C-11.6890242 166.45680115 -10.8155484 165.91360229 -9.91560364 165.35394287 C-7.27110301 162.70849908 -6.97912038 161.29669677 -6.94039917 157.61579895 C-6.95837555 156.91017319 -6.97635193 156.20454742 -6.99487305 155.47753906 C-6.99414291 154.72593002 -6.99341278 153.97432098 -6.99266052 153.19993591 C-6.99613789 150.72109238 -7.03500246 148.24413928 -7.07421875 145.765625 C-7.08354643 144.04499335 -7.09066276 142.32434841 -7.09565735 140.60369873 C-7.11473088 136.07911392 -7.16383422 131.55533407 -7.21917725 127.03106689 C-7.27036238 122.41274912 -7.29316979 117.79430103 -7.31835938 113.17578125 C-7.37195303 104.11683419 -7.45726979 95.05848408 -7.5625 86 C-29.8018451 86 -54.30452975 98.69075906 -70.5625 113 Z M46.4375 96 C46.19966797 97.68802734 46.19966797 97.68802734 45.95703125 99.41015625 C42.93194095 119.78818328 36.33083345 139.31974263 22.4375 155 C31.83395887 170.52458422 47.09743016 183.68857365 61.48486328 194.52246094 C67.51468188 199.08515938 73.45675304 203.76540588 79.41503906 208.42089844 C80.66270946 209.39505732 81.91176864 210.36744412 83.16308594 211.33691406 C95.6009902 220.99688892 102.9767079 230.81090346 109.4375 245 C119.15757836 230.41988246 118.95309737 209.08778451 115.84350586 192.52197266 C110.73665937 167.30709477 100.18468331 144.5977677 83.4375 125 C82.74011719 124.16855469 82.04273438 123.33710938 81.32421875 122.48046875 C72.14079168 111.86162146 60.70645158 102.85255824 48.4375 96 C47.7775 96 47.1175 96 46.4375 96 Z M6.4375 170 C5.6986477 173.29957875 5.6986477 173.29957875 5.83622742 177.08673096 C5.83195529 177.80068677 5.82768317 178.51464258 5.82328159 179.25023341 C5.81504425 181.64304614 5.84254581 184.03410659 5.86987305 186.42675781 C5.87128337 188.14161131 5.87049184 189.85646784 5.86766052 191.57131958 C5.86622434 196.2282229 5.89564666 200.88448395 5.93053031 205.54123783 C5.96176023 210.40723996 5.96472189 215.27325638 5.97065735 220.13934326 C5.98620569 229.35458695 6.02724759 238.5695345 6.0774048 247.7846477 C6.13326742 258.2754301 6.16077701 268.76622654 6.18588197 279.25712061 C6.23816255 300.83824577 6.32612412 322.41910424 6.4375 344 C7.71555252 343.38305468 8.99111675 342.76095309 10.265625 342.13671875 C10.9762207 341.79084717 11.68681641 341.44497559 12.41894531 341.08862305 C15.01202649 339.69015317 17.14845462 337.84395322 19.4375 336 C22.29347548 334.75051073 23.18239728 334.91303316 26.1875 335.9375 C26.93 336.288125 27.6725 336.63875 28.4375 337 C29.25 340.125 29.25 340.125 29.4375 344 C26.14480748 348.83221478 22.69463769 351.36986679 17.375 353.8125 C16.76333984 354.11091797 16.15167969 354.40933594 15.52148438 354.71679688 C12.48179206 356.17256303 9.72553271 357.17799182 6.4375 358 C6.4375 366.91 6.4375 375.82 6.4375 385 C12.8180287 383.58210473 17.44206444 382.36958289 23 379.4375 C23.68126953 379.08671387 24.36253906 378.73592773 25.06445312 378.37451172 C32.63116391 374.44350472 40.08269772 370.31363584 47.4375 366 C48.1294043 365.59491211 48.82130859 365.18982422 49.53417969 364.77246094 C51.63666192 363.53039407 53.72625943 362.26912968 55.8125 361 C56.42996094 360.63342285 57.04742187 360.2668457 57.68359375 359.88916016 C59.6617917 358.66433643 61.54778576 357.35754035 63.4375 356 C64.25460449 355.43716309 65.07170898 354.87432617 65.91357422 354.29443359 C74.46958323 347.64903646 76.76684411 339.59165353 79.8125 329.625 C80.54897032 327.28729754 81.29451265 324.95327771 82.05532837 322.62338257 C82.5229003 321.18486021 82.97568426 319.74141953 83.41122437 318.2928772 C84.6664771 314.35533666 85.7110951 311.96961206 89.4375 310 C91.76953125 309.84765625 91.76953125 309.84765625 94.25 310.0625 C99.22429172 310.17902806 102.60652905 309.24025434 106.4375 306 C114.07709701 298.64923463 118.45787179 291.86206364 119.65234375 281.296875 C119.37047245 278.28341451 118.63562591 277.07238566 116.4375 275 C113.84256821 274.41220112 113.84256821 274.41220112 111 274.4375 C108.01215162 274.3683933 105.90422002 274.21317316 103.1796875 272.96875 C100.58785487 270.0398629 100.45923512 266.80828966 100 263.0625 C98.22110544 251.30286092 94.47637474 241.91094202 86.4375 233 C85.41076172 231.85144531 85.41076172 231.85144531 84.36328125 230.6796875 C76.8719252 222.76861201 68.1499415 216.48563249 59.4375 210 C51.96440146 204.40645735 44.76292546 198.66340173 37.921875 192.296875 C35.78407727 190.3204205 33.603516 188.43445344 31.375 186.5625 C25.09820905 181.11228234 19.63780686 174.73129912 14.375 168.3125 C13.735625 167.549375 13.09625 166.78625 12.4375 166 C9.8600717 166 8.11033197 168.34890323 6.4375 170 Z M-16.6875 184.5 C-18.14429015 185.24135937 -19.60132843 185.98223134 -21.05859375 186.72265625 C-22.17983643 187.29330811 -22.17983643 187.29330811 -23.32373047 187.87548828 C-25.44546818 188.94121608 -27.57929225 189.97469071 -29.72265625 190.99609375 C-43.04051944 197.3787078 -54.45600742 205.27747156 -65.07421875 215.56298828 C-66.56675479 217.00410822 -68.07908762 218.42203799 -69.59375 219.83984375 C-83.20481299 232.77462141 -94.0865119 248.17361733 -99.1875 266.4375 C-100.5625 270 -100.5625 270 -103 271.375 C-104.7634375 271.684375 -104.7634375 271.684375 -106.5625 272 C-108.64924973 272.48554438 -110.73237421 272.98681927 -112.8125 273.5 C-113.84890625 273.7371875 -114.8853125 273.974375 -115.953125 274.21875 C-118.69309286 274.81420385 -118.69309286 274.81420385 -120.5625 277 C-122.43259353 282.75413394 -120.92149098 287.64424525 -118.5625 293 C-114.46311316 300.07552249 -109.4261053 306.98037556 -101.5625 310 C-98.60914396 310.25371112 -95.8936112 310.20775879 -92.9453125 309.91796875 C-90.5625 310 -90.5625 310 -89.09204102 311.05322266 C-86.91040506 313.82997686 -85.8835792 316.94253573 -84.70703125 320.23046875 C-84.16160209 321.68844862 -83.61535102 323.14612123 -83.06835938 324.60351562 C-82.22125012 326.88648606 -81.38085297 329.1712557 -80.55541992 331.4621582 C-75.67228006 344.94453808 -70.14900064 352.3215026 -57.6875 359.8125 C-56.86741455 360.31676514 -56.0473291 360.82103027 -55.20239258 361.34057617 C-53.5008544 362.38528314 -51.79649139 363.42540297 -50.08935547 364.4609375 C-47.65289145 365.94494418 -45.23276926 367.45228433 -42.81640625 368.96875 C-26.23901398 379.6650974 -26.23901398 379.6650974 -7.5625 385 C-7.5625 376.42 -7.5625 367.84 -7.5625 359 C-9.521875 358.29875 -11.48125 357.5975 -13.5 356.875 C-19.64401589 354.52482999 -25.83557942 351.72692058 -30.5625 347 C-30.83564815 341.26388889 -30.83564815 341.26388889 -30.5625 339 C-28.5625 337 -28.5625 337 -25.5 336.5 C-20.79532383 337.0974192 -18.47729777 338.76180604 -14.7734375 341.58984375 C-12.27456812 343.3712788 -12.27456812 343.3712788 -7.5625 344 C-7.5625 290.21 -7.5625 236.42 -7.5625 181 C-10.92945269 181 -13.74191147 182.99026883 -16.6875 184.5 Z " fill="#000000" transform="translate(229.5625,39)"/>
<path d="M0 0 C2.90049178 3.08132045 3.79398532 6.21293634 4.875 10.25 C8.02389049 20.92988715 13.30597597 28.22087029 23 34 C25.36389867 35.07378425 27.73836729 36.09494956 30.14453125 37.0703125 C32 38 32 38 33 40 C33.3125 42.875 33.3125 42.875 33 46 C30.17885033 49.43993957 27.21051403 51.02047706 23.1875 52.8125 C13.20333569 57.69526649 8.81552235 63.6314244 5 74 C4.22641327 76.62583664 3.49829864 79.24171059 2.87109375 81.90625 C1.74976556 84.60146035 0.51163153 85.55558186 -2 87 C-5.5625 87.125 -5.5625 87.125 -9 86 C-10.4900779 83.51653684 -11.20999836 81.73462104 -12 79 C-15.31934199 67.54906425 -19.42923856 59.61921477 -29.78515625 53.2109375 C-32.78122217 51.57287677 -35.83996583 50.28980986 -39 49 C-41.57990801 46.42009199 -41.31598838 44.49755539 -41.4609375 40.97265625 C-41 39 -41 39 -39.33984375 37.4140625 C-36.69928289 35.81826445 -34.00295111 34.57385101 -31.1875 33.3125 C-22.65249613 29.10217531 -17.36708089 22.86615623 -14 14 C-12.98832895 10.59710645 -12.01790138 7.19388834 -11.125 3.7578125 C-10 1 -10 1 -8.06640625 -0.390625 C-5.03627015 -1.28420011 -3.00636448 -0.89551282 0 0 Z M-5 28 C-5.94240591 29.44726622 -6.88443746 30.89477812 -7.82421875 32.34375 C-9.60527951 34.85261965 -11.77366785 36.88783873 -14 39 C-14.8971875 39.8971875 -14.8971875 39.8971875 -15.8125 40.8125 C-16.204375 41.204375 -16.59625 41.59625 -17 42 C-15.63107063 45.09703328 -14.07882641 47.11761608 -11.625 49.4375 C-8.80861391 52.11120574 -6.38680572 54.93500499 -4 58 C-3.09507812 56.86111328 -3.09507812 56.86111328 -2.171875 55.69921875 C-1.37265625 54.70535156 -0.5734375 53.71148437 0.25 52.6875 C1.43335938 51.20830078 1.43335938 51.20830078 2.640625 49.69921875 C4.65923201 47.38985213 6.56859799 45.81239829 9 44 C9 43.34 9 42.68 9 42 C7.37613619 40.43566757 7.37613619 40.43566757 5.3125 38.8125 C1.43883135 35.54323355 -1.17928107 32.18834023 -4 28 C-4.33 28 -4.66 28 -5 28 Z " fill="#000000" transform="translate(372,386)"/>
<path d="M0 0 C1.4900779 2.48346316 2.20999836 4.26537896 3 7 C6.31934199 18.45093575 10.42923856 26.38078523 20.78515625 32.7890625 C23.78122217 34.42712323 26.83996583 35.71019014 30 37 C32.57990801 39.57990801 32.31598838 41.50244461 32.4609375 45.02734375 C32 47 32 47 30.3359375 48.58984375 C27.71731504 50.17065095 25.0464017 51.38617956 22.25 52.625 C13.29762471 57.05751752 8.13761455 63.14181909 4.79296875 72.50390625 C4.2622572 74.17447118 3.74409698 75.84907309 3.23828125 77.52734375 C1.3987911 83.53245182 1.3987911 83.53245182 -0.8125 86.125 C-3.95046881 87.38018752 -5.80809827 87.01869204 -9 86 C-11.8975314 82.91459874 -12.79348701 79.7889246 -13.875 75.75 C-17.02389049 65.07011285 -22.30597597 57.77912971 -32 52 C-34.36389867 50.92621575 -36.73836729 49.90505044 -39.14453125 48.9296875 C-41 48 -41 48 -42 46 C-42.3125 43.125 -42.3125 43.125 -42 40 C-39.18588247 36.56346588 -36.28411483 35.05260394 -32.25 33.3125 C-22.45205969 28.5269043 -17.797314 21.84432389 -13.94921875 11.80859375 C-13.17731997 9.52466279 -12.51572349 7.27510437 -11.9375 4.9375 C-11 2 -11 2 -9.3125 0 C-5.75163786 -1.53983228 -3.65375475 -1.19577428 0 0 Z M-5 28 C-5.60328125 28.75925781 -6.2065625 29.51851562 -6.828125 30.30078125 C-7.62734375 31.29464844 -8.4265625 32.28851563 -9.25 33.3125 C-10.03890625 34.29863281 -10.8278125 35.28476563 -11.640625 36.30078125 C-13.65923201 38.61014787 -15.56859799 40.18760171 -18 42 C-18 42.66 -18 43.32 -18 44 C-16.37613619 45.56433243 -16.37613619 45.56433243 -14.3125 47.1875 C-10.44262987 50.45936178 -7.76405521 53.76754047 -5 58 C-4.443125 57.29875 -3.88625 56.5975 -3.3125 55.875 C-2.549375 54.92625 -1.78625 53.9775 -1 53 C-0.59136719 52.484375 -0.18273437 51.96875 0.23828125 51.4375 C2.59510908 48.51882777 4.87294017 46.08470655 8 44 C6.63107063 40.90296672 5.07882641 38.88238392 2.625 36.5625 C-0.19138609 33.88879426 -2.61319428 31.06499501 -5 28 Z " fill="#000000" transform="translate(358,40)"/>
<path d="M0 0 C3.38757532 3.48964915 4.69162851 6.58413525 5.875 11.25 C8.4977887 20.2817821 12.97624333 27.80726691 21 33 C23.84733653 34.38423147 26.70651255 35.64495883 29.64453125 36.82421875 C32 38 32 38 34 41 C34.4375 43.9375 34.4375 43.9375 34 47 C30.67456558 50.10895044 27.26274511 51.92294372 23.125 53.75 C14.92175481 57.77100102 10.27491185 63.14526851 6.83203125 71.5546875 C5.58601237 75.21669603 4.66252315 78.94376425 3.80859375 82.71484375 C3 85 3 85 0 87 C-6.1659275 87.55052924 -6.1659275 87.55052924 -8.57421875 85.9609375 C-10.69688721 83.04154143 -11.3867023 79.74837748 -12.3125 76.3125 C-14.18957353 69.88972511 -16.2078376 64.83937583 -21 60 C-21.52335937 59.45085937 -22.04671875 58.90171875 -22.5859375 58.3359375 C-25.88273824 55.19391614 -28.97151214 53.49840182 -33.25 51.9375 C-36.50212246 50.73961014 -37.82530855 50.19465619 -40.1875 47.5625 C-41.1559218 44.50824663 -41.10491776 42.9990625 -40 40 C-36.89838616 36.17399608 -32.36516459 34.64528411 -28.0078125 32.59765625 C-20.26663253 28.48578273 -15.98053003 22.47418499 -13.0234375 14.30078125 C-12.30595292 11.87655305 -11.64271595 9.4449262 -11 7 C-9.03113158 1.09339474 -6.38275633 -0.91182233 0 0 Z M-4 29 C-5.08815289 30.37592886 -6.14494197 31.77670955 -7.1875 33.1875 C-10.15661121 37.07679031 -13.10722065 40.05667903 -17 43 C-16.01 43.928125 -16.01 43.928125 -15 44.875 C-11.55664288 48.27889171 -8.70281374 52.14641031 -5.76953125 55.98828125 C-4.89361328 56.98408203 -4.89361328 56.98408203 -4 58 C-3.34 58 -2.68 58 -2 58 C-0.61973152 56.44844594 -0.61973152 56.44844594 0.75 54.4375 C3.64682256 50.43474764 6.74684614 46.71789013 10 43 C9.154375 42.360625 8.30875 41.72125 7.4375 41.0625 C3.82921704 38.08996213 1.18494979 34.53724993 -1.58203125 30.79296875 C-2.04996094 30.20128906 -2.51789063 29.60960937 -3 29 C-3.33 29 -3.66 29 -4 29 Z " fill="#000000" transform="translate(430,225)"/>
<path d="M0 0 C4.15281941 2.16300354 8.16765163 4.53820607 12.1875 6.9375 C13.80688477 7.88786133 13.80688477 7.88786133 15.45898438 8.85742188 C27.70141187 16.08432972 27.70141187 16.08432972 28.9375 19.875 C29.01591734 23.79586714 28.41218104 24.9085266 26 28 C23.2790593 29.90357266 20.38327943 31.41229534 17.4375 32.9375 C15.80242626 33.80679203 14.16830352 34.6778753 12.53515625 35.55078125 C11.75027832 35.9679541 10.96540039 36.38512695 10.15673828 36.81494141 C7.47420184 38.28890924 4.93009518 39.94159613 2.375 41.625 C-2.01074296 44.29886401 -4.91226565 44.80332648 -10 44 C-12 42.9375 -12 42.9375 -13 41 C-13.5 37.5625 -13.5 37.5625 -13 34 C-10.46875 31.77734375 -10.46875 31.77734375 -8 30 C-8.9034465 29.99413376 -9.80689301 29.98826752 -10.73771667 29.98222351 C-19.25698113 29.92429028 -27.77598359 29.85220986 -36.2949934 29.76428509 C-40.67458947 29.719581 -45.05409251 29.68032502 -49.43383789 29.65356445 C-53.66152759 29.62753175 -57.8888593 29.58712978 -62.11632729 29.53681374 C-63.72818864 29.52014476 -65.34011191 29.50863066 -66.95204735 29.50238609 C-69.21214593 29.49274509 -71.47132862 29.4646875 -73.73120117 29.43237305 C-75.01693527 29.42126999 -76.30266937 29.41016693 -77.62736511 29.39872742 C-81.51969898 28.93855895 -84.20834569 27.79165431 -87 25 C-87.46889952 18.66985646 -87.46889952 18.66985646 -85.6875 16.125 C-81.93380445 13.6225363 -78.33531237 13.8474134 -73.95825195 13.79467773 C-72.88957886 13.77982834 -72.88957886 13.77982834 -71.79931641 13.76467896 C-69.44567176 13.733105 -67.09200694 13.70832281 -64.73828125 13.68359375 C-63.10588559 13.66302067 -61.47349521 13.64202411 -59.84111023 13.62062073 C-55.54544354 13.56543656 -51.24972906 13.51601117 -46.95397949 13.46777344 C-42.57018788 13.41753173 -38.18646562 13.3618596 -33.80273438 13.30664062 C-25.20188157 13.19910375 -16.60097072 13.09764886 -8 13 C-8.8146875 12.41347656 -9.629375 11.82695312 -10.46875 11.22265625 C-13 9 -13 9 -13.5 5.4375 C-13 2 -13 2 -11.6875 0.125 C-7.48359372 -2.67760419 -4.36910813 -1.80096967 0 0 Z " fill="#000000" transform="translate(135,404)"/>
<path d="M0 0 C3.02453329 1.26948352 5.80406076 2.89563569 8.625 4.5625 C9.80835938 5.2443335 9.80835938 5.2443335 11.015625 5.93994141 C12.60352795 6.85641227 14.1885467 7.77790023 15.77050781 8.70458984 C17.75740035 9.85904142 19.75765645 10.97908764 21.7734375 12.08203125 C22.83820313 12.67371094 23.90296875 13.26539062 25 13.875 C25.928125 14.38804688 26.85625 14.90109375 27.8125 15.4296875 C30.26315378 17.18890682 31.17034603 18.10658177 32 21 C31.77487622 24.48708573 31.62285248 26.37746941 29.11035156 28.88867188 C28.2953418 29.41009766 27.48033203 29.93152344 26.640625 30.46875 C25.73505859 31.05398437 24.82949219 31.63921875 23.89648438 32.2421875 C22.94064453 32.82226562 21.98480469 33.40234375 21 34 C20.08025391 34.55945313 19.16050781 35.11890625 18.21289062 35.6953125 C15.41713732 37.34654818 12.59232162 38.93047625 9.75 40.5 C8.31914062 41.32371094 8.31914062 41.32371094 6.859375 42.1640625 C-0.11687732 46.02037975 -0.11687732 46.02037975 -4.5546875 45.91796875 C-7.21870484 44.91789834 -8.49435111 44.42576765 -10 42 C-10.5 39.125 -10.5 39.125 -10 36 C-8.38644498 34.28186271 -6.72293247 32.60843379 -5 31 C-5.93072327 30.99635437 -6.86144653 30.99270874 -7.82037354 30.98895264 C-16.59015826 30.95201667 -25.35959139 30.89425963 -34.12910843 30.81609726 C-38.63768219 30.77658224 -43.14605946 30.74441364 -47.65478516 30.72900391 C-52.00573036 30.71386363 -56.35613553 30.67946547 -60.70684052 30.63169098 C-62.36697446 30.61684992 -64.02718549 30.60895742 -65.68738556 30.60811615 C-68.01255413 30.60575281 -70.33622255 30.57872744 -72.66113281 30.54589844 C-73.69151924 30.55344398 -73.69151924 30.55344398 -74.74272156 30.56114197 C-78.05497695 30.48874853 -79.76289455 30.18008348 -82.43133545 28.15338135 C-84.55782442 25.23424756 -84.51582306 23.53707243 -84 20 C-82.93571472 17.84661865 -82.93571472 17.84661865 -81 16 C-78.39450016 15.58824146 -76.20009546 15.43559622 -73.59106445 15.45410156 C-72.46386993 15.43859505 -72.46386993 15.43859505 -71.31390381 15.42277527 C-68.83014602 15.39327816 -66.34720065 15.3918467 -63.86328125 15.390625 C-62.14119404 15.37564794 -60.41912123 15.35892179 -58.69706726 15.34051514 C-54.16461539 15.29677585 -49.63235729 15.27682808 -45.09973145 15.26177979 C-40.47457388 15.2422323 -35.84962631 15.20025972 -31.22460938 15.16015625 C-22.14980425 15.08478301 -13.07504597 15.03453472 -4 15 C-4.804375 14.54625 -5.60875 14.0925 -6.4375 13.625 C-9 12 -9 12 -10 10 C-10.38932198 6.4182378 -10.43596718 4.63718279 -8.375 1.625 C-5.21011499 -0.54044764 -3.81600602 -0.43523571 0 0 Z " fill="#000000" transform="translate(132,89)"/>
<path d="M0 0 C3.5625 0.4375 3.5625 0.4375 6.0625 2 C7.5625 4.4375 7.5625 4.4375 7.8125 7.75 C5.60038289 14.27574546 0.27086037 17.71594123 -5.6875 20.8125 C-13.67651524 24.60893286 -23.96168526 24.78550031 -32.5 22.68359375 C-39.13476849 20.10452978 -45.70349536 16.7106278 -49.4375 10.4375 C-49.37322343 7.22367168 -48.96862958 5.27612565 -47.25 2.5625 C-44.32828142 0.7490195 -42.86672246 0.87635451 -39.4375 1.4375 C-36.76060662 2.83849093 -34.24017459 4.38138425 -31.70703125 6.02734375 C-26.86956529 9.033067 -21.96829726 9.14637683 -16.4375 8.4375 C-12.20296026 6.89278762 -8.01878753 5.08959145 -4.8671875 1.796875 C-3.4375 0.4375 -3.4375 0.4375 0 0 Z " fill="#000000" transform="translate(295.4375,286.5625)"/>
<path d="M0 0 C2.9375 0.5 2.9375 0.5 5.3125 2.125 C6.9375 4.5 6.9375 4.5 7.625 7.3125 C6.57729877 12.17002388 3.82362698 14.54929474 -0.0625 17.5 C-10.20593189 23.54256509 -20.54898673 25.34846752 -32.2109375 22.81640625 C-39.2693651 20.43393979 -46.05860849 17.136692 -49.75 10.4375 C-50.14088682 6.76316393 -49.28531804 5.3814308 -47.0625 2.5 C-46.0625 1.5 -46.0625 1.5 -43.0625 1.0625 C-38.51630067 1.08128595 -35.62379394 3.46778438 -32.078125 6.08984375 C-27.51448907 9.28262005 -22.41249214 9.06519454 -17.0625 8.5 C-12.57616813 7.13643772 -8.96880365 5.25876585 -5.375 2.25 C-3.0625 0.5 -3.0625 0.5 0 0 Z " fill="#000000" transform="translate(204.0625,286.5)"/>
<path d="M0 0 C1.9375 1 1.9375 1 3 3 C3.55332499 8.6254707 3.10066081 12.11049641 0 17 C-2.84083641 18.42041821 -4.85477278 18.31452272 -8 18 C-10.4375 16.625 -10.4375 16.625 -12 14 C-12.31757603 9.33705437 -11.84964381 5.37250153 -9.375 1.375 C-6.05681735 -0.54605311 -3.76655968 -0.47938032 0 0 Z " fill="#000000" transform="translate(179,357)"/>
<path d="M0 0 C2.375 1.5625 2.375 1.5625 4 4 C4.66584569 9.13652387 3.97334084 12.73821147 1 17 C-1.875 18.5625 -1.875 18.5625 -5 19 C-7.38964766 17.88483109 -9.13950458 16.86049542 -11 15 C-11.31482364 9.54305697 -10.86914076 5.71025411 -7.75 1.1875 C-5.05389163 -0.64200211 -3.17463065 -0.45351866 0 0 Z " fill="#000000" transform="translate(209,252)"/>
<path d="M0 0 C4.88372093 0.81395349 4.88372093 0.81395349 7 3.5 C7.75763876 7.91814062 7.50230265 11.45171622 5.5625 15.5 C4 17.5 4 17.5 3 18.5 C-4.17033312 19.07825267 -4.17033312 19.07825267 -7.0625 17.0625 C-8.52409887 13.06746308 -8.05843254 9.57424031 -7 5.5 C-4.9829491 1.83942614 -4.1497316 0.69162193 0 0 Z " fill="#000000" transform="translate(181,247.5)"/>
<path d="M0 0 C2.7770555 0.09593464 3.8017743 0.19328209 6.125 1.8125 C7.58659887 5.80753692 7.12093254 9.30075969 6.0625 13.375 C4.375 16.4375 4.375 16.4375 2.0625 18.375 C-1.28201564 18.93241927 -3.20041151 18.68535305 -6.3125 17.375 C-8.42598473 14.77378803 -8.37190577 12.65416927 -8.203125 9.375 C-7.44825518 3.6912743 -5.92479992 0.56426666 0 0 Z " fill="#000000" transform="translate(201.9375,327.625)"/>
<path d="M0 0 C3.625 0.375 3.625 0.375 6.125 1.8125 C8.10469 5.19447042 7.86587979 7.38139067 7.2265625 11.1796875 C6.32730189 14.46140479 5.26743739 16.2193274 2.625 18.375 C-0.85348951 18.86320905 -3.15636563 19.00397258 -6.3125 17.375 C-8.4920503 13.27231709 -7.79977502 8.77068934 -6.5 4.5 C-4.6836881 1.06918863 -3.94476941 0.43830771 0 0 Z " fill="#000000" transform="translate(158.375,321.625)"/>
</svg>
