<?xml version="1.0" encoding="UTF-8"?>
<svg version="1.1" xmlns="http://www.w3.org/2000/svg" width="512" height="512">
<path d="M0 0 C2.48572091 -0.0043797 4.96966755 -0.04089617 7.45507812 -0.07861328 C24.75715873 -0.19917263 42.30659099 2.64882087 56.86914062 12.55810547 C61.74898077 15.64919392 66.47152718 16.11346779 72.0793457 16.62231445 C86.59801941 18.06440783 98.79341359 26.49645583 108.11914062 37.37060547 C115.83891853 47.97243379 119.28799641 59.42088789 119.23266602 72.38354492 C119.23281204 73.28160355 119.23295807 74.17966217 119.23310852 75.10493469 C119.23241349 78.06461019 119.22464028 81.02422226 119.21679688 83.98388672 C119.21493124 86.03940293 119.21350802 88.09491959 119.21250916 90.1504364 C119.20869544 95.55418124 119.19887493 100.9578991 119.18780518 106.3616333 C119.17756643 111.87829219 119.17300625 117.39495544 119.16796875 122.91162109 C119.15725164 133.73129439 119.14018896 144.55094768 119.11914062 155.37060547 C119.89257812 155.66837891 120.66601562 155.96615234 121.46289062 156.27294922 C128.20292054 159.05816746 131.18648276 163.96387599 134.11914062 170.37060547 C136.24450935 176.96058522 136.13930819 184.79519044 133.49414062 191.18310547 C129.150215 199.52404599 123.86043694 203.87985678 115.11914062 207.37060547 C112.13334123 208.30584614 109.49223812 208.47903337 106.36914062 208.43310547 C105.56992187 208.42408203 104.77070313 208.41505859 103.94726562 208.40576172 C103.04234375 208.38835937 103.04234375 208.38835937 102.11914062 208.37060547 C102.02439453 209.44761719 102.02439453 209.44761719 101.92773438 210.54638672 C99.62881301 229.97832205 90.8139352 248.57348822 78.11914062 263.37060547 C77.41917969 264.19173828 76.71921875 265.01287109 75.99804688 265.85888672 C70.6822246 271.93016381 64.98042467 278.42844238 58.01586914 282.64355469 C55.88970043 284.23002688 55.88970043 284.23002688 55.66503906 286.82250977 C55.68598633 287.77037354 55.70693359 288.7182373 55.72851562 289.69482422 C55.74140625 290.72285156 55.75429688 291.75087891 55.76757812 292.81005859 C55.81785156 294.4178418 55.81785156 294.4178418 55.86914062 296.05810547 C55.8871875 297.1415625 55.90523438 298.22501953 55.92382812 299.34130859 C55.97100554 302.01862693 56.03681813 304.69417456 56.11914062 307.37060547 C57.11244385 307.84369141 58.10574707 308.31677734 59.12915039 308.80419922 C62.84904203 310.58204654 66.55654297 312.38454882 70.26098633 314.19433594 C71.85900075 314.97085974 73.46020226 315.74086293 75.06469727 316.50390625 C93.57312224 325.31744195 93.57312224 325.31744195 97.11914062 332.37060547 C97.21006485 333.29987099 97.21006485 333.29987099 97.30282593 334.24790955 C97.57810415 336.64631757 97.9274647 338.25846134 99.11914062 340.37060547 C102.78814617 342.55024637 106.75268991 343.52291405 110.85351562 344.62451172 C112.03826477 344.97392319 113.22301392 345.32333466 114.44366455 345.68333435 C117.60167512 346.61038408 120.76589538 347.50905158 123.93634033 348.39245605 C129.56714484 349.96752368 135.18007281 351.60534965 140.79101562 353.24951172 C141.98021103 353.59775497 143.16940643 353.94599823 144.39463806 354.30479431 C161.52457935 359.44497561 176.0985162 367.16561605 185.11914062 383.37060547 C188.20448158 390.31061914 191.22467127 397.25102787 191.26631165 404.92480469 C191.2770446 406.28747467 191.2770446 406.28747467 191.28799438 407.67767334 C191.29068329 408.66688782 191.29337219 409.65610229 191.29614258 410.67529297 C191.30271378 411.72283752 191.30928497 412.77038208 191.3160553 413.84967041 C191.33576221 417.31498282 191.34744225 420.78025204 191.35742188 424.24560547 C191.3614974 425.4284613 191.36557293 426.61131714 191.36977196 427.83001709 C191.39061687 434.08508123 191.4049281 440.3401235 191.41430664 446.59521484 C191.42539599 453.06528891 191.45982973 459.53502141 191.49947834 466.00497437 C191.52557004 470.97372087 191.53399162 475.94238485 191.53758812 480.91119385 C191.54246968 483.2970817 191.55412793 485.68296549 191.57262611 488.06878662 C191.59686904 491.4014435 191.59607999 494.73320067 191.58911133 498.06591797 C191.60832642 499.54973969 191.60832642 499.54973969 191.62792969 501.0635376 C191.57688362 507.74179957 191.57688362 507.74179957 189.21696472 510.98364258 C185.64304995 513.34651331 183.33929213 512.83951119 179.11914062 512.37060547 C176.88321321 510.92807165 176.32359203 510.04539726 175.56094074 507.52826691 C175.10913105 505.32172076 174.99169925 503.34844261 174.98783875 501.09802246 C174.98182648 499.82842178 174.98182648 499.82842178 174.97569275 498.53317261 C174.97622147 497.61263092 174.97675018 496.69208923 174.97729492 495.74365234 C174.97208328 494.27939316 174.97208328 494.27939316 174.96676636 492.78555298 C174.95941565 490.66520252 174.95406662 488.54484441 174.95047569 486.42448425 C174.9432974 483.06031097 174.92761837 479.69628246 174.90913391 476.33215332 C174.85674372 466.76654095 174.80874118 457.20100652 174.79321289 447.63525391 C174.78308883 441.78198142 174.75364843 435.92907169 174.71189308 430.07594299 C174.69963726 427.85301975 174.69445184 425.63004513 174.69669151 423.40708923 C174.84486542 402.47799042 174.84486542 402.47799042 165.1484375 384.3840332 C158.67744668 377.96364566 151.37205273 374.24320665 142.74414062 371.62060547 C141.75260986 371.30551025 140.7610791 370.99041504 139.73950195 370.66577148 C136.87385727 369.76122769 134.00320056 368.87472164 131.1305542 367.99273682 C128.12268214 367.0624003 125.12175399 366.11032452 122.11993408 365.16067505 C118.83553397 364.12385765 115.54810354 363.09693245 112.25970459 362.07287598 C110.62658111 361.56373121 108.99413006 361.05242444 107.36236572 360.53894043 C105.05870307 359.81627568 102.75169622 359.10551962 100.44335938 358.39794922 C99.74751236 358.17757492 99.05166534 357.95720062 98.33473206 357.73014832 C94.25353171 356.48816096 94.25353171 356.48816096 90.11914062 357.37060547 C88.21866812 359.68669513 88.21866812 359.68669513 86.43164062 362.43310547 C85.80902344 363.35220703 85.18640625 364.27130859 84.54492188 365.21826172 C84.07441406 365.92853516 83.60390625 366.63880859 83.11914062 367.37060547 C84.35664062 368.82466797 84.35664062 368.82466797 85.61914062 370.30810547 C86.16183594 370.94876953 86.70453125 371.58943359 87.26367188 372.24951172 C88.53781479 373.70605826 89.85049506 375.12950621 91.19335938 376.52294922 C96.92368253 382.54985102 99.4905565 387.52152796 100.55664062 395.74560547 C99.49583701 404.53512111 95.16745683 412.71853342 91.23046875 420.55200195 C90.75838486 421.50303299 90.28630096 422.45406403 89.7999115 423.43391418 C88.25614386 426.53957693 86.70369643 429.64079736 85.15039062 432.74169922 C84.06680626 434.91343378 82.98351839 437.08531629 81.9005127 439.25733948 C79.63837226 443.7905218 77.37174017 448.32142297 75.10205078 452.85083008 C72.19395891 458.65547985 69.29866491 464.46640773 66.40683746 470.27917385 C64.17684368 474.757492 61.93942772 479.23206986 59.69981384 483.70558357 C58.62884168 485.84737456 57.56035186 487.99040869 56.49440002 490.13470268 C55.00650515 493.12535376 53.50851927 496.11073271 52.0078125 499.0949707 C51.5702916 499.97968048 51.13277069 500.86439026 50.68199158 501.77590942 C48.60410356 505.88208919 46.78419931 509.43834336 43.11914062 512.37060547 C40.35334077 513.15388863 37.91157781 513.02160309 35.11914062 512.37060547 C32.55664062 510.30810547 32.55664062 510.30810547 31.11914062 507.37060547 C31.3633016 500.98226707 33.92281795 496.10778643 36.80664062 490.49145508 C37.53596802 489.04134285 37.53596802 489.04134285 38.2800293 487.56193542 C39.33358462 485.47046465 40.39178135 483.38132684 41.45410156 481.29429436 C43.13551748 477.99077318 44.80461319 474.68128461 46.47070312 471.37001038 C49.7084004 464.94060241 52.95934082 458.51796181 56.2130127 452.09662628 C60.63690752 443.3647158 65.05244105 434.62864203 69.45410156 425.88549995 C71.09868668 422.62598824 72.7531542 419.37162453 74.40820312 416.11741638 C75.41646289 414.11862358 76.42429829 412.11961664 77.43164062 410.12036133 C77.89401123 409.21785645 78.35638184 408.31535156 78.83276367 407.38549805 C80.98502491 403.08981279 82.89868521 399.26103167 83.11914062 394.37060547 C79.9890413 388.11879851 74.44315249 383.68544139 69.34375 379.02490234 C66.08572856 375.90783759 64.31897791 374.05147963 63.02539062 369.64404297 C63.12188961 366.27462016 63.3188709 365.06676116 65.30664062 362.43310547 C65.84804688 361.68931641 66.38945312 360.94552734 66.94726562 360.17919922 C67.66398437 359.25236328 68.38070313 358.32552734 69.11914062 357.37060547 C70.71238667 355.30977635 72.30231323 353.24669688 73.8840332 351.17700195 C74.9923384 349.73156232 76.11189931 348.2946788 77.24291992 346.86694336 C77.75765869 346.20041748 78.27239746 345.5338916 78.80273438 344.84716797 C79.27251709 344.24984863 79.7422998 343.6525293 80.22631836 343.03710938 C80.66826538 342.21218994 80.66826538 342.21218994 81.11914062 341.37060547 C80.4045534 338.1475369 80.4045534 338.1475369 77.43530273 336.74487305 C76.26749268 336.17406006 75.09968262 335.60324707 73.89648438 335.01513672 C73.27641006 334.70863693 72.65633575 334.40213715 72.01747131 334.08634949 C70.03502121 333.10912358 68.04607161 332.1460275 66.05664062 331.18310547 C64.71178833 330.52321704 63.36738113 329.86242067 62.0234375 329.20068359 C58.72710579 327.58008859 55.42480344 325.9720969 52.11914062 324.37060547 C51.93262939 325.1768335 51.74611816 325.98306152 51.55395508 326.8137207 C48.19793422 340.77628747 44.0311494 354.50586993 39.94824982 368.26858521 C38.17086141 374.26474809 36.40227454 380.26351861 34.63259125 386.26195908 C34.16581123 387.84405688 33.6989167 389.4261209 33.23191071 391.00815201 C29.42637593 403.90106709 25.65214488 416.80292174 21.89648438 429.71044922 C21.50990819 431.0390179 21.50990819 431.0390179 21.11552238 432.39442635 C18.82879473 440.2546742 16.54420494 448.11554275 14.26107788 455.97683716 C13.77781289 457.64072708 13.29454671 459.30461665 12.8112793 460.96850586 C12.57697991 461.77532271 12.34268053 462.58213957 12.10128117 463.41340542 C10.34730545 469.45124467 8.58546167 475.48676382 6.8207922 481.52148533 C5.61699114 485.64431966 4.43479911 489.7727135 3.26660156 493.90576172 C2.74619331 495.71698824 2.22569552 497.52818905 1.70507812 499.33935547 C1.49299713 500.11202759 1.28091614 500.88469971 1.06240845 501.68078613 C-0.19840548 506.0152925 -1.73931188 509.1071775 -4.88085938 512.37060547 C-6.88085938 513.03466797 -6.88085938 513.03466797 -8.88085938 512.99560547 C-9.54085937 513.00849609 -10.20085937 513.02138672 -10.88085938 513.03466797 C-13.95654823 512.01344315 -15.03415086 509.97879988 -16.88085938 507.37060547 C-18.01158142 504.56793213 -18.01158142 504.56793213 -18.90795898 501.47314453 C-19.25189194 500.30712708 -19.59582489 499.14110962 -19.95018005 497.9397583 C-20.30757767 496.68459412 -20.66497528 495.42942993 -21.03320312 494.13623047 C-21.41804896 492.81616846 -21.80393792 491.49641017 -22.19081116 490.17694092 C-23.20691913 486.70119149 -24.20904568 483.22156336 -25.20819092 479.74090576 C-26.21001766 476.25961546 -27.22455251 472.78203859 -28.23828125 469.30419922 C-29.78264975 464.00197542 -31.31793725 458.69723501 -32.84716797 453.390625 C-34.05878444 449.19246481 -35.28380983 444.99942821 -36.54345703 440.81542969 C-36.78068985 440.02521423 -37.01792267 439.23499878 -37.26234436 438.4208374 C-37.85637366 436.45117664 -38.45630135 434.48329719 -39.05688477 432.515625 C-40.19040932 428.18908771 -40.49213826 424.80237738 -39.88085938 420.37060547 C-37.95660956 417.99031957 -37.00576074 417.40861893 -34.00585938 416.49560547 C-30.0241126 416.3363356 -28.82693268 416.65711689 -25.88085938 419.37060547 C-22.76419472 425.74614128 -20.78557189 432.61881428 -18.86523438 439.42919922 C-18.60454163 440.34016861 -18.34384888 441.251138 -18.07525635 442.18971252 C-17.53166499 444.09392773 -16.99065179 445.9988807 -16.45214844 447.90454102 C-15.62553594 450.82692582 -14.78893159 453.74632088 -13.95117188 456.66552734 C-13.42193586 458.52408335 -12.89326924 460.3828016 -12.36523438 462.24169922 C-12.11529724 463.11354355 -11.86536011 463.98538788 -11.60784912 464.88365173 C-11.26684174 466.09620384 -11.26684174 466.09620384 -10.91894531 467.33325195 C-10.71783142 468.04255356 -10.51671753 468.75185516 -10.30950928 469.48265076 C-9.88085938 471.37060547 -9.88085938 471.37060547 -9.88085938 474.37060547 C-9.22085938 474.37060547 -8.56085938 474.37060547 -7.88085938 474.37060547 C-7.66316895 473.11521973 -7.44547852 471.85983398 -7.22119141 470.56640625 C-5.49978699 461.98717603 -2.88474319 453.63066881 -0.43554688 445.23779297 C0.10004147 443.39130947 0.63526309 441.54471957 1.1701355 439.69802856 C2.57042668 434.86705762 3.97565595 430.03753704 5.38195801 425.20831299 C6.81950327 420.2684939 8.25231908 415.32730358 9.68554688 410.38623047 C12.49214715 400.71301622 15.30397203 391.04132929 18.11914062 381.37060547 C17.03157471 381.58254547 15.94400879 381.79448547 14.82348633 382.0128479 C13.37649943 382.29064651 11.92947599 382.56825484 10.48242188 382.84570312 C9.76799927 382.98545059 9.05357666 383.12519806 8.31750488 383.2691803 C2.55794631 384.36734878 -3.01211262 384.83888356 -8.88085938 384.74560547 C-10.26072021 384.7369043 -10.26072021 384.7369043 -11.66845703 384.72802734 C-19.96796619 384.57249255 -27.81703332 383.31146905 -35.88085938 381.37060547 C-35.55859375 382.43923828 -35.23632812 383.50787109 -34.90429688 384.60888672 C-33.70714 389.00912365 -33.43626687 391.85058168 -33.88085938 396.37060547 C-35.44335938 398.87060547 -35.44335938 398.87060547 -37.88085938 400.37060547 C-41.36370619 400.80596132 -43.76021324 400.93379788 -46.9309082 399.34033203 C-49.75269727 396.48992584 -50.52496026 393.18258814 -51.58007812 389.41748047 C-51.8167067 388.6169223 -52.05333527 387.81636414 -52.2971344 386.99154663 C-53.06790495 384.37168581 -53.81828542 381.74645913 -54.56835938 379.12060547 C-55.09479879 377.3153961 -55.62247736 375.51054765 -56.15136719 373.70605469 C-57.22267073 370.04214018 -58.28560049 366.37595752 -59.34130859 362.70751953 C-60.76452151 357.76421998 -62.21157564 352.82822936 -63.66601562 347.89404297 C-64.48877397 345.09489866 -65.31017626 342.29535886 -66.13085938 339.49560547 C-66.32521576 338.83330933 -66.51957214 338.17101318 -66.71981812 337.48864746 C-67.26088021 335.64028177 -67.7975567 333.79063396 -68.33398438 331.94091797 C-68.6346582 330.90725098 -68.93533203 329.87358398 -69.24511719 328.80859375 C-69.88085938 326.37060547 -69.88085938 326.37060547 -69.88085938 324.37060547 C-83.74085938 331.30060547 -83.74085938 331.30060547 -97.88085938 338.37060547 C-97.88085938 342.76663485 -97.4673936 343.41010878 -94.92382812 346.74169922 C-94.30572266 347.56347656 -93.68761719 348.38525391 -93.05078125 349.23193359 C-92.39658203 350.08207031 -91.74238281 350.93220703 -91.06835938 351.80810547 C-89.78908876 353.492842 -88.51168546 355.17899837 -87.23632812 356.86669922 C-86.66551514 357.61105225 -86.09470215 358.35540527 -85.5065918 359.12231445 C-80.94238189 365.43434464 -80.94238189 365.43434464 -80.66601562 369.64013672 C-82.46510016 375.16465676 -86.12105905 378.17449453 -90.31835938 382.05810547 C-91.88382555 383.5366723 -93.4452016 385.01958469 -95.00195312 386.50732422 C-95.69732178 387.15403076 -96.39269043 387.8007373 -97.10913086 388.46704102 C-98.95467541 390.44991423 -100.04163256 391.79455942 -100.88085938 394.37060547 C-100.51070036 400.33735862 -97.75633037 405.09229551 -95.06982422 410.30395508 C-94.5706398 411.28845139 -94.07145538 412.27294769 -93.55714417 413.28727722 C-92.47469791 415.42025704 -91.38870329 417.55143902 -90.29957199 419.68101311 C-88.57693408 423.05203414 -86.86608791 426.42879291 -85.15859985 429.80751038 C-80.30312592 439.41154454 -75.43121709 449.00711992 -70.54003906 458.59301758 C-67.54671887 464.45977355 -64.57249161 470.33597806 -61.60832596 476.2175312 C-60.47553008 478.45643879 -59.33596825 480.69193635 -58.18955612 482.92390251 C-56.58754856 486.04382662 -55.00805073 489.17420999 -53.43310547 492.30786133 C-52.95419357 493.22704346 -52.47528168 494.14622559 -51.9818573 495.09326172 C-49.34894607 500.39979338 -48.2382337 503.59449311 -49.88085938 509.37060547 C-50.94335938 511.30810547 -50.94335938 511.30810547 -52.88085938 512.37060547 C-59.88278988 513.14859775 -59.88278988 513.14859775 -62.90039062 510.79638672 C-65.34286823 507.80471296 -66.9884996 504.58859263 -68.63085938 501.12060547 C-68.94667969 500.47091797 -69.2625 499.82123047 -69.58789062 499.15185547 C-70.35959903 497.56166846 -71.12126212 495.96661318 -71.88085938 494.37060547 C-71.90664062 495.25103516 -71.93242187 496.13146484 -71.95898438 497.03857422 C-72.01570312 498.20001953 -72.07242188 499.36146484 -72.13085938 500.55810547 C-72.17726562 501.70666016 -72.22367188 502.85521484 -72.27148438 504.03857422 C-73.01028111 508.07827689 -73.88443676 509.56665323 -76.88085938 512.37060547 C-79.89196687 512.86904652 -82.33919042 513.04558636 -85.34960938 513.00170898 C-86.62831909 513.01244194 -86.62831909 513.01244194 -87.93286133 513.02339172 C-90.74940661 513.04029403 -93.5643636 513.02086771 -96.38085938 512.99951172 C-98.33854301 513.00034028 -100.29622657 513.00279917 -102.25390625 513.00682068 C-106.35633287 513.00967973 -110.45821384 512.99496696 -114.56054688 512.9675293 C-119.82009323 512.93344643 -125.07866378 512.93946376 -130.33825684 512.95819187 C-134.38061663 512.96875858 -138.42274922 512.95982702 -142.46508789 512.94480705 C-144.40437139 512.93962237 -146.3436786 512.94011051 -148.28295898 512.94635201 C-150.99319509 512.95180022 -153.70203261 512.93144228 -156.41210938 512.90405273 C-157.21430908 512.91057861 -158.01650879 512.91710449 -158.84301758 512.92382812 C-162.29805307 512.86443119 -164.48645786 512.63807979 -167.37780762 510.67723083 C-169.20577707 507.87197767 -169.38733633 506.2664228 -169.3984375 502.93115234 C-169.41104614 501.84322388 -169.42365479 500.75529541 -169.43664551 499.63439941 C-169.42854858 498.46453491 -169.42045166 497.29467041 -169.41210938 496.08935547 C-169.41593628 494.88371948 -169.41976318 493.6780835 -169.42370605 492.43591309 C-169.42642763 489.88727992 -169.41904943 487.33861893 -169.40234375 484.79003906 C-169.38093977 480.88527245 -169.40213941 476.98234599 -169.42773438 473.07763672 C-169.42509115 470.60237223 -169.41996627 468.1271089 -169.41210938 465.65185547 C-169.4202063 464.48199097 -169.42830322 463.31212646 -169.43664551 462.10681152 C-169.42403687 461.01888306 -169.41142822 459.93095459 -169.3984375 458.81005859 C-169.39366394 457.37587585 -169.39366394 457.37587585 -169.38879395 455.91271973 C-168.73045537 452.61786254 -167.47439284 451.44352253 -164.88085938 449.37060547 C-161.31158552 448.18084752 -158.08138966 448.24582392 -154.36914062 448.27294922 C-153.64091599 448.27436417 -152.91269135 448.27577911 -152.16239929 448.27723694 C-149.83934399 448.28282888 -147.51638549 448.29537985 -145.19335938 448.30810547 C-143.61718889 448.31312151 -142.0410169 448.31768424 -140.46484375 448.32177734 C-136.60347839 448.33279567 -132.74218529 448.35005473 -128.88085938 448.37060547 C-128.90043701 447.60699707 -128.92001465 446.84338867 -128.94018555 446.05664062 C-128.96302612 444.56076416 -128.96302612 444.56076416 -128.98632812 443.03466797 C-129.00590576 442.04418457 -129.0254834 441.05370117 -129.0456543 440.03320312 C-128.88085938 437.37060547 -128.88085938 437.37060547 -127.19335938 434.74560547 C-124.56734704 433.18419273 -122.94796239 432.44541286 -119.88085938 432.37060547 C-115.74864311 434.19646847 -114.97046517 435.19139388 -112.88085938 439.37060547 C-112.88085938 442.34060547 -112.88085938 445.31060547 -112.88085938 448.37060547 C-106.94085938 448.37060547 -101.00085938 448.37060547 -94.88085938 448.37060547 C-95.50653809 447.1349585 -96.1322168 445.89931152 -96.77685547 444.6262207 C-99.10511133 440.02416729 -101.42531872 435.41809529 -103.74316406 430.81079102 C-104.74586775 428.82043391 -105.75072661 426.83116096 -106.7578125 424.84301758 C-108.20821252 421.97876417 -109.65071872 419.11065173 -111.09179688 416.24169922 C-111.54082367 415.35912949 -111.98985046 414.47655975 -112.45248413 413.56724548 C-116.67943458 405.1156235 -119.4211894 397.5843574 -116.94335938 388.05810547 C-114.78625327 382.0099515 -110.26082874 377.90398882 -105.88085938 373.37060547 C-104.17550665 371.39866887 -102.52895524 369.39085202 -100.88085938 367.37060547 C-103.52085937 363.74060547 -106.16085938 360.11060547 -108.88085938 356.37060547 C-119.55970514 358.86294255 -129.99358348 362.05490751 -140.46289062 365.30371094 C-143.50327515 366.24480557 -146.54740179 367.17304847 -149.59179688 368.10107422 C-151.55558187 368.70836084 -153.51913182 369.31640817 -155.48242188 369.92529297 C-156.37748444 370.19630829 -157.272547 370.46732361 -158.19473267 370.74655151 C-170.31793291 374.54951662 -181.43165074 379.96335685 -187.88085938 391.37060547 C-193.40158082 402.5152183 -192.44898746 414.56350271 -192.41992188 426.67919922 C-192.42984055 428.93694506 -192.44178622 431.19468282 -192.45565796 433.45240784 C-192.48787228 439.36379473 -192.49840024 445.27499638 -192.50250244 451.1864624 C-192.51129409 460.67137259 -192.54674515 470.15613203 -192.59467697 479.64091682 C-192.60725365 482.94747211 -192.60650572 486.25383522 -192.60440063 489.56040955 C-192.61097959 491.5836502 -192.61798557 493.60688952 -192.62548828 495.63012695 C-192.62136429 496.54707336 -192.6172403 497.46401978 -192.61299133 498.40875244 C-192.64810108 503.93838977 -192.77502462 508.26477072 -196.88085938 512.37060547 C-203.86401926 513.04639514 -203.86401926 513.04639514 -206.97790527 510.97691345 C-209.92012367 506.94721705 -209.43887188 503.07806606 -209.3984375 498.20874023 C-209.40544678 497.17565231 -209.41245605 496.14256439 -209.41967773 495.07817078 C-209.43730861 491.65584566 -209.42560862 488.2343456 -209.41210938 484.81201172 C-209.41480466 482.42748354 -209.41868738 480.04295643 -209.42370605 477.65843201 C-209.42960956 472.65230887 -209.42101723 467.64647087 -209.40234375 462.64038086 C-209.37966525 456.25182636 -209.39260172 449.86394817 -209.41663361 443.47541904 C-209.43116348 438.54486604 -209.4264508 433.61447031 -209.41612244 428.68391228 C-209.41346919 426.33060563 -209.41667508 423.97728433 -209.42604065 421.62399483 C-209.48868334 401.44087046 -207.40068436 385.80789001 -193.05664062 370.46435547 C-182.12394198 359.94384115 -168.06631294 355.87011139 -153.80273438 351.85498047 C-152.73539566 351.55069626 -151.66805695 351.24641205 -150.56837463 350.9329071 C-146.12415027 349.66718721 -141.68114669 348.40267576 -137.21826172 347.20410156 C-133.92180475 346.31335984 -130.64412705 345.37055973 -127.36523438 344.41748047 C-126.35595886 344.15980896 -125.34668335 343.90213745 -124.30682373 343.63665771 C-121.50006621 342.79319346 -119.29354617 342.03885857 -116.88085938 340.37060547 C-115.57876543 337.8189571 -114.9647691 335.58451865 -114.47674561 332.76716614 C-113.31767864 328.10558117 -109.7671712 325.86184895 -105.88085938 323.37060547 C-100.51341111 320.29666905 -94.94865585 317.61984834 -89.38085938 314.93310547 C-87.87509758 314.19530164 -86.369884 313.4563779 -84.86523438 312.71630859 C-81.20996776 310.92143456 -77.54761879 309.1418745 -73.88085938 307.37060547 C-72.1494782 293.71353638 -72.1494782 293.71353638 -76.01367188 281.15576172 C-78.8615256 278.96235906 -81.77332046 277.17225254 -84.88085938 275.37060547 C-103.9054778 258.92768001 -117.66681856 233.53837559 -119.88085938 208.37060547 C-121.15960938 208.43248047 -122.43835938 208.49435547 -123.75585938 208.55810547 C-133.34618273 208.46805548 -139.85155792 205.60853189 -146.74023438 198.88232422 C-152.3996667 192.24178593 -153.63550978 185.13924572 -153.32226562 176.55029297 C-152.16837415 168.23818978 -148.03653332 162.83745332 -141.65039062 157.64794922 C-139.88085938 156.37060547 -139.88085938 156.37060547 -137.88085938 155.37060547 C-137.87721375 154.64192261 -137.87356812 153.91323975 -137.86981201 153.16247559 C-137.83159895 146.22120171 -137.77437834 139.28030264 -137.69695663 132.3393631 C-137.65781318 128.7727756 -137.62546579 125.20642276 -137.60986328 121.63964844 C-137.43663505 84.764616 -137.43663505 84.764616 -128.63867188 70.38623047 C-127.66015714 68.41213422 -127.66015714 68.41213422 -128.45898438 66.53076172 C-130.84457618 62.90649724 -133.2649012 59.30344081 -135.77929688 55.76708984 C-138.59770581 51.57150382 -139.78519476 48.5614906 -138.88085938 43.37060547 C-135.12854516 37.92118649 -130.04776283 36.85914285 -124.00585938 35.12060547 C-110.55094447 30.96799878 -97.85333813 25.30244046 -85.02783203 19.53759766 C-71.48352696 13.47243867 -57.83294588 7.92531886 -43.31835938 4.62060547 C-42.52751953 4.42595703 -41.73667969 4.23130859 -40.921875 4.03076172 C-27.39292315 0.8587494 -13.84262677 -0.00271424 0 0 Z M-35.88085938 19.37060547 C-36.5434375 19.5151416 -37.20601563 19.65967773 -37.88867188 19.80859375 C-44.8581894 21.37569393 -51.56150673 23.52456874 -58.24023438 26.03857422 C-58.92661987 26.29662842 -59.61300537 26.55468262 -60.32019043 26.82055664 C-68.44883435 29.91595748 -76.41081891 33.39171701 -84.38085938 36.87060547 C-95.44023189 41.6979741 -106.53846974 46.24679827 -117.88085938 50.37060547 C-116.16850454 58.74493579 -106.58075909 65.13482937 -99.75195312 69.65185547 C-61.70613382 92.42758403 -16.82452306 90.03934002 25.11914062 80.37060547 C30.95561654 78.88189499 36.76598811 77.30493932 42.54492188 75.60620117 C55.97840293 71.73570092 55.97840293 71.73570092 61.11523438 74.40966797 C77.43199888 92.36253081 86.47525006 114.86616217 86.70458984 139.03955078 C86.79155112 143.610392 87.07930698 146.70350457 90.11914062 150.37060547 C93.13285575 152.23807678 95.35089176 152.59908338 98.86914062 152.49560547 C99.66835938 152.47755859 100.46757812 152.45951172 101.29101562 152.44091797 C101.89429688 152.41771484 102.49757813 152.39451172 103.11914062 152.37060547 C103.18883664 141.19996176 103.24205119 130.02937029 103.27457714 118.85855293 C103.29019272 113.6707602 103.31135561 108.48311691 103.34545898 103.29541016 C103.37819935 98.28332945 103.3960245 93.27139194 103.40377235 88.25921249 C103.4092896 86.3527692 103.42006311 84.4463332 103.4363308 82.53995132 C103.56807428 66.45254572 102.17811466 54.70044883 90.68164062 42.55810547 C87.42598082 39.45437645 84.19080279 37.28668178 80.11914062 35.37060547 C79.45914063 35.70060547 78.79914063 36.03060547 78.11914062 36.37060547 C78.15007812 38.01029297 78.15007812 38.01029297 78.18164062 39.68310547 C78.11914062 43.37060547 78.11914062 43.37060547 77.11914062 46.37060547 C73.56697241 47.1367594 70.9838136 47.65882979 67.49414062 46.49560547 C65.12968403 44.38003904 64.27899858 42.95966246 62.86914062 40.18310547 C57.01745491 29.0739052 45.50593029 23.25786093 34.02148438 19.30419922 C23.57016498 16.3283765 13.21557499 16.13015723 2.43164062 16.12060547 C1.64768921 16.11959839 0.86373779 16.11859131 0.05603027 16.11755371 C-12.14523806 16.1281608 -23.93395794 16.68999085 -35.88085938 19.37060547 Z M-114.88085938 78.37060547 C-115.49960938 79.50498047 -116.11835938 80.63935547 -116.75585938 81.80810547 C-117.10390625 82.44619141 -117.45195312 83.08427734 -117.81054688 83.74169922 C-121.14770075 91.93843119 -121.15112123 100.00282216 -121.07617188 108.71826172 C-121.07334198 109.97070175 -121.07051208 111.22314178 -121.06759644 112.51353455 C-121.05835092 115.81298653 -121.04044098 119.11223619 -121.01818848 122.41162109 C-120.99758057 125.7905024 -120.98856305 129.16941355 -120.97851562 132.54833984 C-120.95654568 139.15583965 -120.92313615 145.76320604 -120.88085938 152.37060547 C-119.44222076 152.40449566 -118.00335095 152.42866416 -116.56445312 152.44873047 C-115.76322021 152.46323242 -114.9619873 152.47773438 -114.13647461 152.49267578 C-111.00394233 152.32314811 -109.25564356 151.38557387 -106.88085938 149.37060547 C-104.45495973 145.77007096 -104.55299468 142.06313356 -104.50195312 137.86669922 C-104.48495865 137.14700455 -104.46796417 136.42730988 -104.45045471 135.68580627 C-104.39747306 133.39332779 -104.35709737 131.10086536 -104.31835938 128.80810547 C-104.27436275 126.51186644 -104.22761298 124.21576369 -104.17555237 121.91969299 C-104.14371723 120.49298884 -104.11678959 119.06616477 -104.09532166 117.63926697 C-104.0324478 114.62115759 -103.84307221 112.25724399 -102.88085938 109.37060547 C-98.53376296 108.35965281 -95.80674834 108.08050357 -91.88085938 110.37060547 C-88.37745495 115.44920762 -89.54794167 122.35478701 -89.56518555 128.27709961 C-89.56832497 130.53337856 -89.5449474 132.78831856 -89.51953125 135.04443359 C-89.4731103 145.33690744 -89.95889475 154.1137027 -97.27148438 161.93310547 C-102.18078279 166.31810988 -107.73541331 167.35079296 -114.09570312 167.54638672 C-115.2490918 167.5821582 -115.2490918 167.5821582 -116.42578125 167.61865234 C-118.01665679 167.66150858 -119.60788655 167.69282073 -121.19921875 167.71240234 C-126.53313199 167.90433395 -129.62860696 168.86721833 -133.88085938 172.37060547 C-136.23984245 175.28001793 -136.83954134 177.086544 -137.38085938 180.80810547 C-136.70947324 185.59173169 -135.3152075 187.01431071 -131.88085938 190.37060547 C-128.41656963 192.91108461 -125.07058801 192.53174888 -120.88085938 192.37060547 C-120.44773437 191.19498047 -120.44773437 191.19498047 -120.00585938 189.99560547 C-118.88085938 187.37060547 -118.88085938 187.37060547 -116.88085938 185.37060547 C-112.54442337 185.0552283 -110.55432708 184.921627 -106.88085938 187.37060547 C-105.84350808 190.48265935 -105.56510723 193.37355104 -105.28613281 196.62768555 C-102.80595636 225.01903276 -91.13029161 248.75775086 -69.36914062 267.43701172 C-48.45795564 283.68667666 -23.02551722 290.8068723 3.28222656 288.15234375 C22.96581443 285.39780329 41.49592891 276.72923126 56.11914062 263.37060547 C57.28703125 262.32453125 57.28703125 262.32453125 58.47851562 261.25732422 C77.33759601 243.47126048 86.53567809 218.72534703 87.77539062 193.21826172 C88.11204726 190.42936756 88.59799681 188.71208042 90.11914062 186.37060547 C92.92829536 184.9660281 95.00724597 185.1216539 98.11914062 185.37060547 C100.43164062 186.62060547 100.43164062 186.62060547 102.11914062 188.37060547 C102.72460938 190.47998047 102.72460938 190.47998047 103.11914062 192.37060547 C109.80565937 192.20715723 113.44958697 191.27363681 118.11914062 186.37060547 C119.32557629 182.75129849 119.44182621 180.17829542 119.11914062 176.37060547 C116.9925583 172.34528892 115.33397418 170.06012433 111.11914062 168.37060547 C109.04976434 168.0578649 109.04976434 168.0578649 106.88867188 168.06201172 C106.08494141 168.036875 105.28121094 168.01173828 104.453125 167.98583984 C102.79173611 167.95109352 101.13027181 167.91975991 99.46875 167.89208984 C91.0072333 167.61609765 83.83813223 165.85433836 77.55664062 159.97998047 C72.49074133 154.30837582 72.07142316 147.90326761 71.93164062 140.68408203 C71.46274969 121.4522274 65.62543383 104.23069082 53.11914062 89.37060547 C47.45886605 90.44529424 41.86891625 91.64810908 36.29907227 93.12133789 C-12.18165217 105.90521047 -63.42856579 108.07911195 -108.11132812 82.52294922 C-110.38640785 81.16560264 -112.64414968 79.79005585 -114.88085938 78.37060547 Z M-56.88085938 294.37060547 C-57.90393566 309.50374688 -55.03633676 322.01441385 -50.44335938 336.37060547 C-49.82309172 338.37766888 -49.20523939 340.38548037 -48.58984375 342.39404297 C-46.2429283 353.30003185 -46.2429283 353.30003185 -40.58007812 361.65185547 C-21.7850093 369.25764207 -3.22179715 371.45135557 16.11914062 364.37060547 C16.84040131 364.14425919 17.56166199 363.9179129 18.30477905 363.68470764 C22.98955946 362.00463059 22.98955946 362.00463059 26.36219788 358.51333618 C27.2761393 356.18929164 27.942478 353.89763047 28.55273438 351.47607422 C28.80160904 350.61049393 29.0504837 349.74491364 29.30690002 348.85310364 C30.09112565 346.09638988 30.82430929 343.32900416 31.55664062 340.55810547 C32.07349651 338.7075638 32.59364802 336.85793926 33.1171875 335.00927734 C34.28871382 330.84850038 35.42651771 326.68010382 36.53710938 322.50267029 C37.07762695 320.52267606 37.66851663 318.55662147 38.26342773 316.59228516 C39.02389283 313.72920458 39.35498209 311.46911192 39.31445312 308.53076172 C39.30800781 307.69609375 39.3015625 306.86142578 39.29492188 306.00146484 C39.27816406 305.15390625 39.26140625 304.30634766 39.24414062 303.43310547 C39.23511719 302.55847656 39.22609375 301.68384766 39.21679688 300.78271484 C39.19343633 298.64522483 39.15757309 296.50787761 39.11914062 294.37060547 C35.0244779 295.06201193 31.33045226 296.3301953 27.43164062 297.74560547 C2.51080152 306.27903941 -24.10083585 305.40295724 -48.74414062 296.45654297 C-51.47560896 295.51090387 -54.04960518 294.90163439 -56.88085938 294.37060547 Z M-152.88085938 464.37060547 C-152.88085938 475.26060547 -152.88085938 486.15060547 -152.88085938 497.37060547 C-131.76085937 497.37060547 -110.64085937 497.37060547 -88.88085938 497.37060547 C-88.88085938 486.48060547 -88.88085938 475.59060547 -88.88085938 464.37060547 C-96.80085938 464.37060547 -104.72085938 464.37060547 -112.88085938 464.37060547 C-113.87085938 466.35060547 -114.86085937 468.33060547 -115.88085938 470.37060547 C-116.88085938 471.37060547 -116.88085938 471.37060547 -119.16601562 471.46826172 C-120.08253906 471.45666016 -120.9990625 471.44505859 -121.94335938 471.43310547 C-122.86246094 471.42408203 -123.7815625 471.41505859 -124.72851562 471.40576172 C-125.43878906 471.39416016 -126.1490625 471.38255859 -126.88085938 471.37060547 C-127.54085937 469.06060547 -128.20085937 466.75060547 -128.88085938 464.37060547 C-136.80085938 464.37060547 -144.72085938 464.37060547 -152.88085938 464.37060547 Z " fill="#000000" transform="translate(264.880859375,-0.37060546875)"/>
<path d="M0 0 C2.45391569 3.68087353 2.22802759 6.44355588 2.125 10.6875 C2.11597656 11.38939453 2.10695313 12.09128906 2.09765625 12.81445312 C2.07413704 14.54311525 2.03826713 16.27160145 2 18 C2.86882812 17.96519531 3.73765625 17.93039062 4.6328125 17.89453125 C16.32 17.62 16.32 17.62 21 21 C22.54586876 24.09173752 22.29359521 26.59429552 22 30 C20.49609375 32.2109375 20.49609375 32.2109375 18 34 C15.10550051 34.2906124 12.62050065 34.38186045 9.75 34.25 C9.00492187 34.23195313 8.25984375 34.21390625 7.4921875 34.1953125 C5.66090299 34.14835649 3.83028351 34.07661652 2 34 C2.04640625 35.10859375 2.0928125 36.2171875 2.140625 37.359375 C2.17815102 38.82288968 2.21455029 40.28643356 2.25 41.75 C2.30027344 42.84441406 2.30027344 42.84441406 2.3515625 43.9609375 C2.41566933 47.48681335 2.30218013 49.57319569 0.23828125 52.48828125 C-3.42784829 54.96435827 -5.63926007 54.48452666 -10 54 C-12.67431489 52.18836733 -12.95920359 51.12238923 -14 48 C-14.06970052 45.60509014 -14.08448003 43.20832309 -14.0625 40.8125 C-14.05347656 39.54019531 -14.04445313 38.26789063 -14.03515625 36.95703125 C-14.02355469 35.98121094 -14.01195312 35.00539063 -14 34 C-15.68029297 34.05220703 -15.68029297 34.05220703 -17.39453125 34.10546875 C-18.86717251 34.13360839 -20.33982998 34.16090837 -21.8125 34.1875 C-22.55048828 34.21263672 -23.28847656 34.23777344 -24.04882812 34.26367188 C-29.50381681 34.3377215 -29.50381681 34.3377215 -31.95703125 32.66796875 C-33.57198306 30.08525556 -33.87873703 28.03157435 -34 25 C-32.80101912 22.22341271 -31.83247531 20.55754698 -29.30859375 18.8671875 C-26.20743494 17.70228521 -23.55189404 17.80896212 -20.25 17.875 C-18.49429687 17.90207031 -18.49429687 17.90207031 -16.703125 17.9296875 C-15.81109375 17.95289063 -14.9190625 17.97609375 -14 18 C-14.05220703 16.67935547 -14.05220703 16.67935547 -14.10546875 15.33203125 C-14.13253906 14.17058594 -14.15960938 13.00914062 -14.1875 11.8125 C-14.23970703 10.08966797 -14.23970703 10.08966797 -14.29296875 8.33203125 C-13.97305713 4.69356974 -13.1486501 2.91039647 -11 0 C-7.29268935 -3.04529089 -4.19398086 -1.63099256 0 0 Z " fill="#000000" transform="translate(394,434)"/>
<path d="M0 0 C3.75824087 0.73690997 5.98059741 2.27668255 9.125 4.37890625 C15.81572707 8.42122052 24.33934329 8.60464229 31.8359375 7.08984375 C35.88583098 5.97703518 38.9280577 4.79962462 42.4375 2.4375 C45.74969978 0.25445924 47.29853597 -0.11969524 51.1875 0.625 C54.51024404 3.08094125 55.96368008 4.5506644 56.8125 8.625 C55.72373461 13.85107388 51.85039579 16.29540235 47.6875 19.25 C36.89123728 25.68311143 23.56104369 25.86036925 11.5625 23.5 C4.00943203 21.58449839 -3.5152094 18.43126772 -7.8125 11.625 C-8.3125 8.6875 -8.3125 8.6875 -7.8125 5.625 C-5.43204538 2.40438492 -3.94156717 0.87590382 0 0 Z " fill="#000000" transform="translate(231.8125,215.375)"/>
<path d="M0 0 C1.04542969 -0.01998047 2.09085937 -0.03996094 3.16796875 -0.06054688 C4.17472656 -0.05990234 5.18148438 -0.05925781 6.21875 -0.05859375 C7.13591797 -0.06044678 8.05308594 -0.0622998 8.99804688 -0.06420898 C12.27913532 0.59373762 13.46780113 1.82404792 15.5 4.4375 C16 7.9375 16 7.9375 15.5 11.4375 C13.63291495 13.80247439 12.17938569 15.09780715 9.5 16.4375 C6.21386604 16.67623623 2.91885417 16.62269014 -0.375 16.625 C-1.28636719 16.63724609 -2.19773437 16.64949219 -3.13671875 16.66210938 C-4.45736328 16.66500977 -4.45736328 16.66500977 -5.8046875 16.66796875 C-6.60890137 16.67207764 -7.41311523 16.67618652 -8.24169922 16.68041992 C-10.75790665 16.40975761 -12.34841415 15.75000849 -14.5 14.4375 C-16.5815902 11.76116974 -16.49587591 10.31996332 -16.375 6.875 C-15.5 3.4375 -15.5 3.4375 -13.77539062 1.74975586 C-9.53503093 -0.69573055 -4.77793769 -0.03240278 0 0 Z " fill="#000000" transform="translate(304.5,135.5625)"/>
<path d="M0 0 C1.03705078 -0.02384766 2.07410156 -0.04769531 3.14257812 -0.07226562 C8.04949351 -0.06281107 10.71675872 -0.0433583 14.78515625 2.87109375 C16.5625 5.5625 16.5625 5.5625 16.5625 9.1875 C15.61706241 12.37835187 15.19878553 13.66437442 12.5625 15.5625 C8.94771286 17.36989357 4.73017454 16.79006068 0.75 16.8125 C-0.60448242 16.8434375 -0.60448242 16.8434375 -1.98632812 16.875 C-6.93037548 16.90406126 -10.4690206 16.87895743 -14.4375 13.5625 C-15.98336876 10.47076248 -15.73109521 7.96820448 -15.4375 4.5625 C-11.19113134 -0.93773939 -6.44625992 -0.06785537 0 0 Z " fill="#000000" transform="translate(207.4375,135.4375)"/>
<path d="M0 0 C2.91030552 2.75522707 3.91538829 4.41837775 4.49609375 8.41015625 C4.47675781 9.61542969 4.45742188 10.82070312 4.4375 12.0625 C4.43621094 13.27035156 4.43492187 14.47820312 4.43359375 15.72265625 C3.97661094 19.17678756 3.49032692 20.60767206 1 23 C-2.42890226 23.87281149 -4.89259577 24.32922829 -8.3125 23.3125 C-10.40887175 21.68198864 -11.01396151 20.46931006 -12 18 C-12.30078125 15.16015625 -12.30078125 15.16015625 -12.3125 12.0625 C-12.32925781 11.04285156 -12.34601563 10.02320313 -12.36328125 8.97265625 C-11.95034971 5.59372186 -11.00438554 3.72615941 -9 1 C-5.87139505 -0.56430248 -3.44397075 -0.35627284 0 0 Z " fill="#000000" transform="translate(308,160)"/>
<path d="M0 0 C3.56871381 0.50981626 5.03160265 0.93666429 7.5 3.5 C8.56385483 6.69156448 8.66677982 9.08497476 8.6875 12.4375 C8.70167969 13.47777344 8.71585938 14.51804688 8.73046875 15.58984375 C8.50151123 18.48091757 8.05213479 20.08310441 6.5 22.5 C3.82366974 24.5815902 2.38246332 24.49587591 -1.0625 24.375 C-4.5 23.5 -4.5 23.5 -6.1875 21.87890625 C-7.95725653 18.67122254 -7.93360618 16.21100795 -7.9375 12.5625 C-7.95683594 11.35722656 -7.97617188 10.15195313 -7.99609375 8.91015625 C-7.22215441 3.59008503 -5.42118515 0.77445502 0 0 Z " fill="#000000" transform="translate(207.5,159.5)"/>
</svg>
