<?xml version="1.0" encoding="UTF-8"?>
<svg version="1.1" xmlns="http://www.w3.org/2000/svg" width="512" height="512">
<path d="M0 0 C2.91006027 2.36449848 2.91006027 2.36449848 5.75390625 1.54296875 C6.54539062 1.03894531 7.336875 0.53492188 8.15234375 0.015625 C8.98507812 -0.49871094 9.8178125 -1.01304688 10.67578125 -1.54296875 C11.61679687 -2.16300781 12.5578125 -2.78304687 13.52734375 -3.421875 C47.92078004 -25.22398934 90.1383171 -38.88076964 130.77490234 -30.52783203 C149.23315274 -26.30847843 164.65386411 -17.97083975 179.15234375 -5.984375 C179.90128906 -5.38882813 180.65023438 -4.79328125 181.421875 -4.1796875 C187.14610537 0.53969769 191.62514307 6.16765927 196.15234375 12.015625 C196.83425781 12.87027344 197.51617187 13.72492188 198.21875 14.60546875 C213.66637242 34.70853902 220.78341988 59.50338129 220.58984375 84.640625 C220.58528168 85.67911591 220.58528168 85.67911591 220.58062744 86.73858643 C220.44286052 108.07776367 215.5947984 127.4907108 207.15234375 147.015625 C207.7175322 147.00674255 208.28272064 146.99786011 208.86503601 146.9887085 C214.75358963 146.90013603 220.64195367 146.83984987 226.53100586 146.79589844 C228.72802417 146.77579733 230.92498907 146.74851194 233.12182617 146.71386719 C236.28187241 146.66528407 239.44121062 146.64264095 242.6015625 146.625 C244.07214363 146.59403229 244.07214363 146.59403229 245.57243347 146.56243896 C249.96703266 146.5609967 252.45173123 146.58991072 256.2746582 148.9128418 C258.32371239 151.20753738 258.79222069 152.0532862 258.65234375 155.078125 C258.15234375 159.015625 258.15234375 159.015625 256.83984375 160.953125 C253.54877768 163.02527771 250.72580841 163.13812729 246.9465332 163.12915039 C245.35522331 163.12903709 245.35522331 163.12903709 243.73176575 163.12892151 C242.5879393 163.12376022 241.44411285 163.11859894 240.265625 163.11328125 C239.09347946 163.1118663 237.92133392 163.11045135 236.71366882 163.10899353 C232.96403468 163.10338888 229.2144599 163.09083556 225.46484375 163.078125 C222.92513107 163.0731106 220.38541745 163.06854759 217.84570312 163.06445312 C211.61456302 163.05341794 205.38345763 163.03667525 199.15234375 163.015625 C198.71801025 164.14713989 198.71801025 164.14713989 198.27490234 165.30151367 C196.79888255 168.87022007 194.82449671 172.06743093 192.77734375 175.328125 C192.34107666 176.02381592 191.90480957 176.71950684 191.45532227 177.4362793 C183.91591967 189.26568569 175.18417002 200.29785782 166.15234375 211.015625 C165.45625 211.84707031 165.45625 211.84707031 164.74609375 212.6953125 C159.20019916 219.3099472 153.63619872 225.79150788 147.3828125 231.7578125 C145.45409706 233.71017244 143.68235801 235.70664139 141.8984375 237.7890625 C138.18746837 242.06398011 134.17907403 245.92339081 130.02734375 249.765625 C129.28597168 250.45664307 128.54459961 251.14766113 127.78076172 251.85961914 C126.28060246 253.2566364 124.77883748 254.65193157 123.27539062 256.04541016 C121.35829556 257.82449907 119.44906633 259.61149111 117.54296875 261.40234375 C111.8461669 266.73671316 106.03558337 271.86372207 99.9453125 276.75 C97.44946132 278.77460655 95.00506317 280.84857714 92.57104492 282.94677734 C85.36396141 289.14493489 77.84610798 294.85133133 70.20068359 300.49511719 C68.17058293 302.00208583 66.15370828 303.52507866 64.140625 305.0546875 C51.3440265 314.77007196 38.18092378 323.78627281 24.65234375 332.453125 C23.73243652 333.04464355 22.8125293 333.63616211 21.86474609 334.24560547 C19.31194015 335.86766701 16.74193103 337.45306804 14.15234375 339.015625 C13.41886719 339.46695801 12.68539063 339.91829102 11.9296875 340.38330078 C8.7098638 342.20934406 6.78964362 343.12603619 3.0859375 342.484375 C1.63380859 341.75734375 1.63380859 341.75734375 0.15234375 341.015625 C-0.94980469 340.4896875 -2.05195313 339.96375 -3.1875 339.421875 C-4.39070064 338.79403093 -5.58975918 338.15820246 -6.78515625 337.515625 C-7.43629395 337.1659668 -8.08743164 336.81630859 -8.75830078 336.45605469 C-16.10168164 332.4338807 -22.97919508 327.79109973 -29.84765625 323.015625 C-30.88092041 322.3033374 -30.88092041 322.3033374 -31.93505859 321.57666016 C-40.68624332 315.5371663 -49.2172127 309.29431395 -57.5234375 302.65625 C-60.21023797 300.50931699 -62.93701941 298.42319087 -65.68261719 296.35229492 C-72.42140505 291.2571389 -78.80334395 285.81259039 -85.15234375 280.2421875 C-88.02558409 277.72230032 -90.93295606 275.24894128 -93.86474609 272.79760742 C-103.04021947 265.12537361 -111.90149611 257.10942577 -120.26953125 248.55859375 C-121.91641506 246.94839795 -123.64159331 245.49066594 -125.41015625 244.015625 C-131.44673032 238.8080582 -136.70071308 232.79489301 -142.08251953 226.92919922 C-143.71918944 225.1548951 -145.37088807 223.39664316 -147.03125 221.64453125 C-154.13286008 214.12336372 -160.59809772 206.25435925 -166.84765625 198.015625 C-167.35893066 197.3453125 -167.87020508 196.675 -168.39697266 195.984375 C-169.9894703 193.89419138 -171.57622656 191.79980749 -173.16015625 189.703125 C-173.6396875 189.06979248 -174.11921875 188.43645996 -174.61328125 187.78393555 C-175.07863281 187.16301025 -175.54398437 186.54208496 -176.0234375 185.90234375 C-176.47157806 185.31881638 -176.91971863 184.735289 -177.38143921 184.13407898 C-178.84765625 182.015625 -178.84765625 182.015625 -179.92935181 179.70095825 C-181.31293881 176.9568729 -182.56533248 175.09036794 -184.84765625 173.015625 C-189.62387707 171.73037038 -194.35268059 171.92279912 -199.2578125 172.05859375 C-200.67214756 172.06310291 -202.08650379 172.06305519 -203.50083923 172.05867004 C-207.21364603 172.05671131 -210.92394775 172.10486453 -214.63616943 172.16723633 C-220.57959461 172.26103706 -226.52317362 172.28894871 -232.46725273 172.29686928 C-234.53803224 172.30841379 -236.6069189 172.34776906 -238.67726135 172.39042664 C-239.93884567 172.39975723 -241.20042999 172.40908783 -242.50024414 172.41870117 C-243.60799698 172.43696457 -244.71574982 172.45522797 -245.85707092 172.4740448 C-249.5536914 171.90739853 -251.20350947 170.60697057 -253.84765625 168.015625 C-254.71113671 165.26964986 -254.47906338 162.81103659 -253.84765625 160.015625 C-251.64024944 157.04704343 -250.36168252 156.18696709 -246.84765625 155.015625 C-245.14482203 154.92792323 -243.43872877 154.89797107 -241.73364258 154.90209961 C-240.69279007 154.90217514 -239.65193756 154.90225067 -238.57954407 154.90232849 C-237.4575914 154.90748978 -236.33563873 154.91265106 -235.1796875 154.91796875 C-234.02973801 154.9193837 -232.87978851 154.92079865 -231.69499207 154.92225647 C-228.01668717 154.92786071 -224.3384428 154.94041396 -220.66015625 154.953125 C-218.16862067 154.95813945 -215.67708414 154.96270245 -213.18554688 154.96679688 C-207.07289596 154.97783153 -200.96028043 154.99457382 -194.84765625 155.015625 C-195.38672607 153.83299072 -195.9257959 152.65035645 -196.48120117 151.43188477 C-203.88166601 135.07678496 -203.88166601 135.07678496 -206.16015625 126.953125 C-206.39814941 126.11628174 -206.63614258 125.27943848 -206.88134766 124.41723633 C-207.56267201 121.95601631 -208.21179524 119.48893351 -208.84765625 117.015625 C-209.02699707 116.34337891 -209.20633789 115.67113281 -209.39111328 114.97851562 C-214.58352414 94.74512912 -214.04729336 69.93561576 -207.84765625 50.015625 C-207.63334961 49.31985352 -207.41904297 48.62408203 -207.19824219 47.90722656 C-197.50424464 17.52705668 -175.46744179 -6.66250332 -147.6640625 -21.70703125 C-102.178415 -43.91038727 -39.02955766 -31.08902518 0 0 Z M-161.84765625 9.015625 C-162.69714844 9.78519531 -163.54664063 10.55476563 -164.421875 11.34765625 C-178.40509426 24.6028059 -188.28328548 42.32572784 -192.84765625 61.015625 C-193.07195312 61.89476562 -193.29625 62.77390625 -193.52734375 63.6796875 C-200.07221957 94.7902616 -190.51504352 126.76143942 -175.84765625 154.015625 C-174.16261926 155.70066199 -172.08505741 155.13528483 -169.8367157 155.14004517 C-169.12030411 155.13644989 -168.40389252 155.13285461 -167.66577148 155.12915039 C-166.53901505 155.12936943 -166.53901505 155.12936943 -165.38949585 155.1295929 C-162.89505166 155.12889363 -160.40068122 155.12110064 -157.90625 155.11328125 C-156.18132061 155.11141712 -154.45639068 155.10999319 -152.73146057 155.10899353 C-148.18253122 155.10516797 -143.63363358 155.09533738 -139.0847168 155.08428955 C-134.44645619 155.07407624 -129.80819048 155.06949608 -125.16992188 155.06445312 C-116.06248603 155.05371514 -106.95507377 155.03663827 -97.84765625 155.015625 C-97.4487468 154.21447517 -97.4487468 154.21447517 -97.04177856 153.3971405 C-94.2205246 147.73214632 -91.39622414 142.068678 -88.5703125 136.40600586 C-87.52236291 134.30514236 -86.47513731 132.20391754 -85.42871094 130.10229492 C-79.7715489 118.74182317 -74.08099528 107.40763658 -68.10501099 96.21073914 C-65.68037051 91.65795431 -63.42026587 87.05730788 -61.22265625 82.390625 C-58.53194346 77.39722184 -58.53194346 77.39722184 -55.78125 75.86328125 C-53.66015625 75.453125 -53.66015625 75.453125 -49.84765625 76.015625 C-46.66898375 78.63459646 -45.09386198 81.14798638 -43.578125 84.94140625 C-43.17295654 85.94324951 -42.76778809 86.94509277 -42.3503418 87.97729492 C-41.91633057 89.08306885 -41.48231934 90.18884277 -41.03515625 91.328125 C-40.55925049 92.51833252 -40.08334473 93.70854004 -39.59301758 94.93481445 C-35.01709565 106.41142553 -30.61832818 117.95847154 -26.19921875 129.49609375 C-20.69918637 143.84813515 -15.13712531 158.17571941 -9.5362854 172.48867798 C-8.53636589 175.04449239 -7.53907113 177.6013069 -6.54403687 180.1590271 C-5.14473233 183.75551096 -3.73686788 187.34860814 -2.328125 190.94140625 C-1.9048291 192.03224518 -1.4815332 193.12308411 -1.04541016 194.24697876 C-0.65297119 195.24353485 -0.26053223 196.24009094 0.14379883 197.2668457 C0.65551384 198.57598686 0.65551384 198.57598686 1.17756653 199.91157532 C2.07722284 202.17007336 2.07722284 202.17007336 4.15234375 204.015625 C4.37910797 203.23225769 4.60587219 202.44889038 4.83950806 201.64178467 C5.34875314 199.88257439 5.85799887 198.12336429 6.3672533 196.36415672 C7.4087297 192.7663817 8.45014525 189.16858908 9.49147034 185.57077026 C11.6582818 178.08458069 13.82553901 170.59852118 15.99460888 163.11298561 C17.26491202 158.72904978 18.53488121 154.34501726 19.8046875 149.9609375 C20.19234378 148.6225564 20.19234378 148.6225564 20.5878315 147.2571373 C24.28613282 134.48645551 27.96768 121.71104435 31.63779449 108.93223572 C33.14290729 103.69405528 34.65111339 98.45676461 36.15945435 93.21951294 C37.60560969 88.19682233 39.04664029 83.17269665 40.48410511 78.14751244 C41.38105493 75.01657468 42.28287695 71.88705589 43.18604851 68.75790787 C43.60299926 67.30956082 44.01792233 65.86062823 44.43063545 64.41106796 C44.99546534 62.42820309 45.56753165 60.44756229 46.14135742 58.46728516 C46.45916672 57.35970856 46.77697601 56.25213196 47.10441589 55.11099243 C49.98623538 46.59867919 49.98623538 46.59867919 53.15234375 45.015625 C59.37088284 44.43983434 59.37088284 44.43983434 62.20333862 46.52682495 C64.76214447 49.79431564 65.80931077 53.22707505 66.96142578 57.14892578 C67.33787231 58.37393295 67.33787231 58.37393295 67.72192383 59.62368774 C68.54632689 62.31603647 69.35301386 65.0133693 70.16015625 67.7109375 C70.73129031 69.58412208 71.30372709 71.45690992 71.87741089 73.32931519 C73.38335302 78.25396773 74.87519515 83.18276777 76.36303711 88.11291504 C78.74850227 96.01233993 81.15100486 103.90655143 83.56161118 111.79833603 C84.40183779 114.55861006 85.23344113 117.32137897 86.0642395 120.08450317 C86.57655428 121.77012773 87.08914304 123.45566906 87.60205078 125.14111328 C87.94651749 126.29909424 87.94651749 126.29909424 88.29794312 127.48046875 C89.53821993 131.63262978 89.53821993 131.63262978 92.15234375 135.015625 C92.62655762 134.32936035 93.10077148 133.6430957 93.58935547 132.93603516 C95.35072391 130.38915078 97.11393986 127.8435589 98.87841797 125.29882812 C100.01673247 123.65593988 101.15290788 122.01157018 102.2890625 120.3671875 C103.00449219 119.3359375 103.71992188 118.3046875 104.45703125 117.2421875 C105.11687012 116.28908691 105.77670898 115.33598633 106.45654297 114.35400391 C108.15234375 112.015625 108.15234375 112.015625 110.15234375 110.015625 C115.72856326 109.47599085 115.72856326 109.47599085 118.15234375 110.015625 C121.4678077 112.90658404 123.51940264 116.04084888 125.68359375 119.84765625 C126.32941406 120.97623047 126.97523438 122.10480469 127.640625 123.26757812 C128.31135332 124.45433927 128.98192512 125.64118888 129.65234375 126.828125 C130.32232596 128.00359209 130.99289397 129.1787255 131.6640625 130.35351562 C132.90716146 132.53328096 134.14769695 134.71451177 135.38476562 136.89770508 C137.29931697 140.27487844 139.22627598 143.6450064 141.15234375 147.015625 C156.99234375 147.015625 172.83234375 147.015625 189.15234375 147.015625 C202.71545981 114.01879039 211.15521255 79.28163307 196.9453125 44.93359375 C192.04468601 33.84153841 185.21511009 24.04110971 177.15234375 15.015625 C176.3634375 14.10296875 176.3634375 14.10296875 175.55859375 13.171875 C158.63864235 -5.12929692 134.2853304 -14.57054843 109.82421875 -16.20703125 C74.54742168 -17.15048047 38.41930926 -0.51580748 10.1328125 19.3984375 C6.63177991 21.29808035 5.07223942 21.70853585 1.15234375 21.015625 C-1.58730852 19.63648032 -4.03379557 17.90825712 -6.53515625 16.140625 C-52.35790851 -14.72786081 -116.65270902 -32.90535755 -161.84765625 9.015625 Z M56.15234375 82.015625 C53.25476955 91.848446 50.35925244 101.68187181 47.46484375 111.515625 C47.24468597 112.26355946 47.0245282 113.01149391 46.79769897 113.78209305 C41.27347698 132.55033564 35.7638433 151.32273864 30.2890625 170.10546875 C29.93206992 171.33014547 29.93206992 171.33014547 29.56786537 172.57956314 C27.24962676 180.53307667 24.93303433 188.48706731 22.61943531 196.44193172 C21.76020537 199.39565711 20.90023836 202.34916763 20.04015541 205.30264473 C19.45816636 207.30229018 18.87727337 209.30225164 18.2964325 211.30223083 C17.5937486 213.71513142 16.88714912 216.12689629 16.17602539 218.537323 C15.47373432 220.92359265 14.783427 223.31341221 14.10327148 225.70608521 C13.76303955 226.87307953 13.42280762 228.04007385 13.07226562 229.24243164 C12.62554504 230.80206383 12.62554504 230.80206383 12.1697998 232.39320374 C11.14394062 235.03728348 10.42099334 236.34662356 8.15234375 238.015625 C4.77734375 238.515625 4.77734375 238.515625 1.15234375 238.015625 C-3.15725696 234.49268753 -5.13842604 230.74288505 -6.984375 225.61328125 C-7.26097961 224.8805751 -7.53758423 224.14786896 -7.8225708 223.39295959 C-8.42262976 221.79896348 -9.0165334 220.20263956 -9.60494995 218.60430908 C-10.88848515 215.11858102 -12.2021556 211.64443045 -13.51344299 208.16906738 C-14.21214378 206.31606063 -14.90924593 204.4624504 -15.60484314 202.60827637 C-19.55885851 192.07747996 -23.67113527 181.60969631 -27.78515625 171.140625 C-29.29502495 167.29326433 -30.80388815 163.4455099 -32.3125 159.59765625 C-32.68541672 158.64688202 -33.05833344 157.69610779 -33.44255066 156.71652222 C-36.13527088 149.84664043 -38.80937807 142.96967466 -41.4765625 136.08984375 C-42.58011124 133.24707704 -43.68386264 130.40438908 -44.78762817 127.56170654 C-45.48932488 125.75218355 -46.18976264 123.94217181 -46.8888855 122.13165283 C-47.85113947 119.63991168 -48.81769567 117.1498795 -49.78515625 114.66015625 C-50.20886253 113.5573658 -50.20886253 113.5573658 -50.64112854 112.43229675 C-51.83422958 109.372425 -53.01727667 106.76119436 -54.84765625 104.015625 C-55.18511871 104.69499115 -55.52258118 105.3743573 -55.87026978 106.0743103 C-59.07242213 112.51891525 -62.27855416 118.96151789 -65.48902321 125.40198326 C-67.13887932 128.71207254 -68.78725927 132.02287882 -70.43212891 135.33544922 C-72.02359009 138.54031896 -73.61910704 141.74314072 -75.2172966 144.94466019 C-76.11388898 146.74326495 -77.00641555 148.54389469 -77.89883423 150.34457397 C-87.36155956 169.27257665 -87.36155956 169.27257665 -90.84765625 171.015625 C-93.1855196 171.13690793 -95.52683335 171.19317456 -97.86767578 171.22094727 C-98.58973206 171.23084686 -99.31178833 171.24074646 -100.0557251 171.25094604 C-102.44727273 171.28258531 -104.83884024 171.30732799 -107.23046875 171.33203125 C-108.88671389 171.35259869 -110.54295376 171.3735951 -112.19918823 171.39500427 C-116.56227349 171.45024667 -120.92540629 171.49964637 -125.28857422 171.54785156 C-129.73930094 171.59805077 -134.18995848 171.65374507 -138.640625 171.70898438 C-147.37624361 171.81659247 -156.11192004 171.91803153 -164.84765625 172.015625 C-163.89830011 173.44820161 -162.94780097 174.88002081 -161.99682617 176.31152344 C-161.20304817 177.50766266 -161.20304817 177.50766266 -160.39323425 178.72796631 C-147.30386553 198.1019533 -130.78440639 215.27208043 -114.2734375 231.72021484 C-112.58084278 233.40738458 -110.89375028 235.09992696 -109.20703125 236.79296875 C-103.58991243 242.41393663 -97.92818896 247.89135278 -91.84765625 253.015625 C-90.69446793 254.01204422 -89.54210774 255.00942276 -88.390625 256.0078125 C-59.10407376 281.21006784 -28.03978638 303.69856424 4.15234375 325.015625 C23.77939687 312.73790895 42.81567132 299.6213481 61.0859375 285.3984375 C63.67887439 283.38354386 66.29340206 281.40121079 68.9152832 279.42431641 C75.0598925 274.76956316 80.9155554 269.84238003 86.70874023 264.75805664 C90.27289812 261.6315459 93.87953247 258.59441104 97.58984375 255.640625 C109.15207432 246.23464007 119.66749457 235.58674462 130.21484375 225.078125 C131.0951123 224.2025293 131.97538086 223.32693359 132.88232422 222.42480469 C137.84554942 217.44924967 142.6116838 212.37913031 147.15234375 207.015625 C147.69947021 206.37520264 148.24659668 205.73478027 148.81030273 205.07495117 C155.40907759 197.30628364 161.76799748 189.40435775 167.65234375 181.078125 C168.11987061 180.41756104 168.58739746 179.75699707 169.0690918 179.07641602 C172.68536429 173.87361639 175.94255077 168.47661441 179.15234375 163.015625 C178.59746277 163.00531754 178.04258179 162.99501007 177.47088623 162.98439026 C171.69580573 162.87621184 165.92087768 162.76162305 160.14599609 162.64331055 C157.9907551 162.59999809 155.83548061 162.55832037 153.68017578 162.51831055 C150.58225408 162.46051882 147.48450041 162.39684977 144.38671875 162.33203125 C143.42304382 162.31531876 142.4593689 162.29860626 141.4664917 162.28138733 C140.56585999 162.26144211 139.66522827 162.24149689 138.73730469 162.22094727 C137.94676697 162.20540298 137.15622925 162.1898587 136.34173584 162.17384338 C134.13494477 162.01436765 132.24107165 161.75126003 130.15234375 161.015625 C129.08789062 158.7800293 129.08789062 158.7800293 128.15234375 156.015625 C127.19512416 154.2541592 126.20316738 152.51127928 125.18359375 150.78515625 C124.61253906 149.81771484 124.04148437 148.85027344 123.453125 147.85351562 C122.85886719 146.85513672 122.26460938 145.85675781 121.65234375 144.828125 C121.05808594 143.81814453 120.46382813 142.80816406 119.8515625 141.76757812 C116.90566932 136.5863911 116.90566932 136.5863911 113.15234375 132.015625 C112.46458862 133.06689575 112.46458862 133.06689575 111.76293945 134.1394043 C110.04373429 136.76105659 108.31919146 139.37909487 106.59106445 141.99487305 C105.48303974 143.67552532 104.38111482 145.36019399 103.27929688 147.04492188 C102.2206543 148.6449707 102.2206543 148.6449707 101.140625 150.27734375 C100.49649658 151.25662842 99.85236816 152.23591309 99.1887207 153.24487305 C96.0855497 157.46713509 93.7187861 160.57592189 88.58984375 162.015625 C85.15234375 162.015625 85.15234375 162.015625 83.10357666 160.97868347 C80.39410865 158.25279457 79.56019878 155.20310169 78.49511719 151.60668945 C78.26044739 150.85522644 78.02577759 150.10376343 77.78399658 149.32952881 C77.01325252 146.84988583 76.26246848 144.36466855 75.51171875 141.87890625 C74.98056945 140.15645834 74.44818357 138.4343913 73.91461182 136.71269226 C72.51475732 132.18397852 71.1317603 127.65028605 69.75219727 123.11535645 C68.34102654 118.48719483 66.9139927 113.86393297 65.48828125 109.24023438 C62.69407804 100.17009269 59.91765722 91.09461279 57.15234375 82.015625 C56.82234375 82.015625 56.49234375 82.015625 56.15234375 82.015625 Z " fill="#000000" transform="translate(253.84765625,100.984375)"/>
</svg>
