<?xml version="1.0" encoding="UTF-8"?>
<svg version="1.1" xmlns="http://www.w3.org/2000/svg" width="512" height="512">
<path d="M0 0 C11.69751584 8.05791251 19.79570122 19.56360518 22.734375 33.59765625 C23.66484768 40.95769514 23.80589517 48.43525067 22.125 55.6875 C23.22714844 55.64109375 24.32929688 55.5946875 25.46484375 55.546875 C52.29041098 54.76236214 76.25307988 64.71913101 96.125 82.6875 C114.45498183 100.52133195 126.19805839 124.84477672 126.57910156 150.61572266 C126.59310497 153.69516938 126.55756141 156.77244649 126.515625 159.8515625 C126.508135 161.50734767 126.5024552 163.16314189 126.49847412 164.81893921 C126.48343416 169.1097603 126.44434882 173.40001184 126.3996582 177.69061279 C126.358229 182.09574689 126.34036299 186.50097592 126.3203125 190.90625 C126.2778255 199.50025706 126.2098489 208.09380707 126.125 216.6875 C127.0755426 216.68083817 128.02608521 216.67417633 129.00543213 216.66731262 C138.00793707 216.60622891 147.0103994 216.56139738 156.01306534 216.53206348 C160.64030921 216.51647515 165.26738441 216.49536328 169.89453125 216.46118164 C174.36846298 216.42834248 178.8422335 216.41059575 183.31627655 216.40286827 C185.01452925 216.39736848 186.71277415 216.38663006 188.41095734 216.37030983 C206.58800041 216.20272984 221.20321236 219.27066824 234.8359375 232.2109375 C246.35713192 244.6758475 248.75590448 258.55602102 248.69140625 274.90625 C248.69665255 276.53861849 248.70293268 278.17098394 248.71018982 279.80334473 C248.72052348 283.19879594 248.71612703 286.59382606 248.70141602 289.98925781 C248.68411245 294.33849425 248.70790041 298.68642372 248.74290562 303.03551483 C248.76484542 306.39502697 248.76344869 309.75422344 248.7551403 313.11378479 C248.75432131 314.71815947 248.76117486 316.32255742 248.77591133 317.92686462 C248.79332484 320.16235864 248.77885357 322.39546195 248.75610352 324.63085938 C248.75466087 326.53514709 248.75466087 326.53514709 248.75318909 328.47790527 C248.125 331.6875 248.125 331.6875 246.02641201 333.86368561 C242.42783152 336.12573693 240.30011388 336.15005513 236.07421875 336.078125 C235.41541214 336.07246521 234.75660553 336.06680542 234.07783508 336.06097412 C231.98862784 336.03871239 229.90118227 335.9885433 227.8125 335.9375 C226.38999886 335.91742144 224.96747063 335.89917304 223.54492188 335.8828125 C220.0710492 335.83888359 216.59819675 335.76993096 213.125 335.6875 C213.12868717 336.45171894 213.13237434 337.21593788 213.13617325 338.00331497 C213.22447026 356.58944032 213.29068326 375.17552386 213.33224869 393.76181412 C213.35288316 402.74997739 213.3810206 411.73800075 213.42675781 420.72607422 C213.46659857 428.55912898 213.49242637 436.39208243 213.50135398 444.2252357 C213.50657345 448.37374711 213.5188592 452.52196866 213.54792023 456.67038727 C213.57504589 460.57411768 213.58345089 464.47743849 213.57743073 468.3812542 C213.57853225 469.81477267 213.58650347 471.24830467 213.6018219 472.68174171 C213.62170089 474.63768253 213.61455955 476.59384254 213.60601807 478.54986572 C213.60970524 479.64495579 213.61339241 480.74004585 213.61719131 481.86832047 C213.00684947 485.36424406 211.89708289 486.5394907 209.125 488.6875 C206.62084961 489.18870544 206.62084961 489.18870544 203.77734375 489.18920898 C202.17548218 489.20328041 202.17548218 489.20328041 200.54125977 489.21763611 C199.39326904 489.20640213 198.24527832 489.19516815 197.0625 489.18359375 C195.87906006 489.18504898 194.69562012 489.18650421 193.47631836 489.18800354 C190.97474709 489.18634388 188.47316568 489.17477529 185.97167969 489.15405273 C182.13953338 489.12510977 178.30877097 489.13344128 174.4765625 489.14648438 C172.04686827 489.14024674 169.61717841 489.13185561 167.1875 489.12109375 C166.03950928 489.12402939 164.89151855 489.12696503 163.70874023 489.12998962 C162.64083252 489.11730545 161.5729248 489.10462128 160.47265625 489.09155273 C159.53429932 489.08614975 158.59594238 489.08074677 157.62915039 489.07518005 C154.62242171 488.60969334 153.27120047 487.82932333 151.125 485.6875 C149.96981756 482.35697784 150.00173697 479.1656689 150.00474548 475.66375732 C150.00268349 473.8128096 150.00268349 473.8128096 150.00057983 471.92446899 C150.00411873 470.55999732 150.00775353 469.19552588 150.01147461 467.83105469 C150.01175673 466.39205935 150.01159826 464.95306386 150.0110321 463.5140686 C150.0107451 459.60945871 150.01662629 455.70487951 150.02360606 451.80027676 C150.0298556 447.71900526 150.03044467 443.63773306 150.03163147 439.55645752 C150.03474006 431.82881988 150.04294709 424.10119637 150.05298096 416.37356496 C150.06415675 407.57557624 150.06965625 398.77758685 150.07467639 389.9795928 C150.08513009 371.88221889 150.10346971 353.78486436 150.125 335.6875 C138.245 335.6875 126.365 335.6875 114.125 335.6875 C112.62929413 344.1604479 112.62929413 344.1604479 111.13720703 352.6340332 C110.13193109 358.29095257 109.10490403 363.93178975 107.8671875 369.54296875 C107.67801758 370.41147461 107.48884766 371.27998047 107.29394531 372.17480469 C106.94700031 373.73761439 106.58581154 375.29737678 106.20605469 376.85253906 C103.83266314 387.6173924 106.33048638 398.90939957 108.19140625 409.6015625 C108.59846468 412.01559847 109.00536088 414.42966179 109.41210938 416.84375 C110.04990499 420.58745051 110.69061856 424.3306208 111.3347168 428.07324219 C111.96133029 431.72725232 112.57688964 435.38300143 113.19140625 439.0390625 C113.48199669 440.69731552 113.48199669 440.69731552 113.77845764 442.3890686 C115.81022428 454.54058598 116.58588343 465.58425362 109.4296875 476.203125 C104.12703884 482.68652539 97.41857302 487.06728554 89.125 488.6875 C79.28563577 489.66027345 70.49724702 487.78937044 62.75 481.4375 C51.91440067 470.93428102 51.00125077 456.76149152 48.6796875 442.4609375 C48.46242351 441.13819252 48.24489866 439.81549037 48.02713013 438.49282837 C47.57574557 435.74533096 47.12733051 432.99737099 46.68115234 430.24902344 C46.11411905 426.7576194 45.53976964 423.26746595 44.96320915 419.77762413 C44.51419288 417.05490581 44.06898629 414.33157469 43.62488174 411.6080513 C43.31397427 409.70527328 43.00003597 407.80299127 42.68600464 405.90072632 C40.91054026 394.9143657 39.62880781 385.01461904 41.5625 374 C41.84216248 372.338943 42.12082349 370.6777172 42.39868164 369.01635742 C42.64078776 367.57340495 42.88289388 366.13045247 43.125 364.6875 C35.17075986 369.73599471 26.28643528 376.33997035 23.51438141 385.76322174 C21.18295973 397.54630897 22.135766 410.03017242 22.58996582 421.95776367 C22.81616173 428.4333647 22.89048052 434.91280432 22.97996521 441.39146423 C23.02761636 444.82750822 23.11750409 448.25812857 23.24330139 451.69215393 C23.57934132 462.69449244 22.65481556 471.79309371 14.82421875 480.15625 C7.60136964 486.66511633 -0.29130347 489.22185918 -9.97265625 488.99609375 C-19.88726708 487.94191575 -27.04487118 483.3555083 -33.40625 475.890625 C-39.53657384 467.8356646 -40.02587167 458.67408588 -40.02026367 448.8815918 C-40.02362228 448.02856476 -40.0269809 447.17553772 -40.03044128 446.29666138 C-40.03989374 443.49333211 -40.04189153 440.69006294 -40.04296875 437.88671875 C-40.04618534 435.92527747 -40.04954971 433.96383642 -40.05305481 432.00239563 C-40.05903184 427.89620406 -40.06089618 423.7900335 -40.06030273 419.68383789 C-40.0602012 414.4420379 -40.07385046 409.20037363 -40.09107494 403.95860577 C-40.10223523 399.90836477 -40.1042207 395.85815617 -40.10369301 391.80790138 C-40.10486716 389.87635646 -40.10925699 387.94481053 -40.11702538 386.01328087 C-40.18863963 366.36807574 -37.73539438 355.2732917 -24.73046875 339.9375 C-22.85526751 337.83472521 -22.85526751 337.83472521 -21.875 335.6875 C-53.885 335.6875 -85.895 335.6875 -118.875 335.6875 C-120.36 340.1425 -120.36 340.1425 -121.875 344.6875 C-122.47300948 346.2444495 -123.08964701 347.79466625 -123.7409668 349.33007812 C-124.07529221 350.12119995 -124.40961761 350.91232178 -124.7540741 351.72741699 C-126.28162664 355.28361107 -127.81024221 358.83922307 -129.35229492 362.38916016 C-130.15769443 364.2514739 -130.95558538 366.11705326 -131.74584961 367.98583984 C-142.22888205 392.77105067 -142.22888205 392.77105067 -154.015625 398.03125 C-158.42365006 399.58702355 -162.17761291 399.72297257 -166.875 399.6875 C-166.86611755 400.74350403 -166.85723511 401.79950806 -166.8480835 402.88751221 C-166.76703319 412.83431962 -166.70705168 422.78106013 -166.66775131 432.72812271 C-166.64686736 437.8421631 -166.61853484 442.95593713 -166.57324219 448.06982422 C-166.52981345 453.00408296 -166.50586898 457.93808535 -166.49549103 462.87252045 C-166.48809432 464.75603014 -166.47365039 466.63952564 -166.45207977 468.52292633 C-166.42308508 471.15914848 -166.41904231 473.79430838 -166.42089844 476.43066406 C-166.40651733 477.21109573 -166.39213623 477.9915274 -166.37731934 478.79560852 C-166.40341319 482.21569575 -166.62124013 484.31532815 -168.56915283 487.17219543 C-171.35351801 489.00196166 -172.90599018 489.18862166 -176.22265625 489.18920898 C-177.82451782 489.20328041 -177.82451782 489.20328041 -179.45874023 489.21763611 C-181.18072632 489.20078514 -181.18072632 489.20078514 -182.9375 489.18359375 C-184.12093994 489.18504898 -185.30437988 489.18650421 -186.52368164 489.18800354 C-189.02525291 489.18634388 -191.52683432 489.17477529 -194.02832031 489.15405273 C-197.86046662 489.12510977 -201.69122903 489.13344128 -205.5234375 489.14648438 C-207.95313173 489.14024674 -210.38282159 489.13185561 -212.8125 489.12109375 C-213.96049072 489.12402939 -215.10848145 489.12696503 -216.29125977 489.12998962 C-217.35916748 489.11730545 -218.4270752 489.10462128 -219.52734375 489.09155273 C-220.46570068 489.08614975 -221.40405762 489.08074677 -222.37084961 489.07518005 C-225.37757829 488.60969334 -226.72879953 487.82932333 -228.875 485.6875 C-230.03018244 482.35697784 -229.99826303 479.1656689 -229.99525452 475.66375732 C-229.99662918 474.42979218 -229.99800385 473.19582703 -229.99942017 471.92446899 C-229.99588127 470.55999732 -229.99224647 469.19552588 -229.98852539 467.83105469 C-229.98824327 466.39205935 -229.98840174 464.95306386 -229.9889679 463.5140686 C-229.9892549 459.60945871 -229.98337371 455.70487951 -229.97639394 451.80027676 C-229.9701444 447.71900526 -229.96955533 443.63773306 -229.96836853 439.55645752 C-229.96525994 431.82881988 -229.95705291 424.10119637 -229.94701904 416.37356496 C-229.93584325 407.57557624 -229.93034375 398.77758685 -229.92532361 389.9795928 C-229.91486992 371.88222052 -229.8972796 353.78486139 -229.875 335.6875 C-230.73254883 335.69797363 -231.59009766 335.70844727 -232.47363281 335.71923828 C-235.66421513 335.75338296 -238.85470412 335.77842959 -242.04541016 335.79736328 C-243.42467315 335.80740253 -244.80391496 335.82103677 -246.18310547 335.83837891 C-248.1688514 335.86271754 -250.1547545 335.87293255 -252.140625 335.8828125 C-253.33461914 335.89328613 -254.52861328 335.90375977 -255.75878906 335.91455078 C-258.75559296 335.69620014 -260.41089642 335.35784267 -262.875 333.6875 C-264.29353911 330.85042179 -264.02585845 328.4381926 -264.05200195 325.26586914 C-264.05857315 324.60715317 -264.06514435 323.94843719 -264.07191467 323.26976013 C-264.0916451 321.08739106 -264.10330789 318.90509069 -264.11328125 316.72265625 C-264.11735678 315.97802061 -264.1214323 315.23338497 -264.12563133 314.46618462 C-264.14648825 310.52701977 -264.16079312 306.58788976 -264.17016602 302.64868164 C-264.1812464 298.57506456 -264.21566533 294.50199136 -264.25533772 290.42856693 C-264.28144427 287.29991113 -264.28985235 284.1713863 -264.29344749 281.04263115 C-264.29832682 279.54067742 -264.30997905 278.03873004 -264.32848549 276.5368824 C-264.3527585 274.43698697 -264.35193519 272.33851727 -264.3449707 270.23852539 C-264.35083694 269.04320694 -264.35670319 267.84788849 -264.36274719 266.61634827 C-263.875 263.6875 -263.875 263.6875 -261.99308777 261.81004333 C-259.60220389 260.54292362 -257.81470613 260.19777251 -255.125 260 C-254.32578125 259.93425781 -253.5265625 259.86851562 -252.703125 259.80078125 C-252.09984375 259.76339844 -251.4965625 259.72601563 -250.875 259.6875 C-251.32230469 259.17703125 -251.76960937 258.6665625 -252.23046875 258.140625 C-263.3421042 244.77823183 -265.27711801 230.50034106 -263.875 213.6875 C-261.70308127 200.79499043 -253.73330181 190.10061547 -243.453125 182.40625 C-230.17418411 173.55362274 -215.72100018 171.62032965 -200.13671875 174.33984375 C-186.98880794 178.00866198 -176.50727395 185.7708321 -169.20703125 197.328125 C-168.03100015 199.42323923 -166.91565154 201.52252645 -165.875 203.6875 C-165.23175781 203.22859375 -164.58851563 202.7696875 -163.92578125 202.296875 C-149.92657871 192.7909971 -137.28955366 192.08222643 -120.875 192.6875 C-120.689375 191.56794922 -120.689375 191.56794922 -120.5 190.42578125 C-118.62535056 182.21247339 -112.28763244 176.67996532 -105.875 171.6875 C-102.64179547 169.69008221 -99.29682105 168.05194355 -95.85546875 166.4453125 C-94.91681473 165.99203583 -93.97816071 165.53875916 -93.01106262 165.07174683 C-90.03468212 163.63800284 -87.04915685 162.22469168 -84.0625 160.8125 C-82.10414642 159.87509904 -80.14645876 158.93630555 -78.18945312 157.99609375 C-77.22499268 157.53339081 -76.26053223 157.07068787 -75.2668457 156.59396362 C-73.32887326 155.6629446 -71.39169492 154.73027074 -69.45532227 153.79592896 C-64.72842325 151.51828934 -59.99121764 149.2798984 -55.20898438 147.12060547 C-42.12693223 141.11623737 -42.12693223 141.11623737 -34 129.5625 C-33.0002819 127.65021274 -31.99891289 125.73878787 -30.99609375 123.828125 C-30.49964355 122.83619141 -30.00319336 121.84425781 -29.49169922 120.82226562 C-26.58422663 115.18470174 -23.29471721 109.76803897 -20.0625 104.3125 C-18.86663869 102.26410027 -17.67245715 100.21471834 -16.48046875 98.1640625 C-15.97668701 97.29861816 -15.47290527 96.43317383 -14.95385742 95.54150391 C-14.419823 94.62377197 -14.419823 94.62377197 -13.875 93.6875 C-14.61814453 93.84758545 -15.36128906 94.0076709 -16.12695312 94.17260742 C-30.71462381 96.90585169 -45.25135559 94.34945592 -57.67578125 86.2265625 C-58.40152344 85.71867187 -59.12726563 85.21078125 -59.875 84.6875 C-60.48730469 84.28273438 -61.09960938 83.87796875 -61.73046875 83.4609375 C-72.8333476 75.17824069 -77.76279085 61.83635166 -79.875 48.6875 C-81.58488265 36.37634492 -77.2128372 22.52445567 -69.875 12.6875 C-69.36195313 11.98238281 -68.84890625 11.27726562 -68.3203125 10.55078125 C-52.07559527 -9.85227269 -21.58438556 -12.9857279 0 0 Z M-56.19921875 20.62109375 C-63.56250035 29.70075801 -64.71949489 39.34714011 -63.875 50.6875 C-61.66891667 61.05343371 -56.14171516 68.7925489 -47.375 74.625 C-38.23947639 79.96538728 -28.45954878 81.51861191 -18.02734375 79 C-7.75332352 75.18892604 0.81258539 68.05828318 5.4375 58.0625 C9.38533029 48.31578206 9.23750571 38.4023248 5.125 28.6875 C-0.01611727 18.9177756 -7.46033149 12.32871869 -17.875 8.6875 C-32.20270916 4.33958011 -46.1801419 10.33543393 -56.19921875 20.62109375 Z M14.50390625 76.44140625 C9.05292913 83.74859141 4.83905872 92.06137665 0.36328125 99.98828125 C-3.31674532 106.49259189 -7.10682916 112.92943216 -10.93676758 119.34643555 C-13.7880898 124.12818515 -16.58593005 128.93049936 -19.3046875 133.7890625 C-20.1546228 135.28578491 -20.1546228 135.28578491 -21.02172852 136.81274414 C-22.10031951 138.71462428 -23.16433619 140.6248748 -24.21069336 142.54467773 C-24.70448486 143.40778564 -25.19827637 144.27089355 -25.70703125 145.16015625 C-26.12702393 145.91562744 -26.5470166 146.67109863 -26.97973633 147.44946289 C-32.24360482 153.66534367 -40.94398494 156.85628039 -48.1015625 160.3984375 C-49.16684174 160.92966217 -50.23212097 161.46088684 -51.3296814 162.00820923 C-54.71791461 163.69676597 -58.10888403 165.37974141 -61.5 167.0625 C-63.7540921 168.18452255 -66.00800005 169.30691512 -68.26171875 170.4296875 C-69.35804626 170.97546448 -70.45437378 171.52124146 -71.58392334 172.08355713 C-73.74638505 173.16052664 -75.90837984 174.23843424 -78.06988525 175.31732178 C-82.51159223 177.53167453 -86.95390218 179.73803383 -91.44042969 181.86035156 C-92.41887344 182.32920273 -92.41887344 182.32920273 -93.41708374 182.80752563 C-95.04501057 183.58483501 -96.67915991 184.34907894 -98.31396484 185.11181641 C-102.36845735 187.60635355 -105.15447259 191.2558385 -106.875 195.6875 C-107.57577817 200.62554153 -107.43058401 204.57633198 -105.1875 209.0625 C-100.9806799 213.8378093 -97.74479671 216.41058979 -91.3125 217.03125 C-85.85210113 216.93232973 -81.66224845 214.63086294 -76.875 212.1875 C-75.34576904 211.43049805 -75.34576904 211.43049805 -73.78564453 210.65820312 C-71.3339368 209.44081295 -68.88642369 208.21692673 -66.44238281 206.984375 C-61.97431136 204.73309727 -57.49407546 202.50663363 -53.01312256 200.28112793 C-43.39488241 195.50375334 -33.78199638 190.71556925 -24.1796875 185.90625 C-23.24510712 185.43993164 -22.31052673 184.97361328 -21.34762573 184.49316406 C-18.84882297 183.23940459 -16.35961425 181.96910792 -13.875 180.6875 C-13.19745667 180.34533447 -12.51991333 180.00316895 -11.82183838 179.65063477 C-5.52413321 176.30895268 -2.6799235 171.5875088 0.8125 165.55859375 C1.32194908 164.68386917 1.32194908 164.68386917 1.84169006 163.79147339 C2.93976803 161.90473816 4.03242161 160.01492427 5.125 158.125 C6.64257799 155.51188264 8.16286796 152.90034895 9.68359375 150.2890625 C10.06035751 149.64135391 10.43712128 148.99364532 10.82530212 148.3263092 C14.70532696 141.66749314 18.68735292 135.07070126 22.72070312 128.50366211 C23.17509766 127.75608643 23.62949219 127.00851074 24.09765625 126.23828125 C24.68945679 125.27402222 24.68945679 125.27402222 25.29321289 124.2902832 C26.27854297 122.6925964 26.27854297 122.6925964 26.125 120.6875 C31.64064161 119.5055768 35.04685177 119.3650211 39.984375 122.203125 C51.36658567 130.09589882 58.453052 139.999708 61.8125 153.4375 C62.74349384 163.11983588 61.76996776 172.19187129 60.19238281 181.74462891 C59.53109675 185.76810693 58.92315839 189.59179742 59.125 193.6875 C60.25035156 193.90664062 61.37570312 194.12578125 62.53515625 194.3515625 C79.0820357 197.71242079 92.69421692 203.3989293 106.78369141 212.79296875 C108.00229355 213.60544067 108.00229355 213.60544067 109.24551392 214.43432617 C110.17585953 215.05464722 110.17585953 215.05464722 111.125 215.6875 C111.21838604 206.44588188 111.28910821 197.20443044 111.33224869 187.96244049 C111.35297188 183.66928741 111.38100356 179.37646116 111.42675781 175.08349609 C111.47076913 170.92723968 111.4942513 166.77129416 111.50450897 162.61482239 C111.51180266 161.04265967 111.52603956 159.47051064 111.54792023 157.89848328 C111.73185371 144.11381185 110.05631168 130.71481785 103.375 118.375 C103.02993408 117.71604736 102.68486816 117.05709473 102.3293457 116.37817383 C91.03316048 95.33726583 73.70612948 80.93576378 51.125 73.6875 C31.63519413 68.47568136 31.63519413 68.47568136 14.50390625 76.44140625 Z M34.125 137.6875 C32.97662536 139.5818274 31.8310649 141.477768 30.6875 143.375 C30.3049707 144.00913818 29.92244141 144.64327637 29.52832031 145.29663086 C26.61471346 150.14951767 23.75668651 155.03280101 20.91796875 159.9296875 C20.16407936 161.22702649 19.4100908 162.52430786 18.65600586 163.8215332 C17.51928484 165.77702596 16.38449639 167.73350645 15.25588989 169.69369507 C14.18086066 171.56049678 13.09884642 173.4230993 12.015625 175.28515625 C11.07251465 176.91723022 11.07251465 176.91723022 10.11035156 178.58227539 C7.3306577 182.92990528 4.34591461 187.34086533 -0.1875 190 C-1.074375 190.556875 -1.96125 191.11375 -2.875 191.6875 C-2.875 192.0175 -2.875 192.3475 -2.875 192.6875 C12.635 192.6875 28.145 192.6875 44.125 192.6875 C44.785 188.583125 45.445 184.47875 46.125 180.25 C46.33382812 178.97455322 46.54265625 177.69910645 46.7578125 176.38500977 C48.79901237 163.3996981 49.00383793 153.24085127 41.125 142.0625 C39.00915715 139.24520925 37.62487268 138.24566935 34.125 137.6875 Z M-241.875 201.6875 C-247.67415818 209.68160837 -250.30269051 218.48978172 -249.71484375 228.3828125 C-248.30071011 237.1422034 -244.02231703 246.57612099 -237.01171875 252.17578125 C-228.20170269 258.48206273 -218.78734107 262.15153469 -207.875 260.6875 C-197.56040533 258.44980231 -189.57034153 253.92105509 -183.5 245.1875 C-178.09035749 236.25634505 -175.60140169 227.71617068 -177.5 217.23828125 C-180.49360398 206.49872698 -186.25515461 198.16219344 -195.95703125 192.46484375 C-211.78325473 184.27279115 -230.270673 188.24486378 -241.875 201.6875 Z M-149.875 211.6875 C-150.83599609 212.35845703 -150.83599609 212.35845703 -151.81640625 213.04296875 C-157.05563824 217.12278823 -160.57117598 222.07362466 -161.875 228.6875 C-161.94950671 230.06591029 -161.97448627 231.44757357 -161.959198 232.82791138 C-161.95309006 233.64566544 -161.94698212 234.46341949 -161.94068909 235.30595398 C-161.92916306 236.1951503 -161.91763702 237.08434662 -161.90576172 238.00048828 C-161.88964973 239.95793339 -161.87395307 241.91538195 -161.85861206 243.87283325 C-161.84907375 244.91156712 -161.83953545 245.95030098 -161.8297081 247.02051163 C-161.77778504 253.73859807 -161.78391225 260.45694841 -161.77834892 267.17520332 C-161.77019467 273.04869381 -161.7430332 278.920845 -161.67285156 284.79394531 C-161.11918397 333.64443799 -161.11918397 333.64443799 -172.45147705 353.11077881 C-178.12364212 363.37157349 -178.12364212 363.37157349 -178.875 374.6875 C-176.43989342 379.46405522 -173.65155522 382.25239342 -168.875 384.6875 C-165.10126049 385.15094169 -162.74508342 385.06039289 -159.25 383.5625 C-153.59988127 379.10187995 -150.7723381 373.93632442 -148.0625 367.4296875 C-147.72629639 366.64538361 -147.39009277 365.86107971 -147.04370117 365.05300903 C-145.97782247 362.56015336 -144.9262639 360.06154869 -143.875 357.5625 C-143.17020036 355.90845778 -142.4644786 354.25480816 -141.7578125 352.6015625 C-139.30651809 346.86054397 -139.30651809 346.86054397 -136.90634155 341.09806824 C-136.16580196 339.36719526 -135.37238423 337.65859023 -134.54605103 335.96699524 C-130.75585473 327.86814792 -130.18130782 320.92943047 -130.2734375 312.05859375 C-130.26792219 310.69286337 -130.25978402 309.32714136 -130.24917603 307.96144104 C-130.22652896 304.40661314 -130.230426 300.8524063 -130.24298096 297.29754639 C-130.26145874 291.57827034 -130.25134571 285.85934439 -130.21712112 280.14015388 C-130.21102885 278.15092179 -130.22491522 276.16166091 -130.23910522 274.17247009 C-130.23362167 272.3689785 -130.23362167 272.3689785 -130.22802734 270.52905273 C-130.23200531 269.47048569 -130.23598328 268.41191864 -130.24008179 267.3212738 C-129.875 264.6875 -129.875 264.6875 -128.72566861 263.04693669 C-126.0851945 261.1073364 -124.15834173 261.30841903 -120.89922047 261.30273914 C-119.64270831 261.2932826 -118.38619615 261.28382606 -117.09160787 261.27408296 C-115.68947372 261.27871315 -114.28734046 261.28361968 -112.88520813 261.28877258 C-111.4018104 261.28333673 -109.91841699 261.27658668 -108.43503064 261.26863068 C-104.34859356 261.25053817 -100.26233756 261.2511706 -96.17586982 261.25476015 C-91.77298829 261.25538213 -87.37016852 261.23878146 -82.96731567 261.22424316 C-75.33569703 261.20141441 -67.70412416 261.1895647 -60.07247353 261.18511391 C-49.03831951 261.17866299 -38.0042484 261.1557443 -26.97012772 261.12877061 C-9.06920812 261.08545937 8.831708 261.05551741 26.73266602 261.03393555 C44.12461052 261.01293884 61.51652651 260.98567519 78.90844727 260.94995117 C79.97999051 260.94775235 81.05153375 260.94555352 82.155548 260.94328807 C87.53101789 260.93221874 92.90648752 260.92102587 98.28195703 260.90977156 C142.89627954 260.81652508 187.51061801 260.74495559 232.125 260.6875 C230.84346971 250.73606936 226.08035407 244.84199788 218.5 238.4140625 C212.78817335 234.26171484 206.17670342 231.52277445 199.06242371 231.603302 C198.2624295 231.60940994 197.4624353 231.61551788 196.63819885 231.62181091 C195.76912399 231.63333694 194.90004913 231.64486298 194.00463867 231.65673828 C192.09222227 231.67284383 190.1798024 231.6885411 188.26737976 231.70388794 C187.25400732 231.71342625 186.24063488 231.72296455 185.19655418 231.7327919 C178.67517157 231.78453266 172.15352348 231.77857572 165.6319685 231.78415108 C159.91397029 231.79234437 154.19733881 231.81990659 148.47973633 231.88964844 C142.9372284 231.95611953 137.39688736 231.96801242 131.85405922 231.94439316 C129.75350667 231.94499927 127.65285943 231.96481417 125.55269432 232.00516129 C111.52012492 232.26082096 103.2409377 230.5209406 92.73736 221.01704025 C80.8471433 211.2124546 63.52469244 207.78755686 48.54150391 207.2565918 C47.27594414 207.20818398 47.27594414 207.20818398 45.9848175 207.15879822 C38.10114848 206.87308261 30.21518355 206.70352284 22.32761574 206.56912518 C17.06364486 206.47727012 11.80696677 206.34899632 6.546875 206.1237793 C-22.97049716 204.89254447 -44.62516598 208.5986973 -69.99792862 224.33212471 C-79.37898895 230.08852347 -88.92219547 232.54210659 -99.83984375 229.99609375 C-110.94160643 226.35642121 -115.42937378 220.45978536 -120.58984375 210.3203125 C-121.22599609 209.01707031 -121.22599609 209.01707031 -121.875 207.6875 C-136.5546059 206.60478955 -136.5546059 206.60478955 -149.875 211.6875 Z M-249.875 275.6875 C-249.875 290.5375 -249.875 305.3875 -249.875 320.6875 C-225.785 320.6875 -201.695 320.6875 -176.875 320.6875 C-176.875 305.8375 -176.875 290.9875 -176.875 275.6875 C-200.965 275.6875 -225.055 275.6875 -249.875 275.6875 Z M-115.875 275.6875 C-115.875 290.5375 -115.875 305.3875 -115.875 320.6875 C-0.705 320.6875 114.465 320.6875 233.125 320.6875 C233.125 305.8375 233.125 290.9875 233.125 275.6875 C117.955 275.6875 2.785 275.6875 -115.875 275.6875 Z M-214.875 335.6875 C-214.875 381.2275 -214.875 426.7675 -214.875 473.6875 C-203.985 473.6875 -193.095 473.6875 -181.875 473.6875 C-181.69383615 463.54267258 -181.54725211 453.39892947 -181.46050262 443.25284672 C-181.41885439 438.5409158 -181.36242027 433.83015438 -181.27148438 429.11889648 C-181.1841816 424.56707308 -181.13664799 420.01637011 -181.11598206 415.46377373 C-181.10126683 413.73218596 -181.07252972 412.00065551 -181.02915955 410.26954842 C-180.53853024 398.96539774 -180.53853024 398.96539774 -185.79882812 389.32202148 C-186.51107544 388.70060776 -187.22332275 388.07919403 -187.95715332 387.43894958 C-192.55109076 383.24359346 -193.06473206 376.9871309 -193.4375 371.0625 C-193.25614343 363.93518676 -190.57959263 357.91288464 -187.70068359 351.52587891 C-186.41529986 348.66398076 -185.2097926 345.76948945 -184 342.875 C-183.59007812 341.91980469 -183.18015625 340.96460938 -182.7578125 339.98046875 C-181.75523378 337.78593307 -181.75523378 337.78593307 -181.875 335.6875 C-192.765 335.6875 -203.655 335.6875 -214.875 335.6875 Z M-10.25488281 344.63623047 C-10.78952148 345.64314941 -11.32416016 346.65006836 -11.875 347.6875 C-12.79333737 348.91618225 -13.73422351 350.12902283 -14.71484375 351.30859375 C-15.40707031 352.23800781 -16.09929687 353.16742188 -16.8125 354.125 C-17.52277344 355.07246094 -18.23304688 356.01992188 -18.96484375 356.99609375 C-23.93890657 364.00453809 -25.02506037 368.66055356 -25.02026367 377.20043945 C-25.02362228 378.05784729 -25.0269809 378.91525513 -25.03044128 379.79864502 C-25.03993875 382.63270518 -25.04189388 385.46670617 -25.04296875 388.30078125 C-25.04618248 390.27369715 -25.04954664 392.2466128 -25.05305481 394.2195282 C-25.05904328 398.35623731 -25.06089503 402.49292553 -25.06030273 406.62963867 C-25.0602012 411.92226515 -25.0738458 417.21475722 -25.09107494 422.50735188 C-25.10221151 426.58321239 -25.10422142 430.65904061 -25.10369301 434.73491478 C-25.10487091 436.68568573 -25.10928205 438.63645758 -25.11702538 440.58721352 C-25.1268574 443.32036278 -25.12393439 446.05322272 -25.11791992 448.78637695 C-25.12353943 449.58714157 -25.12915894 450.38790619 -25.13494873 451.2129364 C-25.10007634 457.47079324 -24.25735874 462.63370987 -20.6875 467.9375 C-16.63438743 471.90054341 -13.01157418 473.37672557 -7.4375 474.1875 C-1.52090852 473.3571012 2.48445237 470.72507586 6.21127319 466.09632874 C8.46021706 462.09039411 8.68805933 458.93427436 8.63916016 454.46655273 C8.64628525 453.66416168 8.65341034 452.86177063 8.66075134 452.0350647 C8.67996717 449.39682079 8.67176576 446.75938397 8.6640625 444.12109375 C8.67397303 442.28075494 8.68591564 440.44042605 8.69979858 438.60011292 C8.7321267 433.7638018 8.74254983 428.92771712 8.74664307 424.09130859 C8.75540696 416.34721324 8.79092217 408.60330354 8.8388176 400.85936165 C8.85139188 398.15775222 8.8506458 395.45637822 8.84854126 392.75474548 C8.85512252 391.0961794 8.86212896 389.43761492 8.86962891 387.77905273 C8.86550491 387.03034409 8.86138092 386.28163544 8.85713196 385.51023865 C8.90783534 378.94886966 10.18723328 375.23340906 14.84033203 370.64746094 C15.60096954 369.89027771 16.36160706 369.13309448 17.14529419 368.35296631 C17.96617523 367.55070618 18.78705627 366.74844604 19.6328125 365.921875 C20.47343231 365.0878717 21.31405212 364.25386841 22.18014526 363.39459229 C24.86309378 360.73503769 27.55600804 358.08586364 30.25 355.4375 C32.94936143 352.77313295 35.64659692 350.10666146 38.34127808 347.43756104 C40.01859895 345.77729916 41.69898134 344.12012385 43.38259888 342.46624756 C44.13693207 341.72167297 44.89126526 340.97709839 45.66845703 340.20996094 C46.33749054 339.55219666 47.00652405 338.89443237 47.6958313 338.21673584 C49.23879977 336.91458294 49.23879977 336.91458294 49.125 335.6875 C42.04605739 335.38163475 34.96883196 335.17246165 27.88476562 335.02832031 C25.47884469 334.96820461 23.07335801 334.88648116 20.66894531 334.78222656 C2.44036125 333.4730577 2.44036125 333.4730577 -10.25488281 344.63623047 Z M64.75195312 340.87011719 C61.06438647 347.25584936 59.35126281 353.90149005 57.875 361.0625 C57.59384338 362.38479111 57.59384338 362.38479111 57.30700684 363.73379517 C53.1818224 384.72084383 56.8130262 405.09396929 60.375 425.875 C60.51667099 426.70732903 60.65834198 427.53965805 60.80430603 428.39720917 C61.76626162 434.01713861 62.77812319 439.6263575 63.828125 445.23046875 C63.96293777 445.96182352 64.09775055 446.69317829 64.23664856 447.44669533 C66.37396127 460.73363758 66.37396127 460.73363758 74.1875 471.125 C78.73887934 473.54594646 81.9859303 474.10873522 87.125 473.6875 C92.94148294 471.78846173 96.20283081 469.18117807 99.125 463.6875 C102.01153858 455.02788425 98.592391 443.58607381 97.05859375 434.7734375 C96.65153532 432.35940153 96.24463912 429.94533821 95.83789062 427.53125 C95.20009501 423.78754949 94.55938144 420.0443792 93.9152832 416.30175781 C93.28866971 412.64774768 92.67311036 408.99199857 92.05859375 405.3359375 C91.86486679 404.23043549 91.67113983 403.12493347 91.47154236 401.9859314 C89.72611756 391.54695704 89.67791227 382.17062388 91.875 371.8203125 C92.14135254 370.49638992 92.14135254 370.49638992 92.41308594 369.14572144 C92.97374895 366.36583918 93.54839289 363.58911478 94.125 360.8125 C94.6995245 358.01410299 95.27092482 355.2151446 95.83691406 352.41500854 C96.18760611 350.68320801 96.54347526 348.95244531 96.90527344 347.22293091 C97.7022578 343.3169358 98.35198841 339.69931748 98.125 335.6875 C93.79258789 335.45360732 89.46181072 335.31255736 85.125 335.1875 C83.29388672 335.08695312 83.29388672 335.08695312 81.42578125 334.984375 C74.33163146 334.83098798 69.41067772 335.16255674 64.75195312 340.87011719 Z M165.125 335.6875 C165.125 381.2275 165.125 426.7675 165.125 473.6875 C176.015 473.6875 186.905 473.6875 198.125 473.6875 C198.125 428.1475 198.125 382.6075 198.125 335.6875 C187.235 335.6875 176.345 335.6875 165.125 335.6875 Z " fill="#000000" transform="translate(263.875,15.3125)"/>
</svg>
