<?xml version="1.0" encoding="UTF-8"?>
<svg version="1.1" xmlns="http://www.w3.org/2000/svg" width="512" height="512">
<path d="M0 0 C2.28721402 0.03447693 4.57058446 0.02057161 6.85791016 0.0012207 C16.06485017 0.0106252 22.53240085 0.72375034 29.84619141 6.84692383 C36.52051885 14.78396187 38.96879477 21.21842985 38.15869141 31.59692383 C36.88726647 38.67724433 33.54674901 43.87168284 28.15869141 48.59692383 C19.94294171 53.90037419 12.16191787 53.83557622 2.59619141 53.90942383 C1.3709375 53.93842773 0.14568359 53.96743164 -1.11669922 53.99731445 C-9.08700614 54.05251637 -15.6171792 53.07690985 -22.84130859 49.59692383 C-23.17130859 49.26692383 -23.50130859 48.93692383 -23.84130859 48.59692383 C-25.48361224 48.47237523 -27.13183136 48.42123859 -28.77880859 48.40942383 C-29.67470703 48.39524414 -30.57060547 48.38106445 -31.49365234 48.36645508 C-34.03245393 48.36497614 -34.03245393 48.36497614 -35.84130859 50.59692383 C-36.24190199 57.51574062 -35.33277699 64.03333587 -34.20825195 70.84887695 C-33.94714127 72.48239357 -33.94714127 72.48239357 -33.68075562 74.14891052 C-33.10595513 77.72675092 -32.51974696 81.30257825 -31.93115234 84.87817383 C-31.62982989 86.71896263 -31.62982989 86.71896263 -31.32242012 88.59693909 C-30.36866177 94.41957109 -29.40922167 100.24121828 -28.44072431 106.06141424 C-27.32815549 112.74843023 -26.23816185 119.43861887 -25.16727537 126.13243341 C-24.23366735 131.95781309 -23.27048285 137.77806776 -22.29690742 143.59690857 C-21.88892028 146.06088895 -21.48988043 148.5263688 -21.10014153 150.99330139 C-20.55199737 154.44858827 -19.97017104 157.89662652 -19.38012695 161.3449707 C-19.22762985 162.35510727 -19.07513275 163.36524384 -18.91801453 164.4059906 C-17.78297249 170.76900388 -15.76805486 174.74107608 -11.475564 179.59116364 C-8.82010082 182.8502762 -7.66441792 186.53006229 -6.34130859 190.47192383 C0.85892941 210.19308204 14.04011165 224.19510307 32.96337891 233.24536133 C51.05932676 240.89963756 70.14672018 241.66130377 88.47509766 234.30395508 C91.72124629 233.44871068 93.92231921 233.79922646 97.15869141 234.59692383 C99.99205519 236.35556342 100.18756974 237.70088583 101.09619141 240.97192383 C101.15869141 244.59692383 101.15869141 244.59692383 99.65869141 247.15161133 C96.42866073 250.31098508 93.50713588 251.18264721 89.22119141 252.34692383 C88.51800781 252.55446289 87.81482422 252.76200195 87.09033203 252.97583008 C64.56671893 259.51971017 40.14508868 256.74071839 19.68212891 245.60083008 C-0.64159408 234.15864935 -14.46190668 217.69765566 -22.51708984 195.90942383 C-24.83039247 189.9135059 -24.83039247 189.9135059 -29.71630859 186.15942383 C-33.31711118 185.51127936 -34.71986987 185.74093324 -37.84130859 187.59692383 C-39.88956921 189.07651955 -39.88956921 189.07651955 -40.84130859 191.59692383 C-41.11643671 208.37973916 -29.02161207 226.86050226 -17.82568359 238.59692383 C-17.17083984 239.25692383 -16.51599609 239.91692383 -15.84130859 240.59692383 C-15.01630859 241.46317383 -14.19130859 242.32942383 -13.34130859 243.22192383 C-12.51630859 244.00567383 -11.69130859 244.78942383 -10.84130859 245.59692383 C-10.23287109 246.18860352 -9.62443359 246.7802832 -8.99755859 247.38989258 C11.00097455 266.12040279 38.8345527 275.23380904 65.96289062 274.57299805 C96.14607708 273.22209651 123.34463148 259.39642148 143.68505859 237.27319336 C153.6613671 225.9250598 163.54821809 209.56043989 165.59619141 194.34692383 C165.01812925 190.71339029 163.81742429 189.11194142 161.15869141 186.59692383 C158.04617407 185.28639021 156.4475098 185.53073628 153.15869141 186.28442383 C149.16838222 189.36028716 148.2521666 192.51477379 146.48681641 197.15161133 C142.12892044 208.45650617 135.62878115 222.616864 125.15869141 229.59692383 C121.32175554 230.01549865 119.04666077 230.14336651 115.72119141 228.09692383 C113.99448176 225.33418839 113.28949175 223.18101684 113.45166016 219.90161133 C114.71102684 215.79649341 117.83739691 213.0227143 120.63916016 209.85473633 C127.02256385 202.11446207 130.85688194 191.30688727 133.97900391 181.87036133 C135.15588649 179.60232932 136.29766495 178.43570439 138.08084106 176.64389038 C142.0193274 172.07838776 142.68890624 167.40566487 143.58398438 161.57202148 C143.77017838 160.48330246 143.95637238 159.39458344 144.14820862 158.27287292 C144.7551523 154.68896014 145.32841333 151.100554 145.90087891 147.51098633 C146.31644806 145.00875742 146.73388578 142.50683819 147.15310669 140.00521851 C148.02602421 134.76717583 148.88421991 129.52705283 149.72900391 124.28442383 C150.8098963 117.57705653 151.91914776 110.87471181 153.0376873 104.17353249 C154.10684912 97.76693104 155.1598699 91.3576767 156.21337891 84.94848633 C156.41467281 83.73183918 156.61596672 82.51519203 156.82336044 81.26167679 C157.39319848 77.80252223 157.95303096 74.34189986 158.50976562 70.88061523 C158.67800339 69.86733658 158.84624115 68.85405792 159.01957703 67.81007385 C159.94142587 61.99932841 160.50113669 56.48273936 160.15869141 50.59692383 C157.7091852 48.14741762 156.9114612 48.27421129 153.53369141 48.22192383 C148.95012706 48.29478396 145.86295679 49.30013651 141.94775391 51.62426758 C136.10097832 54.80297308 128.90916062 53.82060612 122.47119141 53.84692383 C121.22917969 53.86754883 119.98716797 53.88817383 118.70751953 53.90942383 C108.29820723 53.95355446 100.62042587 52.82708206 92.88525391 45.56958008 C87.53506837 39.45681154 85.79970759 32.54803493 85.87353516 24.58520508 C86.51171423 17.89743809 89.31829542 11.30286437 94.15869141 6.59692383 C102.49320752 0.66301885 109.43084204 0.32343518 119.36206055 0.24682617 C120.92243456 0.23035529 122.48273593 0.20318354 124.04272461 0.16479492 C132.56087876 -0.04338438 139.58180334 -0.05279528 147.12084961 4.46118164 C150.05911581 6.09875375 152.64784686 6.16344238 155.97119141 6.15942383 C168.50088158 6.67695451 178.58107123 10.63117529 187.84619141 19.03442383 C188.60931641 19.88004883 189.37244141 20.72567383 190.15869141 21.59692383 C190.63951172 22.07387695 191.12033203 22.55083008 191.61572266 23.04223633 C200.8416553 32.71194801 202.65550288 45.04323883 202.46240234 57.82345581 C202.09517026 67.69173842 200.18869945 77.3922272 198.45477295 87.09393501 C197.76750036 90.94147189 197.10065556 94.79209745 196.43847656 98.64402771 C195.03059832 106.81912847 193.59579329 114.98941841 192.15869141 123.15942383 C190.49097668 132.64340823 188.83455602 142.12914431 187.20233154 151.61930656 C186.54990232 155.38233018 185.87946399 159.14183711 185.20800781 162.90150452 C183.19974297 174.40005508 181.64484012 185.39388269 182.13038635 197.07998657 C182.17001517 202.0039152 181.04409864 205.93859083 179.09619141 210.40942383 C178.7781958 211.19728271 178.4602002 211.9851416 178.13256836 212.796875 C169.43078348 233.84819518 156.23210642 251.70786989 138.15869141 265.59692383 C137.30662109 266.27625977 136.45455078 266.9555957 135.57666016 267.65551758 C126.33377983 274.76435957 110.19981798 285.59692383 98.15869141 285.59692383 C98.1901123 287.07902344 98.1901123 287.07902344 98.22216797 288.59106445 C98.29506149 292.28850574 98.34066834 295.9858847 98.37841797 299.68383789 C98.39842194 301.27834791 98.42563441 302.87278561 98.46044922 304.46704102 C98.81131218 320.95760003 98.81131218 320.95760003 94.15869141 327.59692383 C90.54752637 331.02753061 87.22220546 333.59692383 82.15869141 333.59692383 C82.16757385 334.76630997 82.1764563 335.93569611 82.18560791 337.14051819 C82.26706185 348.21704788 82.32683242 359.29351597 82.36594009 370.37027836 C82.38672236 376.06354927 82.41486722 381.75657638 82.46044922 387.44970703 C82.50424299 392.95459288 82.52789871 398.45924577 82.53820038 403.96429253 C82.545532 406.05362039 82.55984704 408.14293702 82.58161163 410.23216438 C82.82609227 434.6964829 77.44365238 453.62370945 60.07666016 471.77270508 C44.8619004 486.30999873 24.89016796 492.22032657 4.24072266 491.86254883 C-15.31710018 491.10847666 -33.13615985 482.46420921 -46.43945312 468.18383789 C-61.06130931 451.63175408 -65.9953583 432.64852772 -65.9831543 411.09521484 C-65.98662872 410.08583862 -65.99010315 409.0764624 -65.99368286 408.03649902 C-66.00099547 405.85948287 -66.0063646 403.68245948 -66.00997353 401.50543404 C-66.0171894 398.05319935 -66.03289233 394.60110267 -66.05131531 391.14891052 C-66.1035561 381.33855026 -66.15176388 371.52826996 -66.16723633 361.71777344 C-66.17734085 355.70313723 -66.20672012 349.68885597 -66.24855614 343.67436028 C-66.26082686 341.39117051 -66.26599462 339.10793058 -66.26375771 336.82470894 C-66.26139358 333.62543164 -66.28365381 330.42716725 -66.3112793 327.22802734 C-66.30467789 326.29629196 -66.29807648 325.36455658 -66.29127502 324.40458679 C-66.42403016 314.98937368 -69.44343311 307.20044598 -75.91943359 300.35083008 C-83.20785327 293.69940643 -91.09648887 291.06840241 -100.93896484 291.28442383 C-109.15485671 292.16904206 -117.03838607 295.66702269 -122.84130859 301.59692383 C-130.56915473 311.69992089 -131.14057743 321.85454531 -131.03662109 334.16333008 C-131.03237625 336.07528419 -131.03237625 336.07528419 -131.02804565 338.02586365 C-131.01879849 341.38452923 -131.0008873 344.74291343 -130.9786377 348.10150146 C-130.95803327 351.54070631 -130.949013 354.97994044 -130.93896484 358.41918945 C-130.91699218 365.14517744 -130.88358055 371.87103442 -130.84130859 378.59692383 C-130.0162532 378.99982132 -129.19119781 379.40271881 -128.34114075 379.81782532 C-126.71857613 380.61787239 -126.71857613 380.61787239 -125.06323242 381.43408203 C-123.99067703 381.96072952 -122.91812164 382.48737701 -121.81306458 383.02998352 C-107.65364919 390.49592582 -99.45085875 404.75874379 -94.84130859 419.59692383 C-91.44168565 435.7938535 -94.13272097 451.97805848 -103.00927734 465.95629883 C-110.82223306 477.21761666 -121.63197596 485.54456924 -134.84130859 489.59692383 C-135.51935547 489.81993164 -136.19740234 490.04293945 -136.89599609 490.27270508 C-152.53619911 494.61064818 -168.48258326 490.96835819 -182.50537109 483.61645508 C-196.19721493 475.3275988 -204.81291774 462.5020199 -209.22387695 447.31762695 C-210.24828116 442.80360542 -210.33042589 438.39746572 -210.27880859 433.78442383 C-210.27051025 432.82101074 -210.26221191 431.85759766 -210.25366211 430.86499023 C-209.85822958 414.12172954 -202.92433272 400.89075693 -191.10009766 389.19799805 C-188.7018958 387.07624315 -187.4319167 386.45957157 -184.24072266 385.38891602 C-179.77402585 383.88428235 -176.5259222 382.58786248 -173.84130859 378.59692383 C-171.42283827 369.64416443 -172.29172951 359.90540373 -172.59130859 350.70294189 C-172.75435742 345.20880148 -172.78780377 339.71104598 -172.84024429 334.21492958 C-172.86069588 332.23585487 -172.88855843 330.25686131 -172.91647339 328.27787781 C-173.1024192 306.0627119 -166.60471888 287.32184016 -151.20849609 270.94067383 C-136.62332252 256.49990792 -118.66010434 249.34220844 -98.27880859 249.09692383 C-78.64322985 249.35309188 -59.96050447 256.81496989 -45.84130859 270.59692383 C-27.91899469 289.25135839 -24.15124114 309.73525404 -24.37475586 334.72558594 C-24.40406081 338.31531942 -24.39525913 341.90360297 -24.38232422 345.4934082 C-24.38855283 347.78182684 -24.39693686 350.07024085 -24.40771484 352.35864258 C-24.40477921 353.42837814 -24.40184357 354.49811371 -24.39881897 355.6002655 C-24.41150314 356.59262711 -24.42418732 357.58498871 -24.43725586 358.60742188 C-24.44536034 359.91189522 -24.44536034 359.91189522 -24.45362854 361.24272156 C-24.92566509 364.10918195 -25.87499702 365.48565784 -27.84130859 367.59692383 C-30.77766275 368.67873852 -32.42203607 368.69675062 -35.46630859 367.97192383 C-38.59796822 366.15885773 -39.34591378 364.92338186 -40.84130859 361.59692383 C-41.27906274 358.13644839 -41.2584366 354.69851778 -41.24755859 351.21411133 C-41.25839478 350.20406036 -41.26923096 349.1940094 -41.28039551 348.15335083 C-41.31461597 344.92614371 -41.33022958 341.69928831 -41.34130859 338.47192383 C-41.35598125 334.23981989 -41.3899141 330.00848809 -41.43505859 325.77661133 C-41.43203735 324.82100311 -41.42901611 323.8653949 -41.42590332 322.88082886 C-41.59450546 307.47304482 -47.89207532 292.51043366 -58.84130859 281.59692383 C-65.84119978 275.90559105 -73.15167021 271.25821748 -81.84130859 268.59692383 C-82.53095703 268.37391602 -83.22060547 268.1509082 -83.93115234 267.92114258 C-99.19350578 263.74317991 -114.84093356 267.09592952 -128.44677734 274.53051758 C-141.56126247 282.51390381 -149.5898723 294.22688001 -154.14990234 308.74536133 C-156.00270653 316.38687011 -156.0495944 323.91687122 -156.15771484 331.74926758 C-156.17849594 333.00453751 -156.19927704 334.25980743 -156.22068787 335.55311584 C-156.27479603 338.868915 -156.32510472 342.18472658 -156.37353516 345.50061035 C-156.424028 348.89279261 -156.47956811 352.28489195 -156.53466797 355.67700195 C-156.64150646 362.3169096 -156.74333218 368.95687982 -156.84130859 375.59692383 C-153.87130859 375.59692383 -150.90130859 375.59692383 -147.84130859 375.59692383 C-147.84797043 374.91169144 -147.85463226 374.22645905 -147.86149597 373.52046204 C-147.92206086 367.00530465 -147.96751049 360.4902279 -147.99674511 353.97485065 C-148.01228133 350.6266184 -148.03496122 347.27879856 -148.06762695 343.93066406 C-148.1043699 340.06544983 -148.12111718 336.20056323 -148.13427734 332.33520508 C-148.15750313 330.56564201 -148.15750313 330.56564201 -148.18119812 328.7603302 C-148.18434986 312.90097753 -144.09539283 299.3686872 -133.10693359 287.66723633 C-122.09891857 277.60818812 -109.46870268 274.03361164 -94.82958984 274.31958008 C-81.29744528 275.2606009 -70.04844666 281.54313697 -60.81396484 291.23364258 C-57.87442073 294.75527464 -55.7703516 298.45024083 -53.84130859 302.59692383 C-53.53451172 303.23887695 -53.22771484 303.88083008 -52.91162109 304.54223633 C-49.84046253 311.29878518 -49.6876944 317.41203731 -49.66772461 324.70458984 C-49.6610376 325.71992294 -49.65435059 326.73525604 -49.64746094 327.78135681 C-49.63342709 329.98407869 -49.62152776 332.18681497 -49.61151314 334.38955879 C-49.59505855 337.88402115 -49.57181602 341.37837789 -49.5466156 344.87278748 C-49.4759823 354.80787859 -49.41590518 364.74301381 -49.36450195 374.67822266 C-49.33256206 380.7594869 -49.29124486 386.84063074 -49.24430656 392.9217968 C-49.22837125 395.23124953 -49.216011 397.54072998 -49.20739937 399.85022163 C-49.11904263 423.21806125 -47.42579704 441.51737276 -30.97412109 459.65551758 C-20.56939412 469.68067297 -5.69786761 474.56310378 8.47119141 475.03442383 C23.98575801 474.65369827 37.97005306 469.1350693 49.35400391 458.53051758 C59.92699413 447.20231376 65.43846576 433.43829951 65.47753906 418.05981445 C65.48758469 417.14181061 65.49763031 416.22380676 65.50798035 415.27798462 C65.53865831 412.26972022 65.55580449 409.26154419 65.57275391 406.25317383 C65.59147794 404.15709684 65.61105227 402.06102729 65.63143921 399.96496582 C65.68263583 394.46761472 65.72232819 388.97023922 65.75958252 383.47277832 C65.7997005 377.85524521 65.85075722 372.23781252 65.90087891 366.62036133 C65.99749049 355.6126195 66.08194236 344.60482081 66.15869141 333.59692383 C63.18869141 333.59692383 60.21869141 333.59692383 57.15869141 333.59692383 C57.16757385 334.74791565 57.1764563 335.89890747 57.18560791 337.08477783 C57.26695468 347.97093138 57.32678164 358.85702266 57.36594009 369.74341202 C57.38674916 375.33924348 57.41494414 380.93482812 57.46044922 386.53051758 C57.50414595 391.93813224 57.52787867 397.34551058 57.53820038 402.75328827 C57.54554915 404.80881211 57.55989883 406.8643241 57.58161163 408.9197464 C57.75882091 426.40208722 55.66463253 438.87227231 43.72119141 452.34692383 C31.6338154 462.96022959 19.2587423 467.55872681 3.12646484 466.78051758 C-9.36290527 465.61525625 -21.61365574 458.97883993 -29.65380859 449.44848633 C-39.55086681 436.26662861 -41.02273304 422.84466922 -41.09130859 406.90942383 C-41.12224609 405.09474609 -41.12224609 405.09474609 -41.15380859 403.2434082 C-41.16154297 401.49447266 -41.16154297 401.49447266 -41.16943359 399.71020508 C-41.1787793 398.65615479 -41.188125 397.60210449 -41.19775391 396.51611328 C-40.75405306 392.88232495 -39.44779745 390.20341269 -36.84130859 387.59692383 C-29.59884199 387.00327902 -29.59884199 387.00327902 -26.74121094 389.24267578 C-24.31973116 392.24323213 -24.34398639 393.86848986 -24.33740234 397.69067383 C-24.31871094 398.88692383 -24.30001953 400.08317383 -24.28076172 401.31567383 C-24.28011719 402.56348633 -24.27947266 403.81129883 -24.27880859 405.09692383 C-24.23157092 417.83760052 -23.87220471 430.70220287 -14.84130859 440.59692383 C-7.03865451 447.18583172 0.87065317 450.24932032 11.06884766 449.94067383 C20.04216403 448.9423782 27.16043113 445.33133422 33.15869141 438.59692383 C35.06605716 436.0375504 36.71799476 433.44481254 38.15869141 430.59692383 C38.50290131 429.91672684 38.84711121 429.23652985 39.20175171 428.53572083 C40.5110175 424.51491742 40.46675764 420.78783344 40.47753906 416.58398438 C40.48758469 415.68592575 40.49763031 414.78786713 40.50798035 413.8625946 C40.53879813 410.90295026 40.55584366 407.94339633 40.57275391 404.98364258 C40.59146667 402.92811811 40.61104017 400.87260132 40.63143921 398.8170929 C40.68275485 393.41340662 40.72238372 388.00969544 40.75958252 382.605896 C40.79962564 377.08917076 40.8507166 371.57254907 40.90087891 366.0559082 C40.99763153 355.23631949 41.08203853 344.4166723 41.15869141 333.59692383 C40.23443359 333.31204102 39.31017578 333.0271582 38.35791016 332.73364258 C33.20532857 330.90287183 30.04153089 328.28444894 27.5012207 323.42871094 C25.91079003 319.48377561 25.77358954 315.68611891 25.86572266 311.47583008 C25.8699675 310.73106918 25.87421234 309.98630829 25.87858582 309.21897888 C25.89523417 306.86540909 25.93285766 304.51273004 25.97119141 302.15942383 C25.98625626 300.5533165 25.99994149 298.9471956 26.01220703 297.34106445 C26.04509188 293.42601336 26.09677515 289.51161904 26.15869141 285.59692383 C24.79732056 285.39570923 24.79732056 285.39570923 23.40844727 285.19042969 C-1.9507849 280.55905012 -25.94154571 258.56555482 -40.27490234 238.19067383 C-45.76872374 230.105341 -50.04726967 221.59056533 -53.84130859 212.59692383 C-54.27701172 211.61336914 -54.71271484 210.62981445 -55.16162109 209.61645508 C-57.11846449 204.6559255 -57.98408388 200.39094898 -57.74902344 195.04034424 C-57.17033151 181.55983947 -59.92521092 168.54807795 -62.34130859 155.34692383 C-62.98798441 151.74994032 -63.63022444 148.15223964 -64.26721191 144.55352783 C-64.66141628 142.33309763 -65.06174192 140.11374267 -65.46911621 137.89569092 C-67.28057139 127.81686447 -67.28057139 127.81686447 -66.84130859 123.59692383 C-64.38090132 120.26813751 -62.94520472 118.80390435 -58.84130859 118.03442383 C-54.92014761 118.76964151 -53.58077361 119.65701015 -50.84130859 122.59692383 C-49.64894455 126.08213802 -49.14149308 129.6325966 -48.60302734 133.26879883 C-48.43253372 134.30635315 -48.2620401 135.34390747 -48.08638 136.41290283 C-47.54737112 139.72140636 -47.03778084 143.03368022 -46.52880859 146.34692383 C-46.16810871 148.59332838 -45.80550076 150.83942744 -45.44091797 153.08520508 C-44.5522259 158.5857609 -43.68762872 164.08969848 -42.84130859 169.59692383 C-40.20130859 169.26692383 -37.56130859 168.93692383 -34.84130859 168.59692383 C-35.06681396 167.28972885 -35.29231934 165.98253387 -35.5246582 164.63572693 C-37.65682828 152.26633329 -39.77576252 139.89473431 -41.8820343 127.52090359 C-42.96509067 121.16073746 -44.05266046 114.80141474 -45.15087891 108.44384766 C-46.21219016 102.298914 -47.26120881 96.15199294 -48.30203247 90.00355721 C-48.69957885 87.66790291 -49.1014161 85.33297443 -49.50778198 82.99883842 C-55.22342879 50.12359931 -55.22342879 50.12359931 -50.71630859 41.97192383 C-47.03543519 37.18886799 -42.72704092 33.34673614 -36.84130859 31.59692383 C-35.85130859 31.59692383 -34.86130859 31.59692383 -33.84130859 31.59692383 C-33.84130859 28.62692383 -33.84130859 25.65692383 -33.84130859 22.59692383 C-43.04364194 25.23861784 -43.04364194 25.23861784 -50.84130859 30.59692383 C-51.50130859 30.59692383 -52.16130859 30.59692383 -52.84130859 30.59692383 C-53.08880859 31.13317383 -53.33630859 31.66942383 -53.59130859 32.22192383 C-54.84130859 34.59692383 -54.84130859 34.59692383 -56.84130859 37.47192383 C-64.38289346 49.25565019 -60.71442278 64.05218026 -58.26464844 76.9440918 C-55.28663277 92.98506844 -55.28663277 92.98506844 -58.40380859 98.22192383 C-61.77449867 100.12333874 -64.02949994 100.07339991 -67.84130859 99.59692383 C-70.34130565 98.14139149 -71.59337893 97.24940663 -72.63085938 94.51904297 C-72.76476074 93.73134521 -72.89866211 92.94364746 -73.03662109 92.13208008 C-73.27300293 90.81796143 -73.27300293 90.81796143 -73.51416016 89.47729492 C-73.66336914 88.54739746 -73.81257812 87.6175 -73.96630859 86.65942383 C-74.2133252 85.22590576 -74.2133252 85.22590576 -74.46533203 83.76342773 C-74.78945181 81.87486845 -75.10735078 79.98522902 -75.41845703 78.09448242 C-75.75173771 76.12597124 -76.13509806 74.16593807 -76.53662109 72.21020508 C-79.63659042 56.90683539 -79.49238943 41.07518623 -70.84130859 27.65942383 C-69.85293867 26.29674549 -68.8544511 24.94128599 -67.84130859 23.59692383 C-67.26380859 22.73067383 -66.68630859 21.86442383 -66.09130859 20.97192383 C-57.15263885 11.53666132 -45.51026754 6.71471731 -32.71630859 6.34692383 C-31.47623047 6.32114258 -30.23615234 6.29536133 -28.95849609 6.26879883 C-25.5250037 5.95586978 -23.36628831 4.83800551 -20.41943359 3.08520508 C-13.89757993 -0.38805249 -7.19112946 -0.12003285 0 0 Z M-16.77880859 20.28442383 C-18.36581859 23.73850442 -18.60988361 26.92327627 -17.84130859 30.59692383 C-15.86452683 34.11877639 -13.74259369 36.29649546 -9.84130859 37.59692383 C-5.90860787 37.88122017 -1.97063787 37.87454038 1.97119141 37.90942383 C3.59250977 37.95292969 3.59250977 37.95292969 5.24658203 37.99731445 C11.54138132 38.04754919 15.39735449 37.8709427 20.15869141 33.59692383 C22.41366994 30.85173257 22.15869141 29.30221696 22.15869141 25.65942383 C21.65720441 22.42090538 20.81891998 20.81288871 18.34619141 18.65942383 C12.96034994 15.17446759 8.09502017 15.38523082 1.84619141 15.34692383 C1.01667969 15.32629883 0.18716797 15.30567383 -0.66748047 15.28442383 C-6.90292736 15.24505242 -11.91096151 16.04468605 -16.77880859 20.28442383 Z M104.28369141 20.34692383 C101.90577853 23.98373176 101.36466083 25.36209407 102.15869141 29.59692383 C104.2995157 33.57274037 105.9368783 35.97235703 110.15869141 37.59692383 C114.1271834 38.01974355 118.10748851 37.92123171 122.09619141 37.90942383 C123.1809375 37.92553711 124.26568359 37.94165039 125.38330078 37.95825195 C126.43195313 37.95889648 127.48060547 37.95954102 128.56103516 37.96020508 C129.51486084 37.96318604 130.46868652 37.96616699 131.45141602 37.96923828 C135.43808059 37.42097753 138.06402902 35.61609226 140.97119141 32.90942383 C142.72055515 29.50276811 142.81331901 26.2966731 142.15869141 22.59692383 C140.32466678 19.35211103 139.01584267 17.97176368 135.60400391 16.47973633 C131.21778844 15.35583078 127.16590779 15.30486582 122.65869141 15.34692383 C121.82982422 15.33918945 121.00095703 15.33145508 120.14697266 15.32348633 C113.79308993 15.34368945 109.05841426 15.77979762 104.28369141 20.34692383 Z M158.15869141 22.59692383 C158.15869141 25.56692383 158.15869141 28.53692383 158.15869141 31.59692383 C159.13708984 31.90823242 159.13708984 31.90823242 160.13525391 32.22583008 C166.4166678 34.4400748 170.62004702 36.8466267 174.15869141 42.59692383 C180.16194961 55.51835383 174.51711656 73.24324159 172.22119141 86.58911133 C171.81663051 88.99032102 171.41308248 91.39170156 171.01049805 93.79324341 C169.9552647 100.07154098 168.886409 106.34744297 167.8145752 112.6229248 C166.72042706 119.04384139 165.63935007 125.466957 164.55712891 131.88989258 C162.43701085 144.46107333 160.30247653 157.02975901 158.15869141 169.59692383 C161.12869141 169.92692383 164.09869141 170.25692383 167.15869141 170.59692383 C168.7219959 164.65073269 169.91540496 158.7146803 170.94628906 152.65527344 C171.11239182 151.69308899 171.27849457 150.73090454 171.44963074 149.73956299 C171.99434066 146.57674792 172.5340874 143.41311722 173.07275391 140.24926758 C173.25847332 139.16103762 173.44419273 138.07280766 173.63554001 136.95160103 C174.61835341 131.19020688 175.59711523 125.4281406 176.57275391 119.66552734 C177.57537527 113.74871337 178.59239401 107.83447043 179.61274147 101.92069149 C180.39999654 97.34151503 181.17616636 92.76050735 181.94947433 88.17895699 C182.3192878 85.99963606 182.69320229 83.82100653 183.07149124 81.64314079 C187.98358058 59.00667461 187.98358058 59.00667461 182.15869141 37.59692383 C176.35893592 29.92805283 170.60107577 24.93099637 161.15869141 22.59692383 C160.16869141 22.59692383 159.17869141 22.59692383 158.15869141 22.59692383 Z M42.15869141 289.59692383 C42.13806641 294.03129883 42.11744141 298.46567383 42.09619141 303.03442383 C42.0870874 304.43490967 42.0779834 305.83539551 42.06860352 307.27832031 C42.06610596 308.37217041 42.0636084 309.46602051 42.06103516 310.59301758 C42.05579834 311.71893311 42.05056152 312.84484863 42.04516602 314.00488281 C41.86323692 316.52663254 41.86323692 316.52663254 43.15869141 317.59692383 C45.95862738 317.69795638 48.73337784 317.7366247 51.53369141 317.72973633 C52.37335449 317.73069305 53.21301758 317.73164978 54.078125 317.7326355 C55.85693435 317.7333173 57.63574618 317.73146299 59.41455078 317.72729492 C62.14702917 317.72194665 64.87934317 317.72723988 67.61181641 317.73364258 C69.3357751 317.7329818 71.0597337 317.73170063 72.78369141 317.72973633 C73.60659668 317.73176056 74.42950195 317.73378479 75.27734375 317.73587036 C79.02249007 318.08267843 79.02249007 318.08267843 82.15869141 316.59692383 C82.24627144 314.59727401 82.26565717 312.59456273 82.25634766 310.59301758 C82.2538501 309.49916748 82.25135254 308.40531738 82.2487793 307.27832031 C82.23967529 305.87783447 82.23057129 304.47734863 82.22119141 303.03442383 C82.20056641 298.60004883 82.17994141 294.16567383 82.15869141 289.59692383 C68.95869141 289.59692383 55.75869141 289.59692383 42.15869141 289.59692383 Z M-179.84130859 401.59692383 C-180.75009766 402.3490918 -180.75009766 402.3490918 -181.67724609 403.11645508 C-188.87441803 409.5750526 -193.44101202 418.87840134 -194.11474609 428.50317383 C-194.57028689 443.09640727 -191.17682897 453.64326374 -181.10302734 464.46411133 C-172.40729781 472.85377999 -161.22208659 476.01188862 -149.41552734 475.86645508 C-137.74204217 474.98615948 -128.09683698 470.09151699 -120.00146484 461.68676758 C-111.92218134 451.67503458 -108.79742375 440.27266833 -109.84130859 427.59692383 C-112.24692752 415.27899557 -118.36839778 404.7425036 -128.84130859 397.59692383 C-145.80550691 388.52579001 -164.95205227 388.51338582 -179.84130859 401.59692383 Z " fill="#000000" transform="translate(209.84130859375,-0.596923828125)"/>
<path d="M0 0 C5.84925361 5.02852324 5.84925361 5.02852324 6.5625 9.625 C5.7125 14.725 5.7125 14.725 3 17 C0.06157795 18.16312539 -0.98738007 18.49932927 -4 18 C-6.74854359 16.55919418 -9.22881782 14.86296725 -11.7890625 13.109375 C-31.20590043 0.35378804 -53.6771124 -5.06833971 -76.6875 -0.8125 C-100.06396322 4.53069159 -119.74692041 16.85408999 -133 37 C-145.23734234 57.01836934 -149.16817598 80.53617697 -143.9765625 103.4375 C-139.90923569 118.27510821 -133.15925036 130.50543077 -123 142 C-122.47019531 142.62519531 -121.94039063 143.25039063 -121.39453125 143.89453125 C-107.14277667 159.53848808 -84.45162009 167.92631887 -63.76171875 168.99609375 C-39.43692792 169.02135314 -17.05836216 160.49365637 0.4765625 143.55126953 C16.51580852 127.21899882 24.3978422 105.9317281 24.5625 83.3125 C24.38470727 69.16892867 21.6185988 57.14812582 15.19897461 44.48803711 C12.97989623 39.91533639 12.78761881 36.91654081 14 32 C15.5947774 29.60783391 16.65764819 29.11712036 19.375 28.1875 C22.68352747 27.95117661 24.1002327 28.35548642 27 30 C28.59113162 32.45632796 29.83945026 34.6843737 31.0625 37.3125 C31.40684082 38.02873535 31.75118164 38.7449707 32.10595703 39.48291016 C35.06346868 45.79721855 37.35728631 52.21770685 39 59 C39.17515137 59.69697998 39.35030273 60.39395996 39.53076172 61.11206055 C43.43914529 78.1907554 42.84914993 98.41428144 37 115 C36.75330566 115.71043457 36.50661133 116.42086914 36.25244141 117.15283203 C32.74201921 126.97727329 28.31923695 135.64115859 22 144 C21.2884375 144.94488281 20.576875 145.88976562 19.84375 146.86328125 C7.00454423 163.20614352 -9.43198557 174.34869115 -29 181 C-29.6403418 181.22445801 -30.28068359 181.44891602 -30.94042969 181.68017578 C-54.58196322 189.61549731 -82.89851271 186.69178754 -105.1875 175.97265625 C-124.89136189 166.00558587 -140.06576237 151.1820462 -151 132 C-151.7115625 130.76636719 -151.7115625 130.76636719 -152.4375 129.5078125 C-165.01220809 106.16601061 -165.96987638 78.21453799 -158.93359375 53.0625 C-154.69472928 39.40859992 -147.94329583 28.08157075 -139 17 C-138.37480469 16.20851563 -137.74960937 15.41703125 -137.10546875 14.6015625 C-103.971396 -25.15932479 -40.96287887 -29.55929355 0 0 Z " fill="#000000" transform="translate(471,327)"/>
<path d="M0 0 C0.9170874 -0.00004028 1.8341748 -0.00008057 2.77905273 -0.00012207 C4.71572736 0.00523332 6.65240141 0.02281694 8.58886719 0.05175781 C11.55210834 0.09360325 14.51307579 0.09282704 17.4765625 0.0859375 C19.35939078 0.09643059 21.24220736 0.10936933 23.125 0.125 C24.01050537 0.12520142 24.89601074 0.12540283 25.80834961 0.12561035 C29.35811167 0.19385507 31.8927298 0.25472412 35.08984375 1.87304688 C38.10593633 5.39715505 37.68208405 9.19860318 37.66015625 13.671875 C37.65532227 15.41210938 37.65532227 15.41210938 37.65039062 17.1875 C37.63782227 18.99734375 37.63782227 18.99734375 37.625 20.84375 C37.62048828 22.06578125 37.61597656 23.2878125 37.61132812 24.546875 C37.59954815 27.56254946 37.58309853 30.57812498 37.5625 33.59375 C38.79552856 33.55447388 38.79552856 33.55447388 40.0534668 33.5144043 C43.78544938 33.4103356 47.5171266 33.34538872 51.25 33.28125 C52.54357422 33.23935547 53.83714844 33.19746094 55.16992188 33.15429688 C56.41708984 33.13818359 57.66425781 33.12207031 58.94921875 33.10546875 C60.66951294 33.06619263 60.66951294 33.06619263 62.42456055 33.02612305 C66.7170419 33.80259696 68.07459833 35.02246258 70.5625 38.59375 C71.25829978 41.71023335 71.24056427 44.72717006 71.19140625 47.91015625 C71.19381821 48.80363266 71.19623016 49.69710907 71.19871521 50.61766052 C71.19773812 52.50125581 71.18437739 54.3848803 71.15942383 56.26831055 C71.12506773 59.1505682 71.13878265 62.02976664 71.15820312 64.91210938 C71.15130565 66.74480471 71.14163416 68.57749214 71.12890625 70.41015625 C71.13634605 71.70089806 71.13634605 71.70089806 71.14393616 73.01771545 C71.07080657 76.73234967 70.96402455 78.95967758 68.94799805 82.14331055 C65.74944989 84.08810377 63.55992959 84.04984526 59.828125 83.984375 C58.53261719 83.97148437 57.23710937 83.95859375 55.90234375 83.9453125 C54.53905176 83.91189366 53.17577051 83.87803391 51.8125 83.84375 C50.43361936 83.82367707 49.05471088 83.80542767 47.67578125 83.7890625 C44.30398256 83.74190448 40.93359313 83.67609538 37.5625 83.59375 C37.57297363 84.34994629 37.58344727 85.10614258 37.59423828 85.88525391 C37.63595416 89.32971845 37.66187583 92.7741297 37.6875 96.21875 C37.70425781 97.40855469 37.72101563 98.59835937 37.73828125 99.82421875 C37.74472656 100.97792969 37.75117188 102.13164062 37.7578125 103.3203125 C37.76828613 104.37814941 37.77875977 105.43598633 37.78955078 106.52587891 C37.53890914 109.91250561 36.96476435 112.49770519 35.5625 115.59375 C32.84551856 117.30880662 30.70214137 117.85077318 27.51586914 117.90014648 C26.3392849 117.92412758 26.3392849 117.92412758 25.13893127 117.94859314 C24.30031052 117.95395584 23.46168976 117.95931854 22.59765625 117.96484375 C21.29217079 117.97838646 21.29217079 117.97838646 19.96031189 117.99220276 C18.12209506 118.00669069 16.28382684 118.01558838 14.44555664 118.01928711 C11.63795017 118.03119507 8.83253421 118.08040217 6.02539062 118.13085938 C4.23698987 118.14032287 2.44857564 118.14755826 0.66015625 118.15234375 C-0.17644028 118.17187607 -1.0130368 118.19140839 -1.87498474 118.21153259 C-6.05228946 118.1792949 -7.95586837 117.92791968 -11.47558594 115.48583984 C-13.88004545 111.94138646 -14.019509 110.01695856 -13.92578125 105.76171875 C-13.90966797 104.46943359 -13.89355469 103.17714844 -13.87695312 101.84570312 C-13.83518274 100.49086843 -13.79285809 99.13605072 -13.75 97.78125 C-13.72490069 96.40694134 -13.70209036 95.03258884 -13.68164062 93.65820312 C-13.62276461 90.30227024 -13.5405642 86.9485691 -13.4375 83.59375 C-14.77711792 83.6251709 -14.77711792 83.6251709 -16.14379883 83.65722656 C-19.45933343 83.72542346 -22.77412239 83.77555815 -26.09008789 83.81347656 C-27.52477786 83.83358525 -28.95938593 83.86087673 -30.39379883 83.89550781 C-32.45674839 83.9440646 -34.51861431 83.96672406 -36.58203125 83.984375 C-37.82315674 84.00532227 -39.06428223 84.02626953 -40.34301758 84.04785156 C-43.4375 83.59375 -43.4375 83.59375 -45.33666992 82.15917969 C-47.03244817 78.2072529 -46.90528125 74.41525316 -46.90625 70.15625 C-46.91386353 69.2391626 -46.92147705 68.3220752 -46.92932129 67.37719727 C-46.94011392 65.44062012 -46.94297879 63.5039848 -46.93847656 61.56738281 C-46.93750331 58.60383282 -46.97915223 55.64286431 -47.0234375 52.6796875 C-47.02864394 50.7968804 -47.0313327 48.9140643 -47.03125 47.03125 C-47.04764526 46.14574463 -47.06404053 45.26023926 -47.08093262 44.34790039 C-47.03463955 40.2304227 -47.00129383 38.27478754 -44.3137207 35.02832031 C-40.88503364 33.31819679 -38.64678252 33.13330648 -34.82421875 33.203125 C-33.57705078 33.21601563 -32.32988281 33.22890625 -31.04492188 33.2421875 C-29.75134766 33.27570313 -28.45777344 33.30921875 -27.125 33.34375 C-25.81208984 33.36179687 -24.49917969 33.37984375 -23.14648438 33.3984375 C-19.90941512 33.44552214 -16.67382947 33.51127958 -13.4375 33.59375 C-13.45844727 32.77173096 -13.47939453 31.94971191 -13.50097656 31.1027832 C-13.58423309 27.37073036 -13.63619247 23.63887306 -13.6875 19.90625 C-13.72101563 18.61267578 -13.75453125 17.31910156 -13.7890625 15.98632812 C-13.80195313 14.73916016 -13.81484375 13.49199219 -13.828125 12.20703125 C-13.84907227 11.06016846 -13.87001953 9.91330566 -13.89160156 8.73168945 C-12.64110129 0.09046363 -7.43454113 -0.13765163 0 0 Z M2.5625 16.59375 C2.52382813 19.55601562 2.52382813 19.55601562 2.484375 22.578125 C2.42810187 25.16668901 2.37075437 27.75522982 2.3125 30.34375 C2.29832031 31.64570313 2.28414063 32.94765625 2.26953125 34.2890625 C2.23730469 35.53945313 2.20507812 36.78984375 2.171875 38.078125 C2.15092773 39.23022461 2.12998047 40.38232422 2.10839844 41.56933594 C1.5625 44.59375 1.5625 44.59375 -0.06835938 46.96289062 C-3.164767 49.09438309 -5.20967357 49.13506225 -8.953125 49.203125 C-10.20351563 49.23535156 -11.45390625 49.26757812 -12.7421875 49.30078125 C-14.04414063 49.31496094 -15.34609375 49.32914062 -16.6875 49.34375 C-18.00492187 49.37339844 -19.32234375 49.40304687 -20.6796875 49.43359375 C-23.93196134 49.50429536 -27.18473492 49.5512857 -30.4375 49.59375 C-30.4375 55.86375 -30.4375 62.13375 -30.4375 68.59375 C-20.2075 68.92375 -9.9775 69.25375 0.5625 69.59375 C1.68433708 72.95926123 1.77050968 75.68435232 1.87890625 79.23046875 C1.92080078 80.52919922 1.96269531 81.82792969 2.00585938 83.16601562 C2.04566987 84.53775761 2.08538216 85.90950244 2.125 87.28125 C2.16820835 88.66472645 2.21182339 90.04819027 2.25585938 91.43164062 C2.36207965 94.81888714 2.46280688 98.20630509 2.5625 101.59375 C8.8325 101.59375 15.1025 101.59375 21.5625 101.59375 C21.61148438 99.45132813 21.66046875 97.30890625 21.7109375 95.1015625 C21.76492706 93.02971327 21.82224232 90.95798096 21.87988281 88.88623047 C21.91819674 87.4449126 21.95304543 86.00349832 21.984375 84.56201172 C22.02997446 82.49151114 22.08797444 80.42167567 22.1484375 78.3515625 C22.1798584 77.1052002 22.2112793 75.85883789 22.24365234 74.57470703 C22.5625 71.59375 22.5625 71.59375 24.5625 69.59375 C27.54345703 69.27490234 27.54345703 69.27490234 31.3203125 69.1796875 C31.98336395 69.16032135 32.64641541 69.1409552 33.32955933 69.1210022 C35.44874177 69.06119046 37.5679785 69.01481612 39.6875 68.96875 C41.12372169 68.93057155 42.55992045 68.89151989 43.99609375 68.8515625 C47.51811029 68.75384181 51.03988072 68.67429124 54.5625 68.59375 C54.5625 62.32375 54.5625 56.05375 54.5625 49.59375 C52.50386719 49.53316406 50.44523437 49.47257812 48.32421875 49.41015625 C46.32852171 49.34757342 44.33282553 49.28495874 42.3371582 49.22143555 C40.95114017 49.17814782 39.56507094 49.13646836 38.17895508 49.09643555 C36.18558202 49.03858416 34.19239435 48.97445224 32.19921875 48.91015625 C30.99998779 48.87349854 29.80075684 48.83684082 28.56518555 48.79907227 C25.5625 48.59375 25.5625 48.59375 22.5625 47.59375 C22.2325 37.36375 21.9025 27.13375 21.5625 16.59375 C15.2925 16.59375 9.0225 16.59375 2.5625 16.59375 Z " fill="#000000" transform="translate(398.4375,351.40625)"/>
<path d="M0 0 C6.30742227 5.20777299 9.96766124 10.29728928 10.8359375 18.515625 C11.11224956 27.71894207 9.74807075 34.89529851 3.33984375 41.7265625 C-3.40638237 47.62771995 -10.23798127 49.17804576 -19.09765625 48.8125 C-27.18269147 47.68003812 -33.04211858 43.84618022 -38.09375 37.5078125 C-41.85593436 31.69732777 -43.46282385 25.20759815 -42.5 18.3359375 C-40.73608333 10.4461707 -37.45405236 4.05412407 -30.625 -0.4765625 C-20.76195179 -6.10201589 -9.57826813 -6.37553472 0 0 Z M-23.5 14.3359375 C-25.7269509 17.56860817 -26.51772383 19.46746995 -26.4375 23.3984375 C-25.35856928 26.77908709 -23.92393601 28.76509628 -21.5 31.3359375 C-18.28305636 32.94440932 -14.97862778 32.94902899 -11.5 32.3359375 C-8.80894802 30.16019334 -7.04467072 28.42527894 -5.5 25.3359375 C-5.11517943 21.25683944 -5.05878143 19.04503877 -7.25 15.5234375 C-12.56774308 10.35340951 -17.2092135 10.32054186 -23.5 14.3359375 Z " fill="#000000" transform="translate(73.5,410.6640625)"/>
</svg>
