<?xml version="1.0" encoding="UTF-8"?>
<svg version="1.1" xmlns="http://www.w3.org/2000/svg" width="512" height="512">
<path d="M0 0 C0.59167969 0.52722656 1.18335938 1.05445313 1.79296875 1.59765625 C25.97843774 24.05969514 34.49767891 56.3234003 37 88 C37.9178125 87.05898437 38.835625 86.11796875 39.78125 85.1484375 C61.3885759 63.14315949 61.3885759 63.14315949 77.34985352 62.45678711 C89.51875857 62.35071368 99.06213847 65.46364397 108 74 C115.62429506 82.18590608 119.31825452 92.48944709 119.15234375 103.60546875 C118.07792775 120.49308434 106.71241166 130.43393636 95.36531067 141.78858948 C94.13506032 143.02541321 94.13506032 143.02541321 92.87995642 144.28722328 C90.16034622 147.02007488 87.43726922 149.7494436 84.71411133 152.47875977 C82.75166899 154.44860083 80.78991825 156.41913024 78.82807922 158.38957214 C72.96947935 164.27252048 67.10608482 170.15067816 61.24177626 176.02793518 C59.58450348 177.68892847 57.92735683 179.35004748 56.2702539 181.0112102 C45.96329066 191.34338476 35.65473922 201.67397188 25.34140491 211.99978733 C22.96138897 214.38273248 20.58138932 216.7656939 18.20141602 219.14868164 C17.60995644 219.74088727 17.01849686 220.3330929 16.40911426 220.94324415 C6.80267863 230.56236625 -2.79341378 240.1917398 -12.3853844 249.82528389 C-22.24590294 259.72818814 -32.11579232 269.62167439 -41.99491102 279.50602382 C-47.53678956 285.05131688 -53.07442162 290.60071203 -58.60152245 296.16073799 C-63.30121805 300.88838673 -68.00926983 305.60750517 -72.72856876 310.31558884 C-75.13572724 312.71755164 -77.53862739 315.12340773 -79.93080902 317.54029465 C-82.52459831 320.1566207 -85.13322737 322.7571789 -87.7462616 325.35426331 C-88.50083513 326.12271893 -89.25540866 326.89117455 -90.03284806 327.6829167 C-93.11475048 330.71847743 -95.17750062 332.73960951 -99.3478899 334.05988979 C-102.71091722 333.98394611 -104.30784338 332.96454673 -107 331 C-107.99 330.34 -108.98 329.68 -110 329 C-130.82881526 344.94258158 -130.82881526 344.94258158 -142.19140625 367.16796875 C-142.63439494 373.12976543 -142.36393912 378.99080228 -141.49780273 384.90576172 C-142.30426954 389.87472639 -145.54407568 392.5019155 -149 396 C-149.79635361 396.82717529 -150.59270721 397.65435059 -151.41319275 398.5065918 C-154.18756741 401.36972662 -156.98745596 404.20651019 -159.796875 407.03515625 C-160.56099575 407.80539029 -160.56099575 407.80539029 -161.34055328 408.59118462 C-164.03465169 411.30598714 -166.73190428 414.01761126 -169.43164062 416.72680664 C-172.19116978 419.49740316 -174.9388068 422.27948994 -177.68397141 425.06430912 C-179.82388886 427.23057648 -181.97284139 429.38771511 -184.12418365 431.54263115 C-185.1400764 432.56333771 -186.15264411 433.58736664 -187.16152191 434.6150074 C-204.11035466 451.8594645 -223.8437233 459.54116569 -248 460 C-262.68199872 459.88413304 -278.91362636 457.09803124 -290.2265625 447.015625 C-292.92574984 443.94782617 -293.20349654 442.06993088 -293 438 C-287.73192524 429.97783329 -279.31919198 423.18591609 -272.53735352 416.42382812 C-271.17651741 415.06327447 -269.81590221 413.70249983 -268.45549011 412.34152222 C-264.7805711 408.66631749 -261.1025874 404.99419394 -257.42402768 401.32263374 C-253.57320014 397.47807741 -249.72522343 393.63066981 -245.87693787 389.78356934 C-238.59765343 382.50738713 -231.31582468 375.23375679 -224.0330686 367.96104956 C-215.73845869 359.67763525 -207.44670407 351.39136529 -199.15518296 343.10485935 C-182.10662084 326.06673652 -165.05449275 309.03218635 -148 292 C-149.20381448 289.50638429 -150.45428722 287.31856917 -152 285 C-152.6875 281.9375 -152.6875 281.9375 -152 278 C-145.67809112 269.53896671 -137.34606037 262.21499367 -129.87109375 254.7734375 C-128.62820288 253.53241651 -127.38553616 252.291171 -126.14308167 251.04971313 C-122.90512502 247.81553685 -119.6641747 244.58437742 -116.42254639 241.35388184 C-113.10211509 238.04376212 -109.7845863 234.73073608 -106.46679688 231.41796875 C-99.98066853 224.94249848 -93.49136717 218.47021828 -87 212 C-87.96802803 211.88086494 -87.96802803 211.88086494 -88.95561218 211.75932312 C-91.93327836 211.39002043 -94.90997864 211.01341027 -97.88671875 210.63671875 C-98.90149292 210.51196167 -99.91626709 210.38720459 -100.96179199 210.25866699 C-122.07947385 207.56558124 -141.82623987 200.82341147 -159 188 C-159.82371094 187.39800781 -160.64742187 186.79601562 -161.49609375 186.17578125 C-186.84206486 166.8317361 -204.16257457 138.83125364 -209.2265625 107.24462891 C-211.40843323 90.94703362 -211.0547402 73.9635441 -207 58 C-206.75056641 57.00613281 -206.75056641 57.00613281 -206.49609375 55.9921875 C-198.49810938 25.30362523 -178.09922731 -1.86117079 -150.99072266 -18.21191406 C-101.2673068 -47.15943117 -41.52563669 -39.08717098 0 0 Z M-157 5 C-158.01126953 5.80050781 -158.01126953 5.80050781 -159.04296875 6.6171875 C-176.52929115 20.89961419 -187.40557174 42.50561775 -193 64 C-193.36931641 65.41732422 -193.36931641 65.41732422 -193.74609375 66.86328125 C-199.29919686 93.32668986 -193.29175304 122.28572893 -179 145 C-161.1971834 170.96672864 -137.21485894 188.51272433 -106.09765625 194.4765625 C-93.96351978 196.52697144 -76.39631642 199.28250617 -65.50538063 192.43052101 C-63.06256102 190.32779746 -60.8160792 188.12292944 -58.57543945 185.8059082 C-57.71697922 184.95854599 -56.85851898 184.11118378 -55.9740448 183.23814392 C-53.64581402 180.92936482 -51.3412128 178.59993307 -49.04644418 176.25797296 C-46.63157472 173.80261517 -44.1904831 171.37356626 -41.75297546 168.9407196 C-37.66854473 164.85618207 -33.60418373 160.75250546 -29.55200195 156.63598633 C-24.87345819 151.88352227 -20.16726504 147.1599218 -15.44467384 142.45125324 C-10.88860973 137.90781301 -6.34983361 133.34749891 -1.81963158 128.77828026 C0.10316233 126.83917972 2.0312693 124.90560447 3.96381187 122.97622108 C6.65737344 120.27906613 9.33050012 117.5632033 11.9987793 114.84106445 C12.79919647 114.04650848 13.59961365 113.25195251 14.42428589 112.43331909 C18.73605674 107.98645047 20.97981315 105.2880019 21 99 C21.05317383 98.12480713 21.10634766 97.24961426 21.16113281 96.34790039 C21.66493388 66.35123305 14.81649902 40.16939908 -5 17 C-5.65935547 16.15888672 -5.65935547 16.15888672 -6.33203125 15.30078125 C-21.3232994 -3.80180459 -47.37377594 -16.58831412 -71.15234375 -19.74609375 C-103.06652502 -23.45954823 -132.11687143 -15.35540533 -157 5 Z M56.30563354 90.09309387 C55.59880184 90.79565345 54.89197014 91.49821303 54.1637193 92.22206229 C51.81961987 94.55798527 49.49373882 96.91121234 47.16748047 99.26489258 C45.48237248 100.95141218 43.79616025 102.63682908 42.1089325 104.32122803 C38.01947182 108.40940588 33.94159847 112.50887601 29.86875002 116.6135988 C25.12545775 121.39275877 20.36793651 126.15764897 15.60953344 130.92175623 C7.12537362 139.41683614 -1.34757995 147.92300163 -9.81347656 156.4362793 C-18.03317183 164.70192949 -26.25814671 172.96226719 -34.49023438 181.21557617 C-35.25245789 181.97977011 -35.25245789 181.97977011 -36.03007986 182.75940231 C-38.57956338 185.31541143 -41.1291506 187.87131709 -43.67878938 190.42717135 C-64.8019573 211.60210104 -85.90674731 232.79526769 -107 254 C-105.59372922 256.92603371 -104.23827317 259.00756645 -101.92724609 261.29980469 C-101.30675385 261.92014587 -100.6862616 262.54048706 -100.04696655 263.17962646 C-99.37920197 263.83706848 -98.71143738 264.4945105 -98.0234375 265.171875 C-97.33819 265.8542926 -96.6529425 266.53671021 -95.94692993 267.23980713 C-93.76094155 269.41461598 -91.56809571 271.58236072 -89.375 273.75 C-87.89016745 275.2247999 -86.40578694 276.70005506 -84.921875 278.17578125 C-81.2864709 281.78915448 -77.64490176 285.39620853 -74 289 C-69.09249099 284.88013745 -64.45658123 280.60510282 -59.92782593 276.07499695 C-59.25158664 275.40243435 -58.57534736 274.72987176 -57.87861598 274.03692847 C-55.62944289 271.79870582 -53.38379895 269.55697724 -51.13818359 267.31518555 C-49.51985156 265.70312439 -47.90133165 264.09125182 -46.28263855 262.47955322 C-40.98432299 257.20219531 -35.6912699 251.91957491 -30.3984375 246.63671875 C-28.57249868 244.81482971 -26.74652629 242.99297431 -24.92052078 241.17115211 C-17.32643201 233.59391531 -9.73345171 226.01557261 -2.1441555 218.43353558 C-0.17977206 216.4710617 1.7846168 214.50859324 3.74902344 212.54614258 C4.23720481 212.05844494 4.72538619 211.57074731 5.22836094 211.06827096 C13.1424183 203.1625198 21.06496237 195.26533081 28.9910769 187.37166979 C37.14283036 179.2530206 45.28683081 171.12666813 53.42381227 162.99321204 C57.986991 158.4323826 62.55340845 153.87491158 67.12797928 149.32550621 C71.42954401 145.04722691 75.7214799 140.75951728 80.00627708 136.46444702 C81.57776026 134.89246861 83.15265431 133.32389126 84.73123741 131.75904274 C86.89083276 129.61718656 89.03763405 127.46324742 91.18179321 125.30595398 C91.80446064 124.6942558 92.42712806 124.08255762 93.06866419 123.45232314 C99.21741843 117.21266276 103.68226188 110.41433825 104.125 101.4765625 C103.75909034 94.22697729 100.91686179 88.92767761 95.9375 83.73046875 C90.17898866 78.58728221 84.94844644 77.55170416 77.3203125 77.37109375 C68.71977716 79.00013633 62.28807407 83.97370545 56.30563354 90.09309387 Z M-120.49047852 267.37695312 C-121.11365967 268.00537109 -121.73684082 268.63378906 -122.37890625 269.28125 C-123.05244141 269.95800781 -123.72597656 270.63476562 -124.41992188 271.33203125 C-125.12697266 272.04746094 -125.83402344 272.76289063 -126.5625 273.5 C-127.27341797 274.21542969 -127.98433594 274.93085938 -128.71679688 275.66796875 C-130.48010597 277.44311213 -132.2410484 279.22054045 -134 281 C-130.03627475 285.75085867 -125.90205218 290.23613112 -121.5078125 294.58984375 C-120.91700897 295.17923233 -120.32620544 295.76862091 -119.71749878 296.37586975 C-117.85569596 298.23213727 -115.99042255 300.08487085 -114.125 301.9375 C-112.85132989 303.20614672 -111.57789029 304.4750249 -110.3046875 305.74414062 C-107.20577957 308.83210554 -104.10375699 311.91690929 -101 315 C-98.18121988 313.71825282 -96.14758504 312.38992385 -93.984375 310.1796875 C-93.45585937 309.64472656 -92.92734375 309.10976563 -92.3828125 308.55859375 C-91.84398437 308.00300781 -91.30515625 307.44742188 -90.75 306.875 C-90.19570312 306.31167969 -89.64140625 305.74835938 -89.0703125 305.16796875 C-87.70895515 303.78313972 -86.35385141 302.39216796 -85 301 C-86.32814748 298.05495226 -87.7735572 295.97753345 -90.05688477 293.70019531 C-90.67414932 293.07985413 -91.29141388 292.45951294 -91.92738342 291.82037354 C-92.59201096 291.16293152 -93.25663849 290.5054895 -93.94140625 289.828125 C-94.62428207 289.1457074 -95.3071579 288.46328979 -96.01072693 287.76019287 C-97.45164432 286.32229178 -98.89498661 284.88681713 -100.34057617 283.45361328 C-102.56293779 281.24956582 -104.7771356 279.03756307 -106.99023438 276.82421875 C-108.39015278 275.42921346 -109.79052763 274.03466603 -111.19140625 272.640625 C-112.1913839 271.64231659 -112.1913839 271.64231659 -113.21156311 270.62384033 C-113.82567551 270.01610779 -114.4397879 269.40837524 -115.07250977 268.78222656 C-115.61496841 268.24357971 -116.15742706 267.70493286 -116.71632385 267.14996338 C-118.57945275 265.48090533 -118.6291655 265.65741088 -120.49047852 267.37695312 Z M-139.71479803 305.58571672 C-140.24494511 306.11877664 -140.77509218 306.65183656 -141.32130432 307.2010498 C-141.88160542 307.76049648 -142.44190652 308.31994315 -143.01918644 308.89634275 C-144.91174672 310.78724497 -146.80069122 312.68171944 -148.68969727 314.57617188 C-150.03936663 315.92612307 -151.38925575 317.27585458 -152.73934937 318.62538147 C-156.41703583 322.30277978 -160.09162039 325.98326386 -163.7656796 329.66428566 C-167.60095496 333.50579169 -171.4390426 337.34448577 -175.27684021 341.18347168 C-182.54970795 348.45945359 -189.82002178 355.73798195 -197.08943456 363.01741552 C-205.36303177 371.30217122 -213.63945218 379.58410406 -221.91611779 387.86579418 C-238.94723471 404.90737742 -255.97478092 421.95252472 -273 439 C-266.97287 445.02713 -255.65051819 444.36764896 -247.6875 444.4375 C-238.19853071 444.38563104 -229.94197154 443.37594146 -221 440 C-219.99324219 439.63390625 -218.98648438 439.2678125 -217.94921875 438.890625 C-211.76392166 436.23627234 -207.14071687 432.55223122 -202.3359375 427.9609375 C-201.69562592 427.35564209 -201.05531433 426.75034668 -200.39559937 426.12670898 C-192.54197434 418.66928033 -184.80128241 411.09499946 -177.11523438 403.46533203 C-175.43525017 401.80214767 -173.7498904 400.144378 -172.05957031 398.49169922 C-169.58227074 396.06891351 -167.12160446 393.63030459 -164.6640625 391.1875 C-163.90694977 390.45305664 -163.14983704 389.71861328 -162.36978149 388.96191406 C-157.31599813 383.9009661 -157.31599813 383.9009661 -156 377 C-155.92193115 375.76358765 -155.92193115 375.76358765 -155.84228516 374.50219727 C-155.82472168 373.69838623 -155.8071582 372.8945752 -155.7890625 372.06640625 C-155.76070313 371.16986328 -155.73234375 370.27332031 -155.703125 369.34960938 C-155.65115676 367.49564248 -155.60685112 365.64144453 -155.5703125 363.78710938 C-155.539375 362.88927734 -155.5084375 361.99144531 -155.4765625 361.06640625 C-155.45674316 360.26146729 -155.43692383 359.45652832 -155.41650391 358.62719727 C-154.20482667 350.98425543 -150.30148574 346.74336659 -144.92578125 341.53515625 C-143.90003242 340.51789711 -143.90003242 340.51789711 -142.8535614 339.48008728 C-140.6824707 337.3312602 -138.49784663 335.1968175 -136.3125 333.0625 C-134.83176401 331.60184178 -133.35193609 330.14026239 -131.87304688 328.67773438 C-128.25912055 325.10774259 -124.63299616 321.55057935 -121 318 C-122.34072397 315.22089331 -123.58893332 313.16202599 -125.78515625 310.984375 C-126.31560547 310.45585937 -126.84605469 309.92734375 -127.39257812 309.3828125 C-127.94365234 308.84398437 -128.49472656 308.30515625 -129.0625 307.75 C-129.61744141 307.19570313 -130.17238281 306.64140625 -130.74414062 306.0703125 C-135.23291207 301.35424168 -135.23291207 301.35424168 -139.71479803 305.58571672 Z " fill="#000000" transform="translate(343,44)"/>
<path d="M0 0 C1.14799072 -0.01260864 2.29598145 -0.02521729 3.47875977 -0.03820801 C4.71424561 -0.03011108 5.94973145 -0.02201416 7.22265625 -0.01367188 C8.49488037 -0.01749878 9.76710449 -0.02132568 11.07788086 -0.02526855 C13.76829452 -0.02799114 16.45725496 -0.02262001 19.14746094 -0.00390625 C22.5911037 0.01888451 26.03349952 0.00575844 29.47709656 -0.01819611 C32.76732753 -0.0361474 36.057409 -0.02356908 39.34765625 -0.01367188 C40.58314209 -0.0217688 41.81862793 -0.02986572 43.09155273 -0.03820801 C44.81353882 -0.01929504 44.81353882 -0.01929504 46.5703125 0 C47.579729 0.00318237 48.58914551 0.00636475 49.62915039 0.00964355 C53.02827114 0.65969142 54.21579996 1.78314987 56.28515625 4.51757812 C56.63414598 7.47686092 56.75299824 10.05211333 56.67578125 13.00195312 C56.67012146 13.817547 56.66446167 14.63314087 56.65863037 15.47344971 C56.63628352 18.07209584 56.58609247 20.66935054 56.53515625 23.26757812 C56.51508896 25.03188109 56.49683859 26.79620573 56.48046875 28.56054688 C56.43642455 32.8800914 56.36741047 37.19859906 56.28515625 41.51757812 C57.39028564 41.50186768 58.49541504 41.48615723 59.6340332 41.4699707 C63.73210366 41.41569256 67.83014232 41.38123589 71.9284668 41.3527832 C73.70260968 41.33769171 75.47671523 41.31721621 77.25073242 41.29125977 C79.80006112 41.25489172 82.34889684 41.23785574 84.8984375 41.22460938 C85.69228348 41.20912552 86.48612946 41.19364166 87.30403137 41.1776886 C92.80424946 41.17600563 92.80424946 41.17600563 95.24682617 42.91088867 C97.26009617 46.02617902 97.41992722 48.01717387 97.44628906 51.71411133 C97.45589661 52.79896317 97.46550415 53.883815 97.47540283 55.00154114 C97.48177765 56.76711617 97.48177765 56.76711617 97.48828125 58.56835938 C97.49398132 59.77445358 97.4996814 60.98054779 97.5055542 62.22319031 C97.51501471 64.77956258 97.52154234 67.3359471 97.52539062 69.89233398 C97.53509019 73.8034394 97.56610216 77.71401815 97.59765625 81.625 C97.60418669 84.10611666 97.609437 86.58723709 97.61328125 89.06835938 C97.62562805 90.2393367 97.63797485 91.41031403 97.6506958 92.61677551 C97.6476947 93.71108383 97.6446936 94.80539215 97.64160156 95.93286133 C97.64707001 97.37276176 97.64707001 97.37276176 97.65264893 98.8417511 C97.21062604 102.06025544 96.23086474 103.93129345 94.28515625 106.51757812 C90.58975223 107.74937946 87.18212247 107.64169925 83.3359375 107.61523438 C82.56332077 107.61381943 81.79070404 107.61240448 80.99467468 107.61094666 C78.52896236 107.60535279 76.0633411 107.59280145 73.59765625 107.58007812 C71.92513152 107.57506233 70.25260537 107.57049956 68.58007812 107.56640625 C64.48173579 107.55538537 60.38346146 107.53812497 56.28515625 107.51757812 C56.31657715 109.12197754 56.31657715 109.12197754 56.34863281 110.75878906 C56.42110251 114.73195985 56.46698088 118.70507238 56.50488281 122.67871094 C56.52498253 124.39756091 56.55226714 126.11634265 56.58691406 127.83496094 C56.63550659 130.30746302 56.6581406 132.77906023 56.67578125 135.25195312 C56.69642639 136.01876404 56.71707153 136.78557495 56.73834229 137.57562256 C56.73974347 140.91688085 56.66651304 143.01496601 54.61395264 145.72015381 C51.7160376 147.95683838 50.2027309 148.02370438 46.5703125 148.03515625 C44.84832642 148.05406921 44.84832642 148.05406921 43.09155273 148.07336426 C41.23832397 148.06121887 41.23832397 148.06121887 39.34765625 148.04882812 C38.07543213 148.05265503 36.80320801 148.05648193 35.49243164 148.0604248 C32.80201798 148.06314739 30.11305754 148.05777626 27.42285156 148.0390625 C23.9792088 148.01627174 20.53681298 148.02939781 17.09321594 148.05335236 C13.80298497 148.07130365 10.5129035 148.05872533 7.22265625 148.04882812 C5.98717041 148.05692505 4.75168457 148.06502197 3.47875977 148.07336426 C2.33076904 148.06075562 1.18277832 148.04814697 0 148.03515625 C-1.51412476 148.03038269 -1.51412476 148.03038269 -3.05883789 148.0255127 C-6.45567612 147.37590134 -7.64386106 146.24704573 -9.71484375 143.51757812 C-10.06394425 140.62792692 -10.18299995 138.13165102 -10.10546875 135.25195312 C-10.09980896 134.4585553 -10.09414917 133.66515747 -10.08831787 132.84771729 C-10.06597522 130.32038339 -10.01578551 127.79448147 -9.96484375 125.26757812 C-9.94477589 123.55145281 -9.92652562 121.83530521 -9.91015625 120.11914062 C-9.8661177 115.91807032 -9.79710701 111.71806678 -9.71484375 107.51757812 C-10.74891357 107.53328857 -11.7829834 107.54899902 -12.84838867 107.56518555 C-16.69677902 107.61961867 -20.54513554 107.65397661 -24.39379883 107.68237305 C-26.05726856 107.69742927 -27.7206988 107.71787876 -29.3840332 107.74389648 C-31.77955897 107.7804202 -34.17455842 107.79733595 -36.5703125 107.81054688 C-37.31008835 107.82603073 -38.0498642 107.84151459 -38.8120575 107.85746765 C-43.28349012 107.85891435 -46.20822294 107.36798431 -49.71484375 104.51757812 C-50.7315186 101.46755356 -50.84740808 99.38445391 -50.86010742 96.19165039 C-50.8696772 94.55964439 -50.8696772 94.55964439 -50.87944031 92.89466858 C-50.88110954 91.1321299 -50.88110954 91.1321299 -50.8828125 89.33398438 C-50.8861409 88.12693344 -50.8894693 86.91988251 -50.89289856 85.67625427 C-50.89796477 83.12165712 -50.90030698 80.56705334 -50.90014648 78.01245117 C-50.90233299 74.09933603 -50.92049233 70.18650273 -50.93945312 66.2734375 C-50.94238706 63.79362076 -50.94437186 61.31380267 -50.9453125 58.83398438 C-50.95249802 57.66098282 -50.95968353 56.48798126 -50.96708679 55.2794342 C-50.96401016 54.18827805 -50.96093353 53.09712189 -50.95776367 51.97290039 C-50.95918869 51.01376236 -50.96061371 50.05462433 -50.96208191 49.06642151 C-50.70218172 46.38704187 -50.16727817 44.77058582 -48.71484375 42.51757812 C-45.4888083 40.9045604 -41.96774337 41.39704214 -38.42578125 41.41992188 C-37.1981456 41.4220443 -37.1981456 41.4220443 -35.94570923 41.42420959 C-33.3270505 41.42981523 -30.70847671 41.44236864 -28.08984375 41.45507812 C-26.31640748 41.4600924 -24.54296988 41.46465543 -22.76953125 41.46875 C-18.41793593 41.47978649 -14.06640425 41.49705487 -9.71484375 41.51757812 C-9.73579102 40.41768555 -9.75673828 39.31779297 -9.77832031 38.18457031 C-9.8507801 34.09957931 -9.8966649 30.01464499 -9.93457031 25.92919922 C-9.95467225 24.16184941 -9.98195847 22.39456599 -10.01660156 20.62744141 C-10.06518384 18.08544528 -10.08782601 15.54432916 -10.10546875 13.00195312 C-10.12611389 12.21326843 -10.14675903 11.42458374 -10.16802979 10.61199951 C-10.16941074 7.22746156 -10.12140751 5.05480772 -8.04364014 2.30926514 C-5.14575757 0.07974495 -3.62843022 0.0114393 0 0 Z M5.28515625 15.51757812 C5.07517267 27.22985444 5.07517267 27.22985444 4.8972168 38.94262695 C4.86492977 40.41164705 4.83155646 41.88064385 4.796875 43.34960938 C4.7906311 44.11156616 4.78438721 44.87352295 4.7779541 45.65856934 C4.70000646 48.5142875 4.58785301 50.92333042 3.27734375 53.49609375 C-0.0176302 55.18557549 -3.47847092 55.00042539 -7.1015625 55.02929688 C-8.18806091 55.05425232 -8.18806091 55.05425232 -9.29650879 55.07971191 C-11.99815945 55.13747631 -14.7003065 55.16975514 -17.40234375 55.20507812 C-23.44546875 55.30820313 -29.48859375 55.41132812 -35.71484375 55.51757812 C-35.71484375 67.72757813 -35.71484375 79.93757813 -35.71484375 92.51757812 C-23.67345379 92.68801513 -23.67345379 92.68801513 -11.6315918 92.81542969 C-10.12155091 92.84479532 -8.61153739 92.87562038 -7.1015625 92.90820312 C-6.31801392 92.90933105 -5.53446533 92.91045898 -4.72717285 92.91162109 C-1.53425374 92.99590224 0.6993429 93.06615725 3.27734375 95.05273438 C4.69907696 98.52991909 4.76544288 101.8631688 4.796875 105.56445312 C4.81351196 106.24846191 4.83014893 106.9324707 4.84729004 107.63720703 C4.90490955 110.18035468 4.93729732 112.72402358 4.97265625 115.26757812 C5.12734375 123.80632812 5.12734375 123.80632812 5.28515625 132.51757812 C17.16515625 132.51757812 29.04515625 132.51757812 41.28515625 132.51757812 C41.4950509 121.17945415 41.4950509 121.17945415 41.6730957 109.84082031 C41.70539253 108.41533805 41.73876723 106.98987963 41.7734375 105.56445312 C41.78280334 104.46157959 41.78280334 104.46157959 41.7923584 103.33642578 C41.87637308 100.34448487 42.15612342 97.83315842 43.29296875 95.05273438 C46.44908939 92.62066494 49.84584843 92.91371075 53.671875 92.90820312 C54.39620728 92.89257324 55.12053955 92.87694336 55.86682129 92.86083984 C58.5684343 92.80830181 61.27062532 92.78998359 63.97265625 92.76757812 C73.03734375 92.64382812 73.03734375 92.64382812 82.28515625 92.51757812 C82.28515625 80.30757812 82.28515625 68.09757812 82.28515625 55.51757812 C70.24377168 55.30758793 70.24377168 55.30758793 58.2019043 55.12963867 C56.69186926 55.09735239 55.1818569 55.06397918 53.671875 55.02929688 C52.88832642 55.02305298 52.10477783 55.01680908 51.29748535 55.01037598 C48.38473952 54.93302155 45.91545107 54.8407587 43.29296875 53.49609375 C41.64598712 50.26277516 41.80253643 46.90061691 41.7734375 43.34960938 C41.75680054 42.6449353 41.74016357 41.94026123 41.72302246 41.2142334 C41.66526818 38.58648402 41.63298172 35.95822471 41.59765625 33.33007812 C41.49453125 27.45195313 41.39140625 21.57382813 41.28515625 15.51757812 C29.40515625 15.51757812 17.52515625 15.51757812 5.28515625 15.51757812 Z " fill="#000000" transform="translate(232.71484375,57.482421875)"/>
<path d="M0 0 C2.38391656 2.1455249 2.91626913 3.63158419 3.625 6.75 C1.75585109 16.46957431 -11.85216391 26.05688369 -18.69140625 32.9296875 C-19.39461439 33.63697117 -20.09782253 34.34425484 -20.82234001 35.07297134 C-24.53510608 38.80647689 -28.25105226 42.53678449 -31.96948242 46.26464844 C-35.80337082 50.1096605 -39.62542707 53.96621969 -43.44505405 57.82539177 C-46.39382289 60.80027951 -49.35141846 63.76627144 -52.31147575 66.72992325 C-53.72501375 68.14832832 -55.13517507 69.57010696 -56.54184151 70.995327 C-58.50631032 72.98411656 -60.48300217 74.95992795 -62.46313477 76.93310547 C-63.0383638 77.52114456 -63.61359283 78.10918365 -64.20625305 78.71504211 C-67.5627898 82.02881747 -70.24260294 84.00515952 -75 85 C-78.8665824 84.0333544 -79.74490465 83.38264302 -82 80 C-82.5625 77.3125 -82.5625 77.3125 -82 74 C-80.65307999 72.17088223 -80.65307999 72.17088223 -78.89019775 70.22740173 C-77.93409985 69.17147733 -77.93409985 69.17147733 -76.95868683 68.09422112 C-74.0886416 65.02557879 -71.166399 62.01884184 -68.19433594 59.04907227 C-67.55439697 58.40577469 -66.91445801 57.76247711 -66.25512695 57.09968567 C-64.16748168 55.00264364 -62.07618305 52.90929535 -59.984375 50.81640625 C-58.52175768 49.35057187 -57.05921411 47.88466389 -55.59674072 46.41868591 C-52.54575637 43.36174106 -49.49273993 40.30684238 -46.43847656 37.25317383 C-42.52035386 33.33515335 -38.60919093 29.41026247 -34.69970322 25.48362827 C-31.68860098 22.46143443 -28.6729921 19.44376917 -25.65607452 16.42738152 C-24.21113819 14.9812637 -22.76782644 13.53352076 -21.32616425 12.08413887 C-19.31816758 10.0663865 -17.30398507 8.05501886 -15.28808594 6.04516602 C-14.69272034 5.44418091 -14.09735474 4.8431958 -13.48394775 4.22399902 C-8.91184864 -0.31318993 -6.35429608 -1.72095519 0 0 Z " fill="#000000" transform="translate(426,140)"/>
</svg>
