<?xml version="1.0" encoding="UTF-8"?>
<svg version="1.1" xmlns="http://www.w3.org/2000/svg" width="512" height="512">
<path d="M0 0 C1.10449745 -0.01065742 1.10449745 -0.01065742 2.23130798 -0.02153015 C33.30898759 -0.25326539 33.30898759 -0.25326539 47.01171875 3.203125 C47.93807129 3.43418945 48.86442383 3.66525391 49.81884766 3.90332031 C65.03683516 7.80914761 79.5414615 12.87394154 93.27734375 20.55859375 C93.95982178 20.93830322 94.6422998 21.3180127 95.34545898 21.70922852 C96.62694444 22.43384886 97.89828102 23.17684584 99.15649414 23.94116211 C101.05792957 25.08672841 101.05792957 25.08672841 104.01171875 26.203125 C107.62136548 25.0463973 110.95100424 23.28907425 114.3359375 21.59375 C126.66204942 15.49350783 138.75169006 9.91178436 152.01171875 6.203125 C152.70056152 6.00783203 153.3894043 5.81253906 154.09912109 5.61132812 C169.25478498 1.38581095 184.0769431 -0.18415416 199.76171875 -0.109375 C200.55608337 -0.10755219 201.350448 -0.10572937 202.16888428 -0.10385132 C213.69917677 -0.05929303 224.78959935 0.33802094 236.01171875 3.203125 C237.11821777 3.46851074 237.11821777 3.46851074 238.24707031 3.73925781 C258.11582326 8.55063713 275.38713814 16.81425674 291.01171875 30.203125 C291.85605469 30.91339844 292.70039063 31.62367187 293.5703125 32.35546875 C299.48006326 37.47365472 304.41780376 42.88322298 309.01171875 49.203125 C309.39827637 49.73115723 309.78483398 50.25918945 310.18310547 50.80322266 C328.07943278 75.52869192 338.91452072 106.60634261 339.25 137.234375 C339.25979385 137.97945816 339.26958771 138.72454132 339.27967834 139.49220276 C339.76844718 186.36990921 326.96576412 226.52583485 299.86108398 264.8425293 C275.99344648 298.64480373 267.61807945 334.39898866 261.47436523 374.73583984 C247.38390599 467.22455206 247.38390599 467.22455206 223.01171875 495.203125 C222.54378906 495.81285156 222.07585937 496.42257812 221.59375 497.05078125 C215.77645362 504.46498252 207.43353854 510.62577998 198.01171875 512.203125 C189.2529147 512.96725185 181.55398416 513.04346774 174.01171875 508.203125 C173.27695312 507.74035156 172.5421875 507.27757812 171.78515625 506.80078125 C144.16579234 487.39129699 136.52749397 442.19692264 130.9296875 411.390625 C129.52565755 403.30937772 128.29052921 395.20492382 127.13833618 387.08433533 C124.33811433 355.85702395 124.33811433 355.85702395 109.01171875 330.203125 C104.89511884 329.47673296 104.89511884 329.47673296 101.01171875 330.203125 C85.92324076 345.61708634 85.19225158 370.71321632 82.32217407 390.84719849 C69.38302734 481.18707798 69.38302734 481.18707798 40.43359375 505.35546875 C31.3011884 512.04071757 23.23700622 513.15698362 12.01171875 512.203125 C6.03697036 510.68796005 0.9222578 507.91331006 -3.98828125 504.203125 C-4.51679688 503.81898438 -5.0453125 503.43484375 -5.58984375 503.0390625 C-16.31844272 494.66193728 -22.56590449 482.37378817 -27.98828125 470.203125 C-28.43252441 469.21094971 -28.43252441 469.21094971 -28.88574219 468.19873047 C-42.70692736 436.65037301 -47.38848585 401.91496261 -52.55078125 368.140625 C-56.77532084 340.52953979 -61.47162942 314.08409484 -74.88574219 289.24609375 C-75.70413903 287.72963122 -76.50710641 286.20482053 -77.30175781 284.67578125 C-80.91783239 277.82682444 -85.08806469 271.60341321 -89.61328125 265.328125 C-109.24189983 237.53146837 -122.58219427 207.90864697 -127.98828125 174.203125 C-128.09285645 173.55166504 -128.19743164 172.90020508 -128.30517578 172.22900391 C-129.39278352 164.1565808 -129.2321711 155.95887134 -129.23828125 147.828125 C-129.23895599 147.02255157 -129.23963074 146.21697815 -129.24032593 145.38699341 C-129.22437026 133.40011042 -128.75297253 121.91224565 -125.98828125 110.203125 C-125.82199219 109.44402832 -125.65570313 108.68493164 -125.484375 107.90283203 C-118.98096818 78.51104622 -103.98189737 48.1589356 -79.98828125 29.203125 C-79.05757812 28.42453125 -78.126875 27.6459375 -77.16796875 26.84375 C-56.22635686 9.66038311 -26.98325351 0.17334166 0 0 Z M-63.8125 56.80859375 C-87.5809025 79.79876751 -98.06994117 112.52744408 -98.98828125 145.02734375 C-99.34607167 178.72992355 -88.69251329 212.86265078 -68.98828125 240.203125 C-61.01034189 251.54019673 -53.35266795 262.87248904 -46.98828125 275.203125 C-46.61219727 275.92935059 -46.23611328 276.65557617 -45.84863281 277.40380859 C-38.00526207 292.75196367 -32.23850392 308.5971529 -28.59375 325.453125 C-28.3826207 326.42832092 -28.17149139 327.40351685 -27.95396423 328.40826416 C-24.99321846 342.48818506 -22.92652832 356.73217874 -20.7444458 370.94897461 C-16.83677495 396.40305417 -12.66553051 421.8690999 -3.98828125 446.203125 C-3.75141602 446.87230957 -3.51455078 447.54149414 -3.27050781 448.23095703 C3.51635476 467.1069276 3.51635476 467.1069276 17.01171875 481.203125 C20.0258311 481.04448751 21.48357741 480.74943337 23.6015625 478.55859375 C25.11302881 476.12710447 26.59074846 473.68891446 28.01171875 471.203125 C28.48480469 470.40390625 28.95789063 469.6046875 29.4453125 468.78125 C41.33977624 446.9908503 46.27166095 421.0569321 49.94921875 396.765625 C50.11945557 395.64134094 50.28969238 394.51705688 50.46508789 393.35870361 C51.318723 387.67853857 52.14855016 381.99603659 52.9453125 376.30761719 C54.45394781 365.76249836 56.22551765 355.43065126 59.015625 345.140625 C59.25317505 344.26388123 59.4907251 343.38713745 59.73547363 342.48382568 C62.11548418 334.15540317 65.66147418 326.66920033 70.01171875 319.203125 C70.57761719 318.22730469 71.14351562 317.25148438 71.7265625 316.24609375 C76.95629408 308.03849148 84.32535889 302.3544016 93.7421875 299.69921875 C107.07605279 296.78458727 118.43205246 299.11954311 129.90625 306.40625 C149.50031148 321.09073851 153.76715915 353.72679359 156.99023438 376.04394531 C157.14661377 377.14339478 157.30299316 378.24284424 157.46411133 379.37561035 C163.79723015 433.92419453 163.79723015 433.92419453 189.01171875 481.203125 C192.04888229 481.76831434 192.04888229 481.76831434 195.01171875 480.203125 C208.92451961 467.19768072 214.95844092 445.94987613 219.63671875 428.140625 C219.90170166 427.13298096 220.16668457 426.12533691 220.43969727 425.0871582 C225.81179264 403.76793778 229.25963997 382.08038986 232.49121094 360.35449219 C234.22473757 348.75428049 236.08982782 337.22402523 238.57421875 325.7578125 C238.77200928 324.8446225 238.9697998 323.9314325 239.17358398 322.99057007 C245.03706034 296.77206577 256.59120637 272.14834103 272.01171875 250.203125 C299.32554406 210.98133926 314.49966942 169.01013099 306.61669922 120.78662109 C301.48169051 93.25512015 287.6361756 65.15847662 264.44921875 48.5546875 C261.06302608 46.25916818 257.5788288 44.20541791 254.01171875 42.203125 C253.14546875 41.71328125 252.27921875 41.2234375 251.38671875 40.71875 C221.75518843 25.71778778 184.2372835 28.17695058 153.59179688 38.21899414 C138.30827708 43.45572432 121.88692581 50.98501027 109.92578125 62.03515625 C107.01171875 64.203125 107.01171875 64.203125 104.46875 64.265625 C101.4484843 62.95956416 99.25242163 61.28324502 96.69921875 59.203125 C52.5000295 24.67533299 -20.70607191 17.04097613 -63.8125 56.80859375 Z " fill="#000000" transform="translate(150.98828125,-0.203125)"/>
</svg>
