<?xml version="1.0" encoding="UTF-8"?>
<svg version="1.1" xmlns="http://www.w3.org/2000/svg" width="512" height="512">
<path d="M0 0 C1.49506828 -0.00855011 1.49506828 -0.00855011 3.02033997 -0.01727295 C5.12381958 -0.02666591 7.22731353 -0.03323404 9.33081055 -0.03710938 C12.46626386 -0.04671187 15.60103092 -0.07774776 18.73632812 -0.109375 C57.00555829 -0.31063643 96.12615627 7.41410906 126.33203125 32.203125 C127.05648438 32.77546875 127.7809375 33.3478125 128.52734375 33.9375 C151.64956676 52.97933071 162.58454551 83.9849435 165.828125 112.91796875 C167.82337888 134.67573726 166.57498549 156.6402665 163.33203125 178.203125 C163.10652588 179.71132813 163.10652588 179.71132813 162.87646484 181.25 C161.01028101 193.21838147 158.42364145 204.98290164 155.5625 216.74609375 C155.31476837 217.76689529 155.06703674 218.78769684 154.8117981 219.83943176 C153.55988217 224.98246427 152.28944118 230.11992914 150.99023438 235.2512207 C150.514113 237.1726368 150.03819313 239.09410284 149.5625 241.015625 C149.22535225 242.3112159 149.22535225 242.3112159 148.88139343 243.63298035 C146.82218637 252.04083806 145.58815942 260.80252709 150.14453125 268.5546875 C154.51050548 274.6153491 161.13865621 276.34816504 168.1484375 277.77734375 C171.74404285 278.25822839 175.20425287 278.33538056 178.83203125 278.328125 C179.52401611 278.3290918 180.21600098 278.33005859 180.92895508 278.33105469 C186.78223532 278.30169152 192.53560671 277.76835867 198.34375 277.03125 C202.20725176 277.25346448 203.65130735 278.48376003 206.33203125 281.203125 C207.33203125 284.140625 207.33203125 284.140625 207.33203125 287.203125 C197.14424733 306.60091791 173.19815055 320.16938834 153.33203125 327.203125 C143.85417991 329.98430498 134.09532833 331.77343217 124.33203125 333.203125 C125.01007813 333.66460937 125.688125 334.12609375 126.38671875 334.6015625 C148.69929237 350.23890634 162.40126083 372.82875885 167.3581543 399.4543457 C168.5830397 406.91068625 168.67902942 414.32208577 168.703125 421.85546875 C168.71211618 423.32849709 168.72123836 424.80152463 168.73048401 426.27455139 C168.74683339 429.33613285 168.75465038 432.39760662 168.75756836 435.45922852 C168.76299384 439.37560802 168.80090201 443.29097652 168.84631252 447.20706844 C168.87605751 450.23801909 168.88329104 453.26872267 168.88429451 456.29980659 C168.88848788 457.74429612 168.90088688 459.18878698 168.92181206 460.63313103 C168.94871649 462.64708922 168.94079634 464.66142115 168.93139648 466.67553711 C168.93646713 467.8184874 168.94153778 468.96143768 168.94676208 470.13902283 C168.13597516 474.18035904 166.52521712 475.67816432 163.33203125 478.203125 C159.52607694 478.73729403 157.33757198 478.75881856 153.95703125 476.890625 C150.846473 473.66042989 151.20322192 470.21975278 151.19018555 465.96606445 C151.18315109 464.67654373 151.17611664 463.38702301 151.16886902 462.0584259 C151.16705313 461.36820658 151.16523724 460.67798725 151.16336632 459.96685219 C151.15616395 457.79040197 151.14046226 455.61417245 151.12202454 453.43778992 C151.06978521 447.24884384 151.02177062 441.06001056 151.00610352 434.87084961 C150.99588223 431.08049175 150.96619572 427.29067959 150.92478371 423.50053978 C150.91265162 422.07081466 150.90731904 420.64101175 150.90958214 419.21123695 C150.93767205 395.63501277 142.88812793 374.04739779 126.3046875 357.03125 C116.69457428 347.6313482 104.10168606 341.45884195 92.546875 334.80078125 C83.7374822 329.72018822 75.03975324 324.4551954 66.33203125 319.203125 C66.31744873 320.47317383 66.30286621 321.74322266 66.2878418 323.05175781 C66.22936493 327.81569973 66.15213976 332.5791931 66.06958008 337.34277344 C66.0365611 339.39478208 66.00845948 341.44687652 65.9855957 343.49902344 C65.76805202 362.51326696 64.31647475 379.0764377 50.58203125 393.640625 C39.1191705 404.37181379 25.44052337 408.5642844 9.99609375 408.41796875 C-5.58823867 407.50417527 -17.2437187 400.36550837 -27.66796875 389.203125 C-35.75912176 378.63607916 -38.74025905 366.56963754 -38.984375 353.52734375 C-39.0051561 352.6021846 -39.02593719 351.67702545 -39.04734802 350.72383118 C-39.11253435 347.77950193 -39.17158433 344.83508635 -39.23046875 341.890625 C-39.27368339 339.88996517 -39.31729861 337.88931394 -39.36132812 335.88867188 C-39.46818395 330.99357721 -39.56953794 326.09839603 -39.66796875 321.203125 C-47.36142921 325.48968499 -55.02289475 329.83089176 -62.66796875 334.203125 C-63.77333984 334.8336377 -64.87871094 335.46415039 -66.01757812 336.11376953 C-84.13414671 346.45900918 -84.13414671 346.45900918 -99.66796875 360.203125 C-100.33183594 360.8734375 -100.99570313 361.54375 -101.6796875 362.234375 C-118.59008075 380.13518174 -121.76681683 403.91754308 -121.84375 427.3828125 C-121.8541989 428.72658048 -121.86562552 430.07034117 -121.87797546 431.41409302 C-121.92995533 437.07225763 -121.97850864 442.73027254 -121.99389648 448.38867188 C-122.00397493 451.86936824 -122.03326578 455.34944671 -122.07521629 458.82989883 C-122.09345403 460.78852698 -122.09088206 462.74731328 -122.08796692 464.70602417 C-122.10445786 465.894711 -122.12094879 467.08339783 -122.13793945 468.30810547 C-122.14380569 469.35271942 -122.14967194 470.39733337 -122.15571594 471.47360229 C-122.79548877 474.88261135 -124.01326383 476.04613952 -126.66796875 478.203125 C-128.48046875 479.140625 -128.48046875 479.140625 -130.66796875 479.203125 C-137.3586904 476.8216817 -137.3586904 476.8216817 -138.66796875 474.203125 C-138.78051635 472.01634085 -138.82735117 469.82608221 -138.8449707 467.63647461 C-138.8515419 466.96123245 -138.8581131 466.2859903 -138.86488342 465.59028625 C-138.88465535 463.34534587 -138.89629978 461.10047318 -138.90625 458.85546875 C-138.91032553 458.08417696 -138.91440105 457.31288517 -138.91860008 456.5182209 C-138.93949689 452.42027173 -138.95377182 448.32235621 -138.96313477 444.22436523 C-138.97408843 440.03554294 -139.00834629 435.84726834 -139.04830647 431.65863705 C-139.07477874 428.40417159 -139.08285423 425.14982916 -139.08641624 421.89526558 C-139.09121944 420.35464423 -139.10264852 418.81402594 -139.12145424 417.27351189 C-139.4327712 390.03410967 -129.72834485 365.73916111 -110.66796875 346.203125 C-109.97574219 345.47222656 -109.28351563 344.74132812 -108.5703125 343.98828125 C-104.54438201 339.82272311 -100.41787292 336.512111 -95.66796875 333.203125 C-96.92609375 333.04457031 -98.18421875 332.88601563 -99.48046875 332.72265625 C-130.2568715 328.62578763 -157.26351865 316.25906367 -177.97265625 292.56640625 C-180.26263981 289.37414806 -180.66796875 287.11485288 -180.66796875 283.203125 C-178.90155703 280.40123054 -177.63747053 278.68787589 -174.66796875 277.203125 C-172.62316304 277.29499308 -170.58118188 277.45258939 -168.54296875 277.640625 C-146.73254159 279.56013241 -146.73254159 279.56013241 -126.66796875 272.203125 C-121.4422025 266.83983858 -120.45208304 262.17611185 -120.51611328 254.93481445 C-120.75592804 250.62084771 -121.69475302 246.57453764 -122.73046875 242.390625 C-122.95089844 241.45541016 -123.17132813 240.52019531 -123.3984375 239.55664062 C-124.67998895 234.15229589 -126.02733952 228.76510784 -127.3828125 223.37890625 C-131.70156766 206.09913451 -135.12995958 188.83547178 -137.66796875 171.203125 C-137.80074219 170.29868652 -137.93351562 169.39424805 -138.0703125 168.46240234 C-143.68482905 128.63245414 -140.4592979 84.43577401 -116.8828125 50.64453125 C-115.2045569 48.43871466 -113.4616936 46.31573426 -111.66796875 44.203125 C-111.08789062 43.47867188 -110.5078125 42.75421875 -109.91015625 42.0078125 C-86.83020796 14.29256079 -47.75438004 3.74131622 -13.36384583 0.41107178 C-8.91004674 0.06752749 -4.46540576 0.02049008 0 0 Z M-89.66796875 46.203125 C-90.57160156 47.01394531 -91.47523438 47.82476562 -92.40625 48.66015625 C-106.94279972 62.39247086 -115.12939608 79.81837684 -119.66796875 99.203125 C-119.8189502 99.83621582 -119.96993164 100.46930664 -120.12548828 101.12158203 C-129.94718437 144.33916385 -118.17931828 191.08037116 -107.65185547 233.00683594 C-107.46169357 233.76760437 -107.27153168 234.5283728 -107.0756073 235.31219482 C-106.72053543 236.72910694 -106.36232256 238.14523761 -106.00019836 239.56036377 C-102.57799045 253.19694962 -102.43146549 265.51834814 -108.73046875 278.37109375 C-113.96444317 286.60369935 -123.57566562 290.75474011 -132.66796875 293.203125 C-136.11255215 293.80716959 -139.54216531 294.30618239 -143.015625 294.7109375 C-145.81354256 294.97121575 -145.81354256 294.97121575 -147.66796875 297.203125 C-124.21242393 312.80937332 -98.56724374 319.84155686 -70.48046875 314.890625 C-69.81096191 314.77299805 -69.14145508 314.65537109 -68.45166016 314.53417969 C-61.91411167 313.25512967 -55.74505553 311.20048591 -50.16796875 307.515625 C-49.49765625 307.07863281 -48.82734375 306.64164062 -48.13671875 306.19140625 C-47.65203125 305.86527344 -47.16734375 305.53914063 -46.66796875 305.203125 C-49.76515225 302.00270205 -52.98822435 299.0571359 -56.35546875 296.140625 C-75.11677635 279.21647808 -86.55199836 256.26087521 -89.66796875 231.203125 C-89.76117384 228.62562094 -89.81495183 226.07543106 -89.81323242 223.4987793 C-89.81659103 222.7627951 -89.81994965 222.02681091 -89.82341003 221.26852417 C-89.8328464 218.85477981 -89.83485947 216.44110537 -89.8359375 214.02734375 C-89.83915525 212.3349454 -89.8425197 210.64254732 -89.84602356 208.95014954 C-89.85199661 205.40889848 -89.85386535 201.86767175 -89.85327148 198.32641602 C-89.85316999 193.81101689 -89.86681757 189.29577545 -89.88404369 184.78041363 C-89.89521696 181.28604937 -89.89718906 177.79172259 -89.89666176 174.2973423 C-89.89783403 172.63374094 -89.90221304 170.97013837 -89.90999413 169.30655479 C-90.00157876 147.70354001 -90.00157876 147.70354001 -85.66796875 141.203125 C-81.47521921 139.96996337 -79.36559566 139.88721848 -75.35546875 141.703125 C-73.41102925 142.94858298 -71.57474162 144.27460544 -69.7421875 145.6796875 C-27.13681808 177.61479567 37.92318681 181.35873725 89.3984375 183.6875 C90.64282593 183.74627068 90.64282593 183.74627068 91.91235352 183.80622864 C95.92802331 183.99496216 99.94242751 184.16403111 103.96044922 184.29370117 C105.40595316 184.35528759 106.85143021 184.41750949 108.296875 184.48046875 C109.56136475 184.52421631 110.82585449 184.56796387 112.12866211 184.61303711 C115.33203125 185.203125 115.33203125 185.203125 117.74072266 186.72802734 C119.99656445 190.23673003 119.8863509 193.4892435 119.828125 197.52734375 C119.82958023 198.34701126 119.83103546 199.16667877 119.83253479 200.01118469 C119.83087504 201.75203998 119.81930508 203.49290982 119.79858398 205.23364258 C119.77012008 207.83677429 119.77787434 210.43780179 119.79101562 213.04101562 C119.75121345 244.53617867 109.95460736 271.55654317 87.64453125 294.078125 C84.00787866 297.64837804 80.34261246 301.05969649 76.33203125 304.203125 C86.16822081 314.59608001 99.68433101 316.10658341 113.28686523 316.60522461 C135.14486628 316.93342282 155.32704555 310.45518078 173.33203125 298.203125 C173.66203125 297.543125 173.99203125 296.883125 174.33203125 296.203125 C173.45804687 296.03876953 173.45804687 296.03876953 172.56640625 295.87109375 C169.81619344 295.33921297 167.07388243 294.77658407 164.33203125 294.203125 C162.83736328 293.89375 162.83736328 293.89375 161.3125 293.578125 C152.16377235 291.51114674 144.55968944 288.46872623 138.33203125 281.203125 C137.90148437 280.71328125 137.4709375 280.2234375 137.02734375 279.71875 C130.76418633 271.93612835 129.31458729 261.91509012 130.33203125 252.203125 C132.01088016 240.83172171 134.93066795 229.70166245 137.76953125 218.578125 C147.35298954 180.87569065 155.68212796 137.87350527 146.33203125 99.203125 C146.16574219 98.48995117 145.99945313 97.77677734 145.828125 97.04199219 C139.9848176 72.77062459 126.2417375 50.58967647 104.7421875 37.29125977 C80.88398311 23.15462534 52.93745838 16.86519468 25.33203125 16.203125 C24.48914551 16.18266113 23.64625977 16.16219727 22.77783203 16.14111328 C-15.47952566 15.34750103 -59.97681596 19.22437768 -89.66796875 46.203125 Z M-73.66796875 163.203125 C-74.53868086 166.21450123 -74.79902381 168.90689695 -74.81323242 172.03735352 C-74.81961227 172.9967836 -74.82599213 173.95621368 -74.83256531 174.94471741 C-74.83367813 175.98003098 -74.83479095 177.01534454 -74.8359375 178.08203125 C-74.8392659 179.16330795 -74.8425943 180.24458466 -74.84602356 181.35862732 C-74.85109004 183.65599137 -74.85343197 185.95336279 -74.85327148 188.25073242 C-74.85542803 191.70048933 -74.87350259 195.14991034 -74.89257812 198.59960938 C-74.98068111 232.24431828 -70.32221529 259.03493274 -46.19921875 283.73046875 C-27.71974473 301.27996924 -4.374085 308.17401578 20.625 307.55078125 C33.52414441 306.95047078 44.94962464 303.26864906 56.33203125 297.203125 C57.17894531 296.76355469 58.02585937 296.32398438 58.8984375 295.87109375 C80.65365745 283.75382036 94.13152023 263.45479406 101.30078125 240.0390625 C104.52810353 227.04012555 103.60333596 213.49427332 103.33203125 200.203125 C102.4404834 200.16348633 101.54893555 200.12384766 100.63037109 200.08300781 C41.43807122 197.35650157 -18.13112634 191.4522961 -71.66796875 164.203125 C-72.32796875 163.873125 -72.98796875 163.543125 -73.66796875 163.203125 Z M-21.66796875 318.203125 C-21.76758662 324.26793749 -21.83978881 330.33226326 -21.88769531 336.39770508 C-21.90768721 338.45670886 -21.93489003 340.51565677 -21.96972656 342.57446289 C-22.20997176 357.14816082 -22.29980276 370.00524427 -11.66796875 381.203125 C-3.32017544 388.95721749 5.59281886 391.95494319 16.93359375 391.5859375 C26.89551012 390.4637906 35.28317695 385.21597439 41.58203125 377.515625 C49.50940608 365.65494137 48.82022974 353.75810488 48.58203125 340.015625 C48.56193489 337.99415833 48.54368967 335.97267236 48.52734375 333.95117188 C48.48359832 329.0346739 48.41474383 324.11911549 48.33203125 319.203125 C46.60919637 319.51202621 44.88658393 319.82216816 43.1640625 320.1328125 C41.7251062 320.39167236 41.7251062 320.39167236 40.25708008 320.65576172 C37.50091094 321.17152261 34.76229739 321.7461379 32.01953125 322.328125 C17.07689485 324.75703209 1.98528213 323.66402282 -12.66796875 320.203125 C-14.2425955 319.84987209 -15.81772895 319.49887175 -17.39331055 319.14990234 C-18.19608932 318.97196136 -18.9988681 318.79402039 -19.82597351 318.61068726 C-20.43383194 318.47619171 -21.04169037 318.34169617 -21.66796875 318.203125 Z " fill="#000000" transform="translate(242.66796875,16.796875)"/>
</svg>
